<svg width="2036" height="693" viewBox="0 0 2036 693" fill="none" xmlns="http://www.w3.org/2000/svg">
<path d="M1847.74 654.262C1869.92 655.389 1909.42 611.524 1926.39 589.452C1939.96 573.214 1920.67 555.653 1909.33 548.902C1880.35 561.097 1821.37 565.789 1810.26 570.464C1796.37 576.308 1802.69 610.127 1810.26 614.133C1817.83 618.14 1820.02 652.854 1847.74 654.262Z" fill="#AFAFB1"/>
<path d="M1855.07 409.461C1807.74 405.741 1768.88 377.796 1755.36 364.289C1722.79 355.654 1752.7 398.832 1813.19 409.461C1873.68 420.089 1879 426.068 1893.62 430.053C1908.24 434.039 1911.56 448.653 1920.21 462.603C1928.85 476.553 1934.16 475.889 1936.16 479.21C1938.15 482.532 1940.81 483.196 1934.16 491.832C1927.52 500.467 1911.56 515.082 1914.89 525.71C1918.21 536.339 1913.56 547.632 1911.56 554.939C1909.57 562.246 1894.28 564.239 1904.92 570.217C1915.55 576.196 1925.52 552.282 1921.53 535.675C1917.55 519.067 1927.52 509.103 1940.81 494.489C1954.1 479.875 1954.1 491.832 1965.4 503.125C1976.7 514.418 1980.03 517.075 1994.65 525.71C2009.27 534.346 2035.2 528.367 2011.27 517.075C1987.34 505.782 1983.35 507.11 1945.46 469.91C1907.58 432.711 1914.22 414.111 1855.07 409.461Z" fill="#33544B"/>
<path d="M1289.23 432.379C1291.11 398.431 1277.46 337.086 1270.41 310.658C1267.18 269.417 1281.38 284.222 1297.08 290.095C1312.78 295.969 1324.22 397.252 1313.91 420.72C1303.61 444.188 1331.91 466.781 1326.09 481.483C1320.27 496.185 1286.89 474.815 1289.23 432.379Z" fill="#717371"/>
<path d="M1826.71 572.74C1846.71 568.295 1886.06 562.638 1902.39 560.379C1926.05 552.535 1914.51 548.104 1907.57 540.756C1900.64 533.408 1857.25 547.219 1844.03 540.756C1830.15 533.971 1814.37 547.843 1807.57 554.511C1800.76 561.18 1810.3 576.386 1826.71 572.74Z" fill="#687F79"/>
<path d="M1172.02 257.924C1188.42 244.724 1232.18 263.424 1252.02 274.424C1279.02 323.924 1172.02 414.424 1154.52 416.924C1137.02 419.424 1136.02 401.424 1128.52 373.924C1121.02 346.424 1077.02 357.424 1078.02 318.924C1079.02 280.424 1151.52 274.424 1172.02 257.924Z" fill="#6C837D"/>
<path d="M1954.68 602.709C1958.18 590.513 1937.56 570.574 1926.81 562.129C1893 558.703 1867.75 639.294 1870.45 649.599C1873.15 659.904 1883.38 656.251 1900.41 653.989C1917.44 651.726 1921.62 678.738 1942.77 669.183C1963.92 659.627 1950.31 617.953 1954.68 602.709Z" fill="#6C837D"/>
<path d="M1162 454.655C1146 421.455 1187.67 332.822 1210.5 292.655C1226.6 261.455 1265.88 279.655 1283.5 292.655V474.155C1283.5 499.155 1258.5 495.155 1247.5 486.155C1236.5 477.155 1182 496.155 1162 454.655Z" fill="#AFAFB1"/>
<path d="M1119.97 357.387C1144.03 356.126 1184.81 328.766 1202.19 315.243C1222.08 301.068 1248.97 328.07 1243.11 342.106C1237.25 356.142 1206.08 400.747 1196.75 408.096C1187.41 415.444 1174.59 431.324 1173.96 415.66C1173.33 399.997 1219.83 353.142 1225.02 347.682C1230.2 342.222 1220.05 339.014 1206.38 353.357C1192.71 367.701 1160.21 392.826 1151.46 397.249C1142.72 401.673 1123.02 419.94 1135.69 400.145C1145.83 384.309 1188.2 348.242 1208.12 332.188C1191.71 342.901 1156.22 364.368 1145.46 364.541C1132 364.757 1105.21 371.93 1095.02 371.547C1084.82 371.164 1089.89 358.963 1119.97 357.387Z" fill="#3B4B17"/>
<path d="M1911.6 654.871C1906.68 641.212 1912.34 612.163 1915.79 599.345C1919.01 584.984 1897.73 576.362 1891.3 582.897C1884.87 589.432 1867.38 617.173 1865.48 624.076C1863.58 630.978 1857.76 641.816 1866.61 638.502C1875.46 635.189 1890.61 598.406 1892.43 594.251C1894.25 590.096 1898.41 594.982 1893.64 605.93C1888.87 616.878 1882.51 640.802 1882.09 646.695C1881.68 652.587 1876.14 667.8 1884.17 656.134C1890.6 646.801 1900.73 614.834 1904.99 600.017C1902.87 611.631 1899.25 636.365 1901.67 642.384C1904.69 649.908 1906.97 666.47 1909.57 672.041C1912.16 677.612 1917.75 671.944 1911.6 654.871Z" fill="#3B4B17"/>
<circle cx="9.5" cy="9.5" r="9.5" transform="matrix(1 0 0 -1 1167 430.155)" fill="#7A745E"/>
<circle cx="1863.24" cy="638.259" r="5.72521" transform="rotate(-112.824 1863.24 638.259)" fill="#7A745E"/>
<circle cx="9.5" cy="9.5" r="9.5" transform="matrix(1 0 0 -1 1122 420.155)" fill="#AD927C"/>
<circle cx="1879.31" cy="660.918" r="5.72521" transform="rotate(-112.824 1879.31 660.918)" fill="#C6C9C6"/>
<circle cx="9.5" cy="9.5" r="9.5" transform="matrix(1 0 0 -1 1080 377.155)" fill="#7A745E"/>
<circle cx="1913.02" cy="674.197" r="5.72521" transform="rotate(-112.824 1913.02 674.197)" fill="#7A745E"/>
<path d="M1164 274.655C1195.2 279.055 1237 268.822 1254 263.155C1207 217.655 1135 241.655 1116 245.155C1097 248.655 1065.5 293.156 1088 300.156C1110.5 307.156 1125 269.155 1164 274.655Z" fill="#4C5E59"/>
<path d="M1947.26 611.073C1937.52 594.771 1933.44 569.16 1932.61 558.392C1968.87 573.863 1972.37 619.467 1974.87 630.839C1977.36 642.211 1960.01 670.111 1950.86 659.249C1941.71 648.388 1959.43 631.45 1947.26 611.073Z" fill="#4C5E59"/>
<path d="M1177.51 312.742C1203.79 249.766 1248.79 248.898 1268.01 256.336C1335.57 267.493 1280.41 312.742 1301.48 351.791C1322.56 390.841 1294.04 462.123 1280.41 449.727C1266.77 437.33 1244.45 444.768 1232.68 449.727C1220.9 454.686 1201.68 421.834 1200.44 390.842C1199.21 359.85 1144.66 391.462 1177.51 312.742Z" fill="#C6C9C6"/>
<path d="M1922.95 612.472C1951.78 583.152 1941.75 557.952 1933.12 549.017C1911.13 514.095 1898.89 555.317 1872.28 552.738C1845.66 550.16 1812.73 582.662 1822.8 587.339C1832.88 592.016 1833.96 606.15 1833.96 613.851C1833.96 621.552 1856.7 624.546 1874.2 617.99C1891.71 611.434 1886.9 649.123 1922.95 612.472Z" fill="#C6C9C6"/>
<path d="M1193.23 238.9C1199.21 257.49 1242.99 270.436 1264.13 274.585C1295.53 253.89 1278.56 234.085 1257.28 232.88C1236 231.676 1219.25 209.805 1217.25 201.502C1215.25 193.199 1185.62 177.017 1168.37 177.281C1154.57 177.493 1148.5 169.265 1147.2 165.125C1147.09 176.077 1158.78 184.098 1168.22 191.1C1177.67 198.102 1185.75 215.661 1193.23 238.9Z" fill="#6C837D"/>
<path d="M1974.18 433.357C1964.4 446.058 1926.99 443.916 1909.51 441.257C1890.99 416.563 1909.6 405.973 1926.37 410.943C1943.14 415.913 1962.15 403.667 1966 397.808C1969.84 391.949 1997.21 387.665 2010.47 392.655C2021.07 396.646 2028.04 391.972 2030.19 389.136C2027.24 397.625 2015.98 400.58 2006.75 403.369C1997.51 406.158 1986.4 417.482 1974.18 433.357Z" fill="#6C837D"/>
<path d="M1471.71 167.126C1433.49 192.496 1432.16 299.747 1436.27 350.201C1503.13 408.049 1537.08 357.048 1526.23 308.163C1515.37 259.278 1554.13 207.453 1571.64 197.644C1589.14 187.835 1606.83 110.537 1595.21 71.6835C1585.92 40.6006 1600.66 21.6524 1609.19 16.0636C1584.35 22.7985 1573.67 54.3361 1563.86 80.1537C1554.06 105.971 1519.5 135.415 1471.71 167.126Z" fill="#819F98"/>
<path d="M1597.91 279.655C1590.71 279.655 1591.57 261.322 1592.91 252.155C1583.91 225.158 1600.41 202.655 1601.91 192.155C1603.41 181.655 1613.41 189.655 1623.91 192.155C1634.41 194.655 1651.41 187.655 1655.91 202.655C1660.41 217.655 1640.91 235.655 1635.91 252.155C1630.91 268.655 1606.91 279.655 1597.91 279.655Z" fill="#A07F64"/>
<path d="M1712.5 372.205C1715.98 367.496 1703.5 359.124 1696.82 355.526C1683.4 336.475 1660.6 336.295 1652.96 332.157C1645.32 328.018 1645.74 338.46 1642.3 346.546C1638.86 354.633 1626.01 362.34 1633.71 372.597C1641.4 382.854 1662.7 378.877 1675.98 383.652C1689.27 388.427 1708.14 378.092 1712.5 372.205Z" fill="#A07F64"/>
<path d="M1611.91 295.156C1599.91 289.556 1606.91 277.822 1611.91 272.656C1611.91 264.156 1640.91 233.655 1649.41 227.155C1657.91 220.655 1664.91 228.655 1668.41 233.655C1671.91 238.655 1672.91 252.655 1675.41 257.655C1677.91 262.655 1681.41 275.655 1672.91 295.156C1664.41 314.656 1669.41 319.656 1664.91 326.656C1660.41 333.656 1651.41 331.156 1645.91 322.656C1640.41 314.156 1626.91 302.156 1611.91 295.156Z" fill="#AD927C"/>
<path d="M1715.59 388.436C1717.81 377.807 1706.73 376.764 1700.92 377.571C1695.38 373.466 1661.31 377.889 1652.91 380.363C1644.52 382.837 1646.31 391.323 1647.86 396.049C1649.41 400.775 1658.04 408.196 1660.08 412.261C1662.12 416.327 1668.88 424.916 1685.75 428.719C1702.62 432.523 1703.43 438.239 1710.2 438.647C1716.96 439.056 1719.74 431.905 1716.89 424.169C1714.03 416.432 1712.82 401.722 1715.59 388.436Z" fill="#AD927C"/>
<path d="M1341 105.156C1292.6 159.156 1345.17 202.322 1377.5 217.156C1414 237.656 1441 217.156 1455 173.656C1469 130.156 1443 95.1556 1421 85.6556C1399 76.1556 1372.5 105.156 1365.5 105.156H1341Z" fill="#AFAFB1"/>
<path d="M1496.5 270.155C1466.9 278.155 1435.17 273.488 1423 270.155C1349.5 203.655 1496.5 128.155 1521.5 123.155C1546.5 118.155 1531.5 160.655 1559 172.655C1586.5 184.655 1571 239.155 1566 254.155C1561 269.155 1533.5 260.155 1496.5 270.155Z" fill="#7A745E"/>
<path d="M1317 278.656C1350.2 277.056 1377.17 254.322 1386.5 243.156C1375.5 178.656 1297 141.155 1265.5 133.155C1234 125.155 1208 177.655 1207 198.655C1206 219.655 1244.5 219.156 1247.5 243.156C1250.5 267.156 1275.5 280.656 1317 278.656Z" fill="#AD927C"/>
<path d="M1398.5 386.155C1388.9 375.755 1394.5 291.155 1398.5 250.155C1412.5 217.655 1500.5 268.155 1528.5 282.655C1556.5 297.155 1546 330.655 1545 357.155C1544 383.655 1499.5 406.655 1488.5 403.155C1477.5 399.655 1410.5 399.155 1398.5 386.155Z" fill="#C29E80"/>
<path d="M1292 303.655C1291.2 273.655 1347.33 248.155 1375.5 239.155C1423 217.943 1419 380.155 1402.5 398.155C1386 416.155 1351 395.155 1322 386.155C1293 377.155 1293 341.155 1292 303.655Z" fill="#A07F64"/>
<path d="M1384.5 311.655V253.155C1381.5 243.655 1367.5 196.655 1371.5 183.155C1375.5 169.655 1390.5 166.655 1384.5 187.155C1379.7 203.555 1392.83 219.655 1400 225.655C1431 211.155 1472 204.655 1477.5 212.155C1483 219.655 1404 222.155 1411.5 233.155C1419 244.155 1463.5 260.655 1456.5 272.155C1449.5 283.655 1412 236.155 1404 246.655C1396 257.155 1415 275.155 1425.5 291.655C1436 308.155 1439.5 311.655 1425.5 307.655C1411.5 303.655 1400 250.155 1393.5 260.655C1387 271.155 1395.5 314.655 1393.5 319.655C1391.5 324.655 1384.5 323.655 1384.5 311.655Z" fill="#3B4B17"/>
<circle cx="9.5" cy="9.5" r="9.5" transform="matrix(1 0 0 -1 1380 332.155)" fill="#7A745E"/>
<circle cx="9.5" cy="9.5" r="9.5" transform="matrix(1 0 0 -1 1424 321.155)" fill="#687F79"/>
<circle cx="9.5" cy="9.5" r="9.5" transform="matrix(1 0 0 -1 1449 279.155)" fill="#7A745E"/>
<circle cx="9.5" cy="9.5" r="9.5" transform="matrix(1 0 0 -1 1468 224.155)" fill="#AFAFB1"/>
<circle cx="9.5" cy="9.5" r="9.5" transform="matrix(1 0 0 -1 1377 182.155)" fill="#7A745E"/>
<circle cx="9.5" cy="9.5" r="9.5" transform="matrix(1 0 0 -1 1371 253.155)" fill="#7A745E"/>
<path d="M1597.25 256.919C1590 297.141 1557.75 279.856 1553.18 281.001C1521.27 285.375 1514.88 258.073 1508.94 247.211C1503 236.35 1524.61 210.241 1542.51 195.546C1560.42 180.851 1578 204.424 1589.6 210.812C1601.19 217.199 1604.51 216.697 1597.25 256.919Z" fill="#AD927C"/>
<path d="M1697.48 360.423C1727.45 375.235 1731.79 345.627 1734.77 343.177C1753.18 324.336 1738.35 306.841 1734.1 297.649C1729.85 288.456 1702.17 289.945 1683.79 294.559C1665.42 299.173 1672.35 322.211 1670.9 332.943C1669.45 343.674 1667.51 345.61 1697.48 360.423Z" fill="#AD927C"/>
<path d="M1506.91 285.655C1514.91 263.655 1561.57 268.155 1583.91 273.155C1648.91 292.655 1554.41 347.655 1546.41 351.655C1538.41 355.655 1535.41 344.655 1523.91 329.655C1512.41 314.655 1496.91 313.155 1506.91 285.655Z" fill="#7A745E"/>
<path d="M1760.56 314.943C1742.26 309.518 1722.54 342.312 1714.96 359.387C1696.15 411.483 1778.08 376.176 1784.59 372.869C1791.09 369.562 1785.35 362.258 1781.11 347.438C1776.88 332.618 1783.43 321.723 1760.56 314.943Z" fill="#7A745E"/>
<path d="M1575.62 382.327C1564.82 376.327 1580.12 323.16 1589.12 297.327C1589.12 255.827 1607.12 278.327 1624.62 284.827C1642.12 291.327 1639.62 319.327 1647.62 334.327C1655.62 349.327 1637.62 371.827 1627.12 371.827C1616.62 371.827 1589.12 389.827 1575.62 382.327Z" fill="#AFAFB1"/>
<path d="M1790.42 407.296C1791.77 397.227 1749.33 381.471 1727.94 374.851C1700.66 354.648 1706.63 377.515 1702.32 392.261C1698.01 407.008 1717.64 418.984 1723.58 431.581C1729.51 444.178 1753.13 443.218 1758.27 436.269C1763.42 429.32 1788.73 419.882 1790.42 407.296Z" fill="#AFAFB1"/>
<path d="M1609.41 311.156C1607.01 300.356 1600.07 290.656 1596.91 287.156C1596.24 285.822 1593.91 283.155 1589.91 283.155C1584.91 283.155 1580.41 287.156 1576.41 289.155C1572.41 291.155 1569.41 299.155 1565.41 300.655C1561.41 302.155 1558.91 294.655 1562.41 292.655C1565.91 290.655 1569.41 283.155 1580.41 277.155C1591.41 271.155 1595.41 279.155 1596.91 273.655C1598.41 268.155 1598.41 268.655 1606.41 264.155C1614.41 259.655 1616.91 250.155 1620.41 246.155C1623.91 242.155 1629.41 249.155 1622.91 256.155C1616.41 263.155 1611.41 270.155 1615.41 271.155C1619.41 272.155 1626.91 273.655 1633.91 273.655C1640.91 273.655 1643.91 280.655 1642.91 283.155C1641.91 285.655 1634.91 281.655 1626.91 279.155C1618.91 276.655 1607.41 279.155 1612.91 280.655C1618.41 282.155 1625.41 294.655 1626.91 297.155C1628.41 299.655 1632.91 308.655 1629.41 309.155C1625.91 309.655 1620.41 295.155 1615.41 289.155C1610.41 283.155 1596.91 281.655 1604.91 287.156C1612.91 292.656 1621.91 327.156 1620.41 330.156C1618.91 333.156 1612.41 324.656 1609.41 311.156Z" fill="#3B4B17"/>
<path d="M1727.02 394.599C1721.1 387.784 1718.1 378.539 1717.34 374.769C1716.78 373.685 1716.17 370.864 1718.1 368.249C1720.52 364.98 1725.33 363.982 1728.57 362.338C1731.82 360.695 1738.52 362.62 1741.44 360.733C1744.36 358.847 1740.66 353.569 1737.65 354.886C1734.64 356.203 1728.03 354.847 1718.77 359.124C1709.51 363.4 1712.82 369.902 1708.48 368.21C1704.15 366.519 1704.48 366.762 1697.65 369.806C1690.83 372.85 1683.39 369.87 1679.07 370.215C1674.75 370.56 1676.68 377.556 1684.42 376.707C1692.15 375.858 1699.17 375.99 1697.88 379.09C1696.6 382.191 1693.95 387.823 1690.57 392.399C1687.18 396.975 1690.31 402.337 1692.44 402.898C1694.56 403.458 1695.33 396.939 1697.56 390.495C1699.8 384.05 1707 377.747 1705.32 382.071C1703.65 386.395 1708.45 397.044 1709.37 399.239C1710.28 401.434 1714 408.747 1716.03 406.702C1718.05 404.657 1711.2 394.018 1709.69 387.834C1708.18 381.651 1713.73 372.097 1713.46 379.999C1713.2 387.9 1731.46 410.543 1734.16 411.02C1736.85 411.497 1734.42 403.118 1727.02 394.599Z" fill="#3B4B17"/>
<circle cx="5.5" cy="5.5" r="5.5" transform="matrix(1 0 0 -1 1613.91 337.155)" fill="#AD927C"/>
<circle cx="1736.38" cy="411.368" r="4.5" transform="rotate(126.528 1736.38 411.368)" fill="#AD927C"/>
<circle cx="5.5" cy="5.5" r="5.5" transform="matrix(1 0 0 -1 1624.91 314.155)" fill="#AD927C"/>
<circle cx="1715.75" cy="407.291" r="4.5" transform="rotate(126.528 1715.75 407.291)" fill="#AD927C"/>
<circle cx="5.5" cy="5.5" r="5.5" transform="matrix(1 0 0 -1 1638.91 284.155)" fill="#687F79"/>
<circle cx="1688.52" cy="402.054" r="4.5" transform="rotate(126.528 1688.52 402.054)" fill="#687F79"/>
<circle cx="5.5" cy="5.5" r="5.5" transform="matrix(1 0 0 -1 1619.91 254.155)" fill="#AFAFB1"/>
<circle cx="1678.76" cy="374.911" r="4.5" transform="rotate(126.528 1678.76 374.911)" fill="#AFAFB1"/>
<circle cx="5.5" cy="5.5" r="5.5" transform="matrix(1 0 0 -1 1555.91 303.155)" fill="#AD927C"/>
<circle cx="1741.85" cy="356.935" r="4.5" transform="rotate(126.528 1741.85 356.935)" fill="#AD927C"/>
<path d="M187.491 654.262C165.309 655.389 125.817 611.524 108.843 589.452C95.2766 573.214 114.567 555.653 125.908 548.902C154.885 561.097 213.866 565.789 224.975 570.464C238.862 576.308 232.546 610.127 224.975 614.133C217.405 618.14 215.218 652.854 187.491 654.262Z" fill="#AFAFB1"/>
<path d="M180.167 409.461C227.493 405.741 266.355 377.796 279.87 364.289C312.439 355.654 282.529 398.832 222.042 409.461C161.556 420.089 156.238 426.068 141.615 430.053C126.992 434.039 123.669 448.653 115.028 462.603C106.387 476.553 101.069 475.889 99.0753 479.21C97.0813 482.532 94.4225 483.196 101.069 491.832C107.716 500.467 123.669 515.082 120.345 525.71C117.022 536.339 121.675 547.632 123.669 554.939C125.663 562.246 140.951 564.239 130.316 570.217C119.681 576.196 109.71 552.282 113.698 535.675C117.687 519.067 107.716 509.103 94.4225 494.489C81.1288 479.875 81.1288 491.832 69.8291 503.125C58.5295 514.418 55.2061 517.075 40.583 525.71C25.9599 534.346 0.0371399 528.367 23.9659 517.075C47.8945 505.782 51.8826 507.11 89.7697 469.91C127.657 432.711 121.01 414.111 180.167 409.461Z" fill="#33544B"/>
<path d="M745.999 432.379C744.126 398.431 757.769 337.086 764.824 310.658C768.058 269.417 753.852 284.222 738.151 290.095C722.451 295.969 711.011 397.252 721.319 420.72C731.627 444.188 703.328 466.781 709.147 481.483C714.965 496.185 748.339 474.815 745.999 432.379Z" fill="#717371"/>
<path d="M208.524 572.74C188.522 568.295 149.175 562.638 132.845 560.379C109.182 552.535 120.726 548.104 127.659 540.756C134.591 533.408 177.988 547.219 191.205 540.756C205.082 533.971 220.861 547.843 227.667 554.511C234.473 561.18 224.932 576.386 208.524 572.74Z" fill="#687F79"/>
<path d="M863.217 257.924C846.817 244.724 803.05 263.424 783.217 274.424C756.217 323.924 863.217 414.424 880.717 416.924C898.217 419.424 899.217 401.424 906.717 373.924C914.217 346.424 958.217 357.424 957.217 318.924C956.217 280.424 883.717 274.424 863.217 257.924Z" fill="#6C837D"/>
<path d="M80.5548 602.709C77.0564 590.513 97.6749 570.574 108.421 562.129C142.229 558.703 167.485 639.294 164.783 649.599C162.081 659.904 151.849 656.251 134.82 653.989C117.791 651.726 113.616 678.738 92.4641 669.183C71.3124 659.627 84.9278 617.953 80.5548 602.709Z" fill="#6C837D"/>
<path d="M873.233 454.655C889.233 421.455 847.567 332.822 824.733 292.655C808.631 261.455 769.357 279.655 751.733 292.655V474.155C751.733 499.155 776.733 495.155 787.733 486.155C798.733 477.155 853.233 496.155 873.233 454.655Z" fill="#AFAFB1"/>
<path d="M915.266 357.387C891.208 356.126 850.425 328.766 833.04 315.243C813.152 301.068 786.267 328.07 792.124 342.106C797.981 356.142 829.151 400.747 838.485 408.096C847.819 415.444 860.648 431.324 861.274 415.66C861.9 399.997 815.4 353.142 810.217 347.682C805.035 342.222 815.182 339.014 828.855 353.357C842.527 367.701 875.024 392.826 883.771 397.249C892.517 401.673 912.217 419.94 899.545 400.145C889.408 384.309 847.037 348.242 827.118 332.188C843.519 342.901 879.012 364.368 889.775 364.541C903.23 364.757 930.027 371.93 940.218 371.547C950.409 371.164 945.339 358.963 915.266 357.387Z" fill="#3B4B17"/>
<path d="M123.634 654.871C128.558 641.212 122.894 612.163 119.447 599.345C116.222 584.984 137.506 576.362 143.933 582.897C150.36 589.432 167.85 617.173 169.75 624.076C171.65 630.978 177.472 641.816 168.625 638.502C159.778 635.189 144.622 598.406 142.801 594.251C140.979 590.096 136.825 594.982 141.596 605.93C146.368 616.878 152.727 640.802 153.139 646.695C153.551 652.587 159.094 667.8 151.06 656.134C144.634 646.801 134.505 614.834 130.244 600.017C132.36 611.631 135.987 636.365 133.567 642.384C130.542 649.908 128.262 666.47 125.667 672.041C123.072 677.612 117.48 671.944 123.634 654.871Z" fill="#3B4B17"/>
<circle cx="858.733" cy="420.655" r="9.5" transform="rotate(-180 858.733 420.655)" fill="#7A745E"/>
<circle cx="5.72521" cy="5.72521" r="5.72521" transform="matrix(0.387898 -0.921702 -0.921702 -0.387898 175.05 645.757)" fill="#7A745E"/>
<circle cx="903.733" cy="410.655" r="9.5" transform="rotate(-180 903.733 410.655)" fill="#AD927C"/>
<circle cx="5.72521" cy="5.72521" r="5.72521" transform="matrix(0.387898 -0.921702 -0.921702 -0.387898 158.976 668.416)" fill="#C6C9C6"/>
<circle cx="945.733" cy="367.655" r="9.5" transform="rotate(-180 945.733 367.655)" fill="#7A745E"/>
<circle cx="5.72521" cy="5.72521" r="5.72521" transform="matrix(0.387898 -0.921702 -0.921702 -0.387898 125.272 681.694)" fill="#7A745E"/>
<path d="M871.233 274.655C840.033 279.055 798.233 268.822 781.233 263.155C828.233 217.655 900.233 241.655 919.233 245.155C938.233 248.655 969.733 293.156 947.233 300.156C924.733 307.156 910.233 269.155 871.233 274.655Z" fill="#4C5E59"/>
<path d="M87.9735 611.073C97.7112 594.771 101.798 569.16 102.625 558.392C66.3639 573.863 62.8639 619.467 60.3664 630.839C57.8689 642.211 75.2237 670.111 84.3718 659.249C93.5198 648.388 75.8015 631.45 87.9735 611.073Z" fill="#4C5E59"/>
<path d="M857.723 312.742C831.441 249.766 786.439 248.898 767.224 256.336C699.659 267.493 754.827 312.742 733.751 351.791C712.676 390.841 741.19 462.123 754.827 449.727C768.464 437.33 790.779 444.768 802.556 449.727C814.333 454.686 833.549 421.834 834.789 390.842C836.028 359.85 890.576 391.462 857.723 312.742Z" fill="#C6C9C6"/>
<path d="M112.287 612.472C83.4494 583.152 93.4874 557.952 102.111 549.017C124.103 514.095 136.341 555.317 162.958 552.738C189.576 550.16 222.505 582.662 212.431 587.339C202.358 592.016 201.272 606.15 201.274 613.851C201.275 621.552 178.535 624.546 161.03 617.99C143.525 611.434 148.333 649.123 112.287 612.472Z" fill="#C6C9C6"/>
<path d="M842.007 238.9C836.022 257.49 792.245 270.436 771.104 274.585C739.702 253.89 756.677 234.085 777.953 232.88C799.228 231.676 815.988 209.805 817.988 201.502C819.988 193.199 849.611 177.017 866.864 177.281C880.667 177.493 886.729 169.265 888.035 165.125C888.14 176.077 876.453 184.098 867.008 191.1C857.564 198.102 849.488 215.661 842.007 238.9Z" fill="#6C837D"/>
<path d="M61.056 433.357C70.8349 446.058 108.241 443.916 125.722 441.257C144.238 416.563 125.633 405.973 108.865 410.943C92.0963 415.913 73.0852 403.667 69.2373 397.808C65.3895 391.949 38.0196 387.665 24.7655 392.655C14.1622 396.646 7.19749 391.972 5.04056 389.136C7.99721 397.625 19.2493 400.58 28.4866 403.369C37.724 406.158 48.8324 417.482 61.056 433.357Z" fill="#6C837D"/>
<path d="M563.519 167.126C601.746 192.496 603.075 299.747 598.961 350.201C532.105 408.049 498.149 357.048 509.007 308.163C519.866 259.278 481.101 207.453 463.598 197.644C446.095 187.835 428.408 110.537 440.022 71.6835C449.313 40.6006 434.574 21.6524 426.043 16.0636C450.881 22.7985 461.563 54.3361 471.369 80.1537C481.176 105.971 515.734 135.415 563.519 167.126Z" fill="#819F98"/>
<path d="M437.326 279.655C444.526 279.655 443.66 261.322 442.326 252.155C451.326 225.158 434.826 202.655 433.326 192.155C431.826 181.655 421.826 189.655 411.326 192.155C400.826 194.655 383.826 187.655 379.326 202.655C374.826 217.655 394.326 235.655 399.326 252.155C404.326 268.655 428.326 279.655 437.326 279.655Z" fill="#A07F64"/>
<path d="M322.737 372.205C319.249 367.496 331.737 359.124 338.418 355.526C351.829 336.475 374.636 336.295 382.275 332.157C389.914 328.018 389.492 338.46 392.934 346.546C396.375 354.633 409.22 362.34 401.526 372.597C393.832 382.854 372.535 378.877 359.251 383.652C345.967 388.427 327.098 378.092 322.737 372.205Z" fill="#A07F64"/>
<path d="M423.326 295.156C435.326 289.556 428.326 277.822 423.326 272.656C423.326 264.156 394.326 233.655 385.826 227.155C377.326 220.655 370.326 228.655 366.826 233.655C363.326 238.655 362.326 252.655 359.826 257.655C357.326 262.655 353.826 275.655 362.326 295.156C370.826 314.656 365.826 319.656 370.326 326.656C374.826 333.656 383.826 331.156 389.326 322.656C394.826 314.156 408.326 302.156 423.326 295.156Z" fill="#AD927C"/>
<path d="M319.644 388.436C317.425 377.807 328.498 376.764 334.313 377.571C339.854 373.466 373.924 377.889 382.319 380.363C390.714 382.837 388.923 391.323 387.376 396.049C385.828 400.775 377.19 408.196 375.153 412.261C373.117 416.327 366.354 424.916 349.483 428.719C332.612 432.523 331.799 438.239 325.034 438.647C318.269 439.056 315.496 431.905 318.348 424.169C321.199 416.432 322.418 401.722 319.644 388.436Z" fill="#AD927C"/>
<path d="M694.233 105.156C742.633 159.156 690.067 202.322 657.733 217.156C621.233 237.656 594.233 217.156 580.233 173.656C566.233 130.156 592.233 95.1556 614.233 85.6556C636.233 76.1556 662.733 105.156 669.733 105.156H694.233Z" fill="#AFAFB1"/>
<path d="M538.733 270.155C568.333 278.155 600.067 273.488 612.233 270.155C685.733 203.655 538.733 128.155 513.733 123.155C488.733 118.155 503.733 160.655 476.233 172.655C448.733 184.655 464.233 239.155 469.233 254.155C474.233 269.155 501.733 260.155 538.733 270.155Z" fill="#7A745E"/>
<path d="M718.234 278.656C685.034 277.056 658.067 254.322 648.734 243.156C659.734 178.656 738.234 141.155 769.734 133.155C801.234 125.155 827.234 177.655 828.234 198.655C829.234 219.655 790.734 219.156 787.734 243.156C784.734 267.156 759.734 280.656 718.234 278.656Z" fill="#AD927C"/>
<path d="M636.734 386.155C646.334 375.755 640.734 291.155 636.734 250.155C622.733 217.655 534.734 268.155 506.734 282.655C478.734 297.155 489.234 330.655 490.234 357.155C491.234 383.655 535.734 406.655 546.734 403.155C557.734 399.655 624.734 399.155 636.734 386.155Z" fill="#C29E80"/>
<path d="M743.233 303.655C744.033 273.655 687.899 248.155 659.733 239.155C612.233 217.943 616.233 380.155 632.733 398.155C649.233 416.155 684.233 395.155 713.233 386.155C742.233 377.155 742.233 341.155 743.233 303.655Z" fill="#A07F64"/>
<path d="M650.733 311.655V253.155C653.733 243.655 667.733 196.655 663.733 183.155C659.733 169.655 644.733 166.655 650.733 187.155C655.533 203.555 642.4 219.655 635.233 225.655C604.233 211.155 563.233 204.655 557.733 212.155C552.233 219.655 631.233 222.155 623.733 233.155C616.233 244.155 571.733 260.655 578.733 272.155C585.733 283.655 623.233 236.155 631.233 246.655C639.233 257.155 620.233 275.155 609.733 291.655C599.233 308.155 595.733 311.655 609.733 307.655C623.733 303.655 635.233 250.155 641.733 260.655C648.233 271.155 639.733 314.655 641.733 319.655C643.733 324.655 650.733 323.655 650.733 311.655Z" fill="#3B4B17"/>
<circle cx="645.733" cy="322.655" r="9.5" transform="rotate(-180 645.733 322.655)" fill="#7A745E"/>
<circle cx="601.733" cy="311.655" r="9.5" transform="rotate(-180 601.733 311.655)" fill="#687F79"/>
<circle cx="576.733" cy="269.655" r="9.5" transform="rotate(-180 576.733 269.655)" fill="#7A745E"/>
<circle cx="557.733" cy="214.655" r="9.5" transform="rotate(-180 557.733 214.655)" fill="#AFAFB1"/>
<circle cx="648.733" cy="172.655" r="9.5" transform="rotate(-180 648.733 172.655)" fill="#7A745E"/>
<circle cx="654.733" cy="243.655" r="9.5" transform="rotate(-180 654.733 243.655)" fill="#7A745E"/>
<path d="M437.98 256.919C445.238 297.141 477.479 279.856 482.055 281.001C513.959 285.375 520.351 258.073 526.291 247.211C532.231 236.35 510.626 210.241 492.721 195.546C474.817 180.851 457.229 204.424 445.634 210.812C434.039 217.199 430.722 216.697 437.98 256.919Z" fill="#AD927C"/>
<path d="M337.751 360.423C307.779 375.235 303.443 345.627 300.463 343.177C282.054 324.336 296.888 306.841 301.135 297.649C305.383 288.456 333.064 289.945 351.44 294.559C369.816 299.173 362.885 322.211 364.332 332.943C365.779 343.674 367.723 345.61 337.751 360.423Z" fill="#AD927C"/>
<path d="M528.327 285.655C520.327 263.655 473.66 268.155 451.327 273.155C386.327 292.655 480.827 347.655 488.827 351.655C496.827 355.655 499.827 344.655 511.327 329.655C522.827 314.655 538.327 313.155 528.327 285.655Z" fill="#7A745E"/>
<path d="M274.676 314.943C292.971 309.518 312.698 342.312 320.275 359.387C339.086 411.483 257.152 376.176 250.645 372.869C244.139 369.562 249.885 362.258 254.121 347.438C258.356 332.618 251.808 321.723 274.676 314.943Z" fill="#7A745E"/>
<path d="M459.613 382.327C470.413 376.327 455.113 323.16 446.113 297.327C446.113 255.827 428.113 278.327 410.613 284.827C393.113 291.327 395.613 319.327 387.613 334.327C379.613 349.327 397.613 371.827 408.113 371.827C418.613 371.827 446.113 389.827 459.613 382.327Z" fill="#AFAFB1"/>
<path d="M244.813 407.296C243.461 397.227 285.904 381.471 307.294 374.851C334.569 354.648 328.606 377.515 332.913 392.261C337.22 407.008 317.592 418.984 311.656 431.581C305.72 444.178 282.108 443.218 276.96 436.269C271.813 429.32 246.502 419.882 244.813 407.296Z" fill="#AFAFB1"/>
<path d="M425.826 311.156C428.226 300.356 435.16 290.656 438.326 287.156C438.993 285.822 441.326 283.155 445.326 283.155C450.326 283.155 454.826 287.156 458.826 289.155C462.826 291.155 465.826 299.155 469.826 300.655C473.826 302.155 476.326 294.655 472.826 292.655C469.326 290.655 465.826 283.155 454.826 277.155C443.826 271.155 439.826 279.155 438.326 273.655C436.826 268.155 436.826 268.655 428.826 264.155C420.826 259.655 418.326 250.155 414.826 246.155C411.326 242.155 405.826 249.155 412.326 256.155C418.826 263.155 423.826 270.155 419.826 271.155C415.826 272.155 408.326 273.655 401.326 273.655C394.326 273.655 391.326 280.655 392.326 283.155C393.326 285.655 400.326 281.655 408.326 279.155C416.326 276.655 427.826 279.155 422.326 280.655C416.826 282.155 409.826 294.655 408.326 297.155C406.826 299.655 402.326 308.655 405.826 309.155C409.326 309.655 414.826 295.155 419.826 289.155C424.826 283.155 438.326 281.655 430.326 287.156C422.326 292.656 413.326 327.156 414.826 330.156C416.326 333.156 422.826 324.656 425.826 311.156Z" fill="#3B4B17"/>
<path d="M308.211 394.599C314.132 387.784 317.136 378.539 317.898 374.769C318.449 373.685 319.068 370.864 317.131 368.249C314.71 364.98 309.907 363.982 306.659 362.338C303.411 360.695 296.711 362.62 293.79 360.733C290.87 358.847 294.578 353.569 297.584 354.886C300.591 356.203 307.204 354.847 316.466 359.124C325.727 363.4 322.418 369.902 326.751 368.21C331.084 366.519 330.757 366.762 337.582 369.806C344.407 372.85 351.848 369.87 356.166 370.215C360.484 370.56 358.557 377.556 350.818 376.707C343.08 375.858 336.068 375.99 337.349 379.09C338.63 382.191 341.279 387.823 344.668 392.399C348.058 396.975 344.92 402.337 342.796 402.898C340.672 403.458 339.906 396.939 337.672 390.495C335.437 384.05 328.229 377.747 329.908 382.071C331.588 386.395 326.78 397.044 325.867 399.239C324.954 401.434 321.231 408.747 319.208 406.702C317.185 404.657 324.031 394.018 325.545 387.834C327.058 381.651 321.505 372.097 321.771 379.999C322.038 387.9 303.771 410.543 301.077 411.02C298.384 411.497 300.81 403.118 308.211 394.599Z" fill="#3B4B17"/>
<circle cx="415.827" cy="331.655" r="5.5" transform="rotate(-180 415.827 331.655)" fill="#AD927C"/>
<circle cx="4.5" cy="4.5" r="4.5" transform="matrix(0.595219 0.803564 0.803564 -0.595219 292.562 410.431)" fill="#AD927C"/>
<circle cx="404.827" cy="308.655" r="5.5" transform="rotate(-180 404.827 308.655)" fill="#AD927C"/>
<circle cx="4.5" cy="4.5" r="4.5" transform="matrix(0.595219 0.803564 0.803564 -0.595219 313.188 406.354)" fill="#AD927C"/>
<circle cx="390.827" cy="278.655" r="5.5" transform="rotate(-180 390.827 278.655)" fill="#687F79"/>
<circle cx="4.5" cy="4.5" r="4.5" transform="matrix(0.595219 0.803564 0.803564 -0.595219 340.419 401.116)" fill="#687F79"/>
<circle cx="409.827" cy="248.655" r="5.5" transform="rotate(-180 409.827 248.655)" fill="#AFAFB1"/>
<circle cx="4.5" cy="4.5" r="4.5" transform="matrix(0.595219 0.803564 0.803564 -0.595219 350.181 373.974)" fill="#AFAFB1"/>
<circle cx="473.827" cy="297.655" r="5.5" transform="rotate(-180 473.827 297.655)" fill="#AD927C"/>
<circle cx="4.5" cy="4.5" r="4.5" transform="matrix(0.595219 0.803564 0.803564 -0.595219 287.087 355.997)" fill="#AD927C"/>
</svg>
