<svg width="2036" height="693" viewBox="0 0 2036 693" fill="none" xmlns="http://www.w3.org/2000/svg">
<path d="M187.491 37.8931C165.309 36.7667 125.817 80.6308 108.843 102.704C95.2766 118.942 114.567 136.502 125.908 143.253C154.885 131.058 213.866 126.367 224.975 121.691C238.862 115.847 232.546 82.0281 224.975 78.0219C217.405 74.0156 215.218 39.3011 187.491 37.8931Z" fill="#AFAFB1"/>
<path d="M180.167 282.695C227.493 286.415 266.355 314.359 279.87 327.866C312.439 336.502 282.529 293.323 222.042 282.695C161.556 272.066 156.238 266.088 141.615 262.102C126.992 258.116 123.669 243.502 115.028 229.552C106.387 215.602 101.069 216.266 99.0753 212.945C97.0813 209.623 94.4225 208.959 101.069 200.323C107.716 191.688 123.669 177.074 120.345 166.445C117.022 155.817 121.675 144.524 123.669 137.217C125.663 129.909 140.951 127.917 130.316 121.938C119.681 115.959 109.71 139.874 113.698 156.481C117.687 173.088 107.716 183.052 94.4225 197.666C81.1288 212.281 81.1288 200.323 69.8291 189.031C58.5295 177.738 55.2061 175.081 40.583 166.445C25.9599 157.809 0.0371399 163.788 23.9659 175.081C47.8945 186.374 51.8826 185.045 89.7697 222.245C127.657 259.445 121.01 278.045 180.167 282.695Z" fill="#33544B"/>
<path d="M745.999 259.776C744.126 293.724 757.769 355.069 764.824 381.497C768.058 422.738 753.852 407.934 738.151 402.06C722.451 396.187 711.011 294.903 721.319 271.435C731.627 247.967 703.328 225.374 709.147 210.672C714.965 195.97 748.339 217.341 745.999 259.776Z" fill="#717371"/>
<path d="M208.524 119.415C188.522 123.861 149.175 129.517 132.845 131.776C109.182 139.621 120.726 144.051 127.659 151.399C134.591 158.747 177.988 144.936 191.205 151.399C205.082 158.185 220.861 144.313 227.667 137.644C234.473 130.975 224.932 115.769 208.524 119.415Z" fill="#687F79"/>
<path d="M863.217 434.231C846.817 447.431 803.05 428.731 783.217 417.731C756.217 368.231 863.217 277.731 880.717 275.231C898.217 272.731 899.217 290.731 906.717 318.231C914.217 345.731 958.217 334.731 957.217 373.231C956.217 411.731 883.717 417.731 863.217 434.231Z" fill="#6C837D"/>
<path d="M80.5548 89.4464C77.0564 101.642 97.6749 121.581 108.421 130.027C142.229 133.453 167.485 52.8617 164.783 42.5566C162.081 32.2515 151.849 35.9039 134.82 38.1665C117.791 40.4291 113.616 13.4171 92.4641 22.9726C71.3124 32.5282 84.9278 74.2022 80.5548 89.4464Z" fill="#6C837D"/>
<path d="M873.233 237.5C889.233 270.7 847.567 359.333 824.733 399.5C808.631 430.7 769.357 412.5 751.733 399.5V218C751.733 193 776.733 197 787.733 206C798.733 215 853.233 196 873.233 237.5Z" fill="#AFAFB1"/>
<path d="M915.266 334.769C891.208 336.029 850.425 363.39 833.04 376.912C813.152 391.088 786.267 364.085 792.124 350.049C797.981 336.013 829.151 291.408 838.485 284.06C847.819 276.711 860.648 260.832 861.274 276.495C861.9 292.158 815.4 339.014 810.217 344.473C805.035 349.933 815.182 353.142 828.855 338.798C842.527 324.454 875.024 299.329 883.771 294.906C892.517 290.483 912.217 272.215 899.545 292.01C889.408 307.846 847.037 343.913 827.118 359.967C843.519 349.255 879.012 327.787 889.775 327.614C903.23 327.398 930.027 320.225 940.218 320.608C950.409 320.992 945.339 333.192 915.266 334.769Z" fill="#3B4B17"/>
<path d="M123.634 37.2845C128.558 50.9429 122.894 79.9925 119.447 92.8101C116.222 107.171 137.506 115.793 143.933 109.258C150.36 102.723 167.85 74.9822 169.75 68.0796C171.65 61.177 177.472 50.3391 168.625 53.6528C159.778 56.9665 144.622 93.7492 142.801 97.9043C140.979 102.059 136.825 97.1729 141.596 86.2251C146.368 75.2774 152.727 51.3528 153.139 45.4604C153.551 39.568 159.094 24.3553 151.06 36.0215C144.634 45.3545 134.505 77.3214 130.244 92.1383C132.36 80.524 135.987 55.7906 133.567 49.7713C130.542 42.2471 128.262 25.6858 125.667 20.1145C123.072 14.5432 117.48 20.2114 123.634 37.2845Z" fill="#3B4B17"/>
<circle cx="9.5" cy="9.5" r="9.5" transform="matrix(-1 0 0 1 868.233 262)" fill="#7A745E"/>
<circle cx="171.994" cy="53.8962" r="5.72521" transform="rotate(67.1762 171.994 53.8962)" fill="#7A745E"/>
<circle cx="9.5" cy="9.5" r="9.5" transform="matrix(-1 0 0 1 913.233 272)" fill="#AD927C"/>
<circle cx="155.919" cy="31.237" r="5.72521" transform="rotate(67.1762 155.919 31.237)" fill="#C6C9C6"/>
<circle cx="9.5" cy="9.5" r="9.5" transform="matrix(-1 0 0 1 955.233 315)" fill="#7A745E"/>
<circle cx="122.216" cy="17.9587" r="5.72521" transform="rotate(67.1762 122.216 17.9587)" fill="#7A745E"/>
<path d="M871.233 417.5C840.033 413.1 798.233 423.333 781.233 429C828.233 474.5 900.233 450.5 919.233 447C938.233 443.5 969.733 399 947.233 392C924.733 385 910.233 423 871.233 417.5Z" fill="#4C5E59"/>
<path d="M87.9735 81.0825C97.7112 97.3845 101.798 122.995 102.625 133.763C66.3639 118.292 62.8639 72.6883 60.3664 61.3162C57.8689 49.9442 75.2237 22.0442 84.3718 32.9058C93.5198 43.7675 75.8015 60.705 87.9735 81.0825Z" fill="#4C5E59"/>
<path d="M857.723 379.414C831.441 442.39 786.439 443.257 767.224 435.819C699.659 424.662 754.827 379.414 733.751 340.364C712.676 301.314 741.19 230.032 754.827 242.428C768.464 254.825 790.779 247.387 802.556 242.428C814.333 237.47 833.549 270.321 834.789 301.313C836.028 332.306 890.576 300.694 857.723 379.414Z" fill="#C6C9C6"/>
<path d="M112.287 79.6829C83.4494 109.004 93.4874 134.203 102.111 143.138C124.103 178.06 136.341 136.839 162.958 139.417C189.576 141.995 222.505 109.493 212.431 104.816C202.358 100.139 201.272 86.0051 201.274 78.3039C201.275 70.6028 178.535 67.6088 161.03 74.1652C143.525 80.7215 148.333 43.0321 112.287 79.6829Z" fill="#C6C9C6"/>
<path d="M842.007 453.256C836.022 434.665 792.245 421.719 771.104 417.571C739.702 438.265 756.677 458.07 777.953 459.275C799.228 460.48 815.988 482.35 817.988 490.653C819.988 498.956 849.611 515.138 866.864 514.874C880.667 514.662 886.729 522.89 888.035 527.031C888.14 516.079 876.453 508.057 867.008 501.055C857.564 494.053 849.488 476.494 842.007 453.256Z" fill="#6C837D"/>
<path d="M61.056 258.798C70.8349 246.098 108.241 248.24 125.722 250.898C144.238 275.593 125.633 286.183 108.865 281.213C92.0963 276.243 73.0852 288.488 69.2373 294.347C65.3895 300.206 38.0196 304.49 24.7655 299.501C14.1622 295.509 7.19749 300.183 5.04056 303.019C7.99721 294.531 19.2493 291.575 28.4866 288.786C37.724 285.997 48.8324 274.674 61.056 258.798Z" fill="#6C837D"/>
<path d="M563.519 525.029C601.746 499.66 603.075 392.409 598.961 341.954C532.105 284.106 498.149 335.107 509.007 383.992C519.866 432.877 481.101 484.702 463.598 494.511C446.095 504.321 428.408 581.618 440.022 620.472C449.313 651.555 434.574 670.503 426.043 676.092C450.881 669.357 461.563 637.819 471.369 612.002C481.176 586.184 515.734 556.741 563.519 525.029Z" fill="#819F98"/>
<path d="M437.326 412.5C444.526 412.5 443.66 430.833 442.326 440C451.326 466.998 434.826 489.5 433.326 500C431.826 510.5 421.826 502.5 411.326 500C400.826 497.5 383.826 504.5 379.326 489.5C374.826 474.5 394.326 456.5 399.326 440C404.326 423.5 428.326 412.5 437.326 412.5Z" fill="#A07F64"/>
<path d="M322.737 319.95C319.249 324.659 331.737 333.032 338.418 336.629C351.829 355.68 374.636 355.86 382.275 359.999C389.914 364.137 389.492 353.696 392.934 345.609C396.375 337.522 409.22 329.816 401.526 319.558C393.832 309.301 372.535 313.279 359.251 308.504C345.967 303.729 327.098 314.063 322.737 319.95Z" fill="#A07F64"/>
<path d="M423.326 397C435.326 402.6 428.326 414.333 423.326 419.5C423.326 427.999 394.326 458.5 385.826 465C377.326 471.5 370.326 463.5 366.826 458.5C363.326 453.5 362.326 439.5 359.826 434.5C357.326 429.5 353.826 416.5 362.326 397C370.826 377.499 365.826 372.5 370.326 365.5C374.826 358.5 383.826 361 389.326 369.5C394.826 378 408.326 390 423.326 397Z" fill="#AD927C"/>
<path d="M319.644 303.719C317.425 314.348 328.498 315.391 334.313 314.585C339.854 318.689 373.924 314.267 382.319 311.792C390.714 309.318 388.923 300.832 387.376 296.106C385.828 291.38 377.19 283.959 375.153 279.894C373.117 275.829 366.354 267.24 349.483 263.436C332.612 259.633 331.799 253.916 325.034 253.508C318.269 253.099 315.496 260.25 318.348 267.987C321.199 275.723 322.418 290.433 319.644 303.719Z" fill="#AD927C"/>
<path d="M694.233 587C742.633 533 690.067 489.833 657.733 475C621.233 454.5 594.233 475 580.233 518.5C566.233 562 592.233 597 614.233 606.5C636.233 616 662.733 587 669.733 587H694.233Z" fill="#AFAFB1"/>
<path d="M538.733 422C568.333 414 600.067 418.667 612.233 422C685.733 488.5 538.733 564 513.733 569C488.733 574 503.733 531.5 476.233 519.5C448.733 507.5 464.233 453 469.233 438C474.233 423 501.733 432 538.733 422Z" fill="#7A745E"/>
<path d="M718.234 413.5C685.034 415.1 658.067 437.833 648.734 449C659.734 513.499 738.234 551 769.734 559C801.234 567 827.234 514.5 828.234 493.5C829.234 472.5 790.734 473 787.734 449C784.734 425 759.734 411.5 718.234 413.5Z" fill="#AD927C"/>
<path d="M636.734 306C646.334 316.4 640.734 401 636.734 442C622.733 474.5 534.734 424 506.734 409.5C478.734 395 489.234 361.5 490.234 335C491.234 308.5 535.734 285.5 546.734 289C557.734 292.5 624.734 293 636.734 306Z" fill="#C29E80"/>
<path d="M743.233 388.5C744.033 418.5 687.899 444 659.733 453C612.233 474.212 616.233 312 632.733 294C649.233 276 684.233 297 713.233 306C742.233 315 742.233 351 743.233 388.5Z" fill="#A07F64"/>
<path d="M650.733 380.5V439C653.733 448.5 667.733 495.5 663.733 509C659.733 522.5 644.733 525.5 650.733 505C655.533 488.6 642.4 472.5 635.233 466.5C604.233 481 563.233 487.5 557.733 480C552.233 472.5 631.233 470 623.733 459C616.233 448 571.733 431.5 578.733 420C585.733 408.5 623.233 456 631.233 445.5C639.233 435 620.233 417 609.733 400.5C599.233 384 595.733 380.5 609.733 384.5C623.733 388.5 635.233 442 641.733 431.5C648.233 421 639.733 377.5 641.733 372.5C643.733 367.5 650.733 368.5 650.733 380.5Z" fill="#3B4B17"/>
<circle cx="9.5" cy="9.5" r="9.5" transform="matrix(-1 0 0 1 655.233 360)" fill="#7A745E"/>
<circle cx="9.5" cy="9.5" r="9.5" transform="matrix(-1 0 0 1 611.233 371)" fill="#687F79"/>
<circle cx="9.5" cy="9.5" r="9.5" transform="matrix(-1 0 0 1 586.233 413)" fill="#7A745E"/>
<circle cx="9.5" cy="9.5" r="9.5" transform="matrix(-1 0 0 1 567.233 468)" fill="#AFAFB1"/>
<circle cx="9.5" cy="9.5" r="9.5" transform="matrix(-1 0 0 1 658.233 510)" fill="#7A745E"/>
<circle cx="9.5" cy="9.5" r="9.5" transform="matrix(-1 0 0 1 664.233 439)" fill="#7A745E"/>
<path d="M437.98 435.236C445.238 395.014 477.479 412.299 482.055 411.155C513.959 406.78 520.351 434.083 526.291 444.944C532.231 455.805 510.626 481.915 492.721 496.609C474.817 511.304 457.229 487.731 445.634 481.344C434.039 474.956 430.722 475.458 437.98 435.236Z" fill="#AD927C"/>
<path d="M337.751 331.733C307.779 316.92 303.443 346.528 300.463 348.979C282.054 367.819 296.888 385.314 301.135 394.507C305.383 403.699 333.064 402.21 351.44 397.596C369.816 392.982 362.885 369.944 364.332 359.213C365.779 348.481 367.723 346.545 337.751 331.733Z" fill="#AD927C"/>
<path d="M528.327 406.5C520.327 428.5 473.66 424 451.327 419C386.327 399.5 480.827 344.5 488.827 340.5C496.827 336.5 499.827 347.5 511.327 362.5C522.827 377.5 538.327 379 528.327 406.5Z" fill="#7A745E"/>
<path d="M274.676 377.213C292.971 382.637 312.698 349.843 320.275 332.768C339.086 280.672 257.152 315.979 250.645 319.287C244.139 322.594 249.885 329.898 254.121 344.717C258.356 359.537 251.808 370.432 274.676 377.213Z" fill="#7A745E"/>
<path d="M459.613 309.828C470.413 315.828 455.113 368.995 446.113 394.828C446.113 436.328 428.113 413.828 410.613 407.328C393.113 400.828 395.613 372.828 387.613 357.828C379.613 342.828 397.613 320.328 408.113 320.328C418.613 320.328 446.113 302.328 459.613 309.828Z" fill="#AFAFB1"/>
<path d="M244.813 284.859C243.461 294.928 285.904 310.684 307.294 317.304C334.569 337.507 328.606 314.64 332.913 299.894C337.22 285.148 317.592 273.171 311.656 260.575C305.72 247.978 282.108 248.937 276.96 255.886C271.813 262.836 246.502 272.273 244.813 284.859Z" fill="#AFAFB1"/>
<path d="M425.826 381C428.226 391.8 435.16 401.5 438.326 405C438.993 406.333 441.326 409 445.326 409C450.326 409 454.826 405 458.826 403C462.826 401 465.826 393 469.826 391.5C473.826 390 476.326 397.5 472.826 399.5C469.326 401.5 465.826 409 454.826 415C443.826 421 439.826 413 438.326 418.5C436.826 424 436.826 423.5 428.826 428C420.826 432.5 418.326 442 414.826 446C411.326 450 405.826 443 412.326 436C418.826 429 423.826 422 419.826 421C415.826 420 408.326 418.5 401.326 418.5C394.326 418.5 391.326 411.5 392.326 409C393.326 406.5 400.326 410.5 408.326 413C416.326 415.5 427.826 413 422.326 411.5C416.826 410 409.826 397.5 408.326 395C406.826 392.5 402.326 383.5 405.826 383C409.326 382.5 414.826 397 419.826 403C424.826 409 438.326 410.5 430.326 405C422.326 399.499 413.326 365 414.826 362C416.326 359 422.826 367.5 425.826 381Z" fill="#3B4B17"/>
<path d="M308.211 297.556C314.132 304.372 317.136 313.616 317.898 317.387C318.449 318.47 319.068 321.291 317.131 323.906C314.71 327.175 309.907 328.174 306.659 329.817C303.411 331.461 296.711 329.536 293.79 331.422C290.87 333.308 294.578 338.586 297.584 337.269C300.591 335.953 307.204 337.308 316.466 333.031C325.727 328.755 322.418 322.254 326.751 323.945C331.084 325.636 330.757 325.393 337.582 322.349C344.407 319.305 351.848 322.286 356.166 321.941C360.484 321.596 358.557 314.6 350.818 315.448C343.08 316.297 336.068 316.166 337.349 313.065C338.63 309.964 341.279 304.332 344.668 299.756C348.058 295.18 344.92 289.818 342.796 289.258C340.672 288.697 339.906 295.216 337.672 301.661C335.437 308.105 328.229 314.409 329.908 310.084C331.588 305.76 326.78 295.112 325.867 292.917C324.954 290.722 321.231 283.408 319.208 285.453C317.185 287.498 324.031 298.138 325.545 304.321C327.058 310.504 321.505 320.059 321.771 312.157C322.038 304.255 303.771 281.612 301.077 281.135C298.384 280.659 300.81 289.037 308.211 297.556Z" fill="#3B4B17"/>
<circle cx="5.5" cy="5.5" r="5.5" transform="matrix(-1 0 0 1 421.327 355)" fill="#AD927C"/>
<circle cx="298.857" cy="280.787" r="4.5" transform="rotate(-53.4718 298.857 280.787)" fill="#AD927C"/>
<circle cx="5.5" cy="5.5" r="5.5" transform="matrix(-1 0 0 1 410.327 378)" fill="#AD927C"/>
<circle cx="319.482" cy="284.864" r="4.5" transform="rotate(-53.4718 319.482 284.864)" fill="#AD927C"/>
<circle cx="5.5" cy="5.5" r="5.5" transform="matrix(-1 0 0 1 396.327 408)" fill="#687F79"/>
<circle cx="346.713" cy="290.102" r="4.5" transform="rotate(-53.4718 346.713 290.102)" fill="#687F79"/>
<circle cx="5.5" cy="5.5" r="5.5" transform="matrix(-1 0 0 1 415.327 438)" fill="#AFAFB1"/>
<circle cx="356.475" cy="317.244" r="4.5" transform="rotate(-53.4718 356.475 317.244)" fill="#AFAFB1"/>
<circle cx="5.5" cy="5.5" r="5.5" transform="matrix(-1 0 0 1 479.327 389)" fill="#AD927C"/>
<circle cx="293.381" cy="335.221" r="4.5" transform="rotate(-53.4718 293.381 335.221)" fill="#AD927C"/>
<path d="M1847.74 37.8931C1869.92 36.7667 1909.42 80.6308 1926.39 102.704C1939.96 118.942 1920.67 136.502 1909.33 143.253C1880.35 131.058 1821.37 126.367 1810.26 121.691C1796.37 115.847 1802.69 82.0281 1810.26 78.0219C1817.83 74.0156 1820.02 39.3011 1847.74 37.8931Z" fill="#AFAFB1"/>
<path d="M1855.07 282.695C1807.74 286.415 1768.88 314.359 1755.36 327.866C1722.79 336.502 1752.7 293.323 1813.19 282.695C1873.68 272.066 1879 266.088 1893.62 262.102C1908.24 258.116 1911.56 243.502 1920.21 229.552C1928.85 215.602 1934.16 216.266 1936.16 212.945C1938.15 209.623 1940.81 208.959 1934.16 200.323C1927.52 191.688 1911.56 177.074 1914.89 166.445C1918.21 155.817 1913.56 144.524 1911.56 137.217C1909.57 129.909 1894.28 127.917 1904.92 121.938C1915.55 115.959 1925.52 139.874 1921.53 156.481C1917.55 173.088 1927.52 183.052 1940.81 197.666C1954.1 212.281 1954.1 200.323 1965.4 189.031C1976.7 177.738 1980.03 175.081 1994.65 166.445C2009.27 157.809 2035.2 163.788 2011.27 175.081C1987.34 186.374 1983.35 185.045 1945.46 222.245C1907.58 259.445 1914.22 278.045 1855.07 282.695Z" fill="#33544B"/>
<path d="M1289.23 259.776C1291.11 293.724 1277.46 355.069 1270.41 381.497C1267.18 422.738 1281.38 407.934 1297.08 402.06C1312.78 396.187 1324.22 294.903 1313.91 271.435C1303.61 247.967 1331.91 225.374 1326.09 210.672C1320.27 195.97 1286.89 217.341 1289.23 259.776Z" fill="#717371"/>
<path d="M1826.71 119.415C1846.71 123.861 1886.06 129.517 1902.39 131.776C1926.05 139.621 1914.51 144.051 1907.57 151.399C1900.64 158.747 1857.25 144.936 1844.03 151.399C1830.15 158.185 1814.37 144.313 1807.57 137.644C1800.76 130.975 1810.3 115.769 1826.71 119.415Z" fill="#687F79"/>
<path d="M1172.02 434.231C1188.42 447.431 1232.18 428.731 1252.02 417.731C1279.02 368.231 1172.02 277.731 1154.52 275.231C1137.02 272.731 1136.02 290.731 1128.52 318.231C1121.02 345.731 1077.02 334.731 1078.02 373.231C1079.02 411.731 1151.52 417.731 1172.02 434.231Z" fill="#6C837D"/>
<path d="M1954.68 89.4464C1958.18 101.642 1937.56 121.581 1926.81 130.027C1893 133.453 1867.75 52.8617 1870.45 42.5566C1873.15 32.2515 1883.38 35.9039 1900.41 38.1665C1917.44 40.4291 1921.62 13.4171 1942.77 22.9726C1963.92 32.5282 1950.31 74.2022 1954.68 89.4464Z" fill="#6C837D"/>
<path d="M1162 237.5C1146 270.7 1187.67 359.333 1210.5 399.5C1226.6 430.7 1265.88 412.5 1283.5 399.5V218C1283.5 193 1258.5 197 1247.5 206C1236.5 215 1182 196 1162 237.5Z" fill="#AFAFB1"/>
<path d="M1119.97 334.769C1144.03 336.029 1184.81 363.39 1202.19 376.912C1222.08 391.088 1248.97 364.085 1243.11 350.049C1237.25 336.013 1206.08 291.408 1196.75 284.06C1187.41 276.711 1174.59 260.832 1173.96 276.495C1173.33 292.158 1219.83 339.014 1225.02 344.473C1230.2 349.933 1220.05 353.142 1206.38 338.798C1192.71 324.454 1160.21 299.329 1151.46 294.906C1142.72 290.483 1123.02 272.215 1135.69 292.01C1145.83 307.846 1188.2 343.913 1208.12 359.967C1191.71 349.255 1156.22 327.787 1145.46 327.614C1132 327.398 1105.21 320.225 1095.02 320.608C1084.82 320.992 1089.89 333.192 1119.97 334.769Z" fill="#3B4B17"/>
<path d="M1911.6 37.2845C1906.68 50.9429 1912.34 79.9925 1915.79 92.8101C1919.01 107.171 1897.73 115.793 1891.3 109.258C1884.87 102.723 1867.38 74.9822 1865.48 68.0796C1863.58 61.177 1857.76 50.3391 1866.61 53.6528C1875.46 56.9665 1890.61 93.7492 1892.43 97.9043C1894.25 102.059 1898.41 97.1729 1893.64 86.2251C1888.87 75.2774 1882.51 51.3528 1882.09 45.4604C1881.68 39.568 1876.14 24.3553 1884.17 36.0215C1890.6 45.3545 1900.73 77.3214 1904.99 92.1383C1902.87 80.524 1899.25 55.7906 1901.67 49.7713C1904.69 42.2471 1906.97 25.6858 1909.57 20.1145C1912.16 14.5432 1917.75 20.2114 1911.6 37.2845Z" fill="#3B4B17"/>
<circle cx="1176.5" cy="271.5" r="9.5" fill="#7A745E"/>
<circle cx="5.72521" cy="5.72521" r="5.72521" transform="matrix(-0.387898 0.921702 0.921702 0.387898 1860.18 46.3984)" fill="#7A745E"/>
<circle cx="1131.5" cy="281.5" r="9.5" fill="#AD927C"/>
<circle cx="5.72521" cy="5.72521" r="5.72521" transform="matrix(-0.387898 0.921702 0.921702 0.387898 1876.26 23.7393)" fill="#C6C9C6"/>
<circle cx="1089.5" cy="324.5" r="9.5" fill="#7A745E"/>
<circle cx="5.72521" cy="5.72521" r="5.72521" transform="matrix(-0.387898 0.921702 0.921702 0.387898 1909.96 10.4609)" fill="#7A745E"/>
<path d="M1164 417.5C1195.2 413.1 1237 423.333 1254 429C1207 474.5 1135 450.5 1116 447C1097 443.5 1065.5 399 1088 392C1110.5 385 1125 423 1164 417.5Z" fill="#4C5E59"/>
<path d="M1947.26 81.0825C1937.52 97.3845 1933.44 122.995 1932.61 133.763C1968.87 118.292 1972.37 72.6883 1974.87 61.3162C1977.36 49.9442 1960.01 22.0442 1950.86 32.9058C1941.71 43.7675 1959.43 60.705 1947.26 81.0825Z" fill="#4C5E59"/>
<path d="M1177.51 379.414C1203.79 442.39 1248.79 443.257 1268.01 435.819C1335.57 424.662 1280.41 379.414 1301.48 340.364C1322.56 301.314 1294.04 230.032 1280.41 242.428C1266.77 254.825 1244.45 247.387 1232.68 242.428C1220.9 237.47 1201.68 270.321 1200.44 301.313C1199.21 332.306 1144.66 300.694 1177.51 379.414Z" fill="#C6C9C6"/>
<path d="M1922.95 79.6829C1951.78 109.004 1941.75 134.203 1933.12 143.138C1911.13 178.06 1898.89 136.839 1872.28 139.417C1845.66 141.995 1812.73 109.493 1822.8 104.816C1832.88 100.139 1833.96 86.0051 1833.96 78.3039C1833.96 70.6028 1856.7 67.6088 1874.2 74.1652C1891.71 80.7215 1886.9 43.0321 1922.95 79.6829Z" fill="#C6C9C6"/>
<path d="M1193.23 453.256C1199.21 434.665 1242.99 421.719 1264.13 417.571C1295.53 438.265 1278.56 458.07 1257.28 459.275C1236 460.48 1219.25 482.35 1217.25 490.653C1215.25 498.956 1185.62 515.138 1168.37 514.874C1154.57 514.662 1148.5 522.89 1147.2 527.031C1147.09 516.079 1158.78 508.057 1168.22 501.055C1177.67 494.053 1185.75 476.494 1193.23 453.256Z" fill="#6C837D"/>
<path d="M1974.18 258.798C1964.4 246.098 1926.99 248.24 1909.51 250.898C1890.99 275.593 1909.6 286.183 1926.37 281.213C1943.14 276.243 1962.15 288.488 1966 294.347C1969.84 300.206 1997.21 304.49 2010.47 299.501C2021.07 295.509 2028.04 300.183 2030.19 303.019C2027.24 294.531 2015.98 291.575 2006.75 288.786C1997.51 285.997 1986.4 274.674 1974.18 258.798Z" fill="#6C837D"/>
<path d="M1471.71 525.029C1433.49 499.66 1432.16 392.409 1436.27 341.954C1503.13 284.106 1537.08 335.107 1526.23 383.992C1515.37 432.877 1554.13 484.702 1571.64 494.511C1589.14 504.321 1606.83 581.618 1595.21 620.472C1585.92 651.555 1600.66 670.503 1609.19 676.092C1584.35 669.357 1573.67 637.819 1563.86 612.002C1554.06 586.184 1519.5 556.741 1471.71 525.029Z" fill="#819F98"/>
<path d="M1597.91 412.5C1590.71 412.5 1591.57 430.833 1592.91 440C1583.91 466.998 1600.41 489.5 1601.91 500C1603.41 510.5 1613.41 502.5 1623.91 500C1634.41 497.5 1651.41 504.5 1655.91 489.5C1660.41 474.5 1640.91 456.5 1635.91 440C1630.91 423.5 1606.91 412.5 1597.91 412.5Z" fill="#A07F64"/>
<path d="M1712.5 319.95C1715.98 324.659 1703.5 333.032 1696.82 336.629C1683.4 355.68 1660.6 355.86 1652.96 359.999C1645.32 364.137 1645.74 353.696 1642.3 345.609C1638.86 337.522 1626.01 329.816 1633.71 319.558C1641.4 309.301 1662.7 313.279 1675.98 308.504C1689.27 303.729 1708.14 314.063 1712.5 319.95Z" fill="#A07F64"/>
<path d="M1611.91 397C1599.91 402.6 1606.91 414.333 1611.91 419.5C1611.91 427.999 1640.91 458.5 1649.41 465C1657.91 471.5 1664.91 463.5 1668.41 458.5C1671.91 453.5 1672.91 439.5 1675.41 434.5C1677.91 429.5 1681.41 416.5 1672.91 397C1664.41 377.499 1669.41 372.5 1664.91 365.5C1660.41 358.5 1651.41 361 1645.91 369.5C1640.41 378 1626.91 390 1611.91 397Z" fill="#AD927C"/>
<path d="M1715.59 303.719C1717.81 314.348 1706.73 315.391 1700.92 314.585C1695.38 318.689 1661.31 314.267 1652.91 311.792C1644.52 309.318 1646.31 300.832 1647.86 296.106C1649.41 291.38 1658.04 283.959 1660.08 279.894C1662.12 275.829 1668.88 267.24 1685.75 263.436C1702.62 259.633 1703.43 253.916 1710.2 253.508C1716.96 253.099 1719.74 260.25 1716.89 267.987C1714.03 275.723 1712.82 290.433 1715.59 303.719Z" fill="#AD927C"/>
<path d="M1341 587C1292.6 533 1345.17 489.833 1377.5 475C1414 454.5 1441 475 1455 518.5C1469 562 1443 597 1421 606.5C1399 616 1372.5 587 1365.5 587H1341Z" fill="#AFAFB1"/>
<path d="M1496.5 422C1466.9 414 1435.17 418.667 1423 422C1349.5 488.5 1496.5 564 1521.5 569C1546.5 574 1531.5 531.5 1559 519.5C1586.5 507.5 1571 453 1566 438C1561 423 1533.5 432 1496.5 422Z" fill="#7A745E"/>
<path d="M1317 413.5C1350.2 415.1 1377.17 437.833 1386.5 449C1375.5 513.499 1297 551 1265.5 559C1234 567 1208 514.5 1207 493.5C1206 472.5 1244.5 473 1247.5 449C1250.5 425 1275.5 411.5 1317 413.5Z" fill="#AD927C"/>
<path d="M1398.5 306C1388.9 316.4 1394.5 401 1398.5 442C1412.5 474.5 1500.5 424 1528.5 409.5C1556.5 395 1546 361.5 1545 335C1544 308.5 1499.5 285.5 1488.5 289C1477.5 292.5 1410.5 293 1398.5 306Z" fill="#C29E80"/>
<path d="M1292 388.5C1291.2 418.5 1347.33 444 1375.5 453C1423 474.212 1419 312 1402.5 294C1386 276 1351 297 1322 306C1293 315 1293 351 1292 388.5Z" fill="#A07F64"/>
<path d="M1384.5 380.5V439C1381.5 448.5 1367.5 495.5 1371.5 509C1375.5 522.5 1390.5 525.5 1384.5 505C1379.7 488.6 1392.83 472.5 1400 466.5C1431 481 1472 487.5 1477.5 480C1483 472.5 1404 470 1411.5 459C1419 448 1463.5 431.5 1456.5 420C1449.5 408.5 1412 456 1404 445.5C1396 435 1415 417 1425.5 400.5C1436 384 1439.5 380.5 1425.5 384.5C1411.5 388.5 1400 442 1393.5 431.5C1387 421 1395.5 377.5 1393.5 372.5C1391.5 367.5 1384.5 368.5 1384.5 380.5Z" fill="#3B4B17"/>
<circle cx="1389.5" cy="369.5" r="9.5" fill="#7A745E"/>
<circle cx="1433.5" cy="380.5" r="9.5" fill="#687F79"/>
<circle cx="1458.5" cy="422.5" r="9.5" fill="#7A745E"/>
<circle cx="1477.5" cy="477.5" r="9.5" fill="#AFAFB1"/>
<circle cx="1386.5" cy="519.5" r="9.5" fill="#7A745E"/>
<circle cx="1380.5" cy="448.5" r="9.5" fill="#7A745E"/>
<path d="M1597.25 435.236C1590 395.014 1557.75 412.299 1553.18 411.155C1521.27 406.78 1514.88 434.083 1508.94 444.944C1503 455.805 1524.61 481.915 1542.51 496.609C1560.42 511.304 1578 487.731 1589.6 481.344C1601.19 474.956 1604.51 475.458 1597.25 435.236Z" fill="#AD927C"/>
<path d="M1697.48 331.733C1727.45 316.92 1731.79 346.528 1734.77 348.979C1753.18 367.819 1738.35 385.314 1734.1 394.507C1729.85 403.699 1702.17 402.21 1683.79 397.596C1665.42 392.982 1672.35 369.944 1670.9 359.213C1669.45 348.481 1667.51 346.545 1697.48 331.733Z" fill="#AD927C"/>
<path d="M1506.91 406.5C1514.91 428.5 1561.57 424 1583.91 419C1648.91 399.5 1554.41 344.5 1546.41 340.5C1538.41 336.5 1535.41 347.5 1523.91 362.5C1512.41 377.5 1496.91 379 1506.91 406.5Z" fill="#7A745E"/>
<path d="M1760.56 377.213C1742.26 382.637 1722.54 349.843 1714.96 332.768C1696.15 280.672 1778.08 315.979 1784.59 319.287C1791.09 322.594 1785.35 329.898 1781.11 344.717C1776.88 359.537 1783.43 370.432 1760.56 377.213Z" fill="#7A745E"/>
<path d="M1575.62 309.828C1564.82 315.828 1580.12 368.995 1589.12 394.828C1589.12 436.328 1607.12 413.828 1624.62 407.328C1642.12 400.828 1639.62 372.828 1647.62 357.828C1655.62 342.828 1637.62 320.328 1627.12 320.328C1616.62 320.328 1589.12 302.328 1575.62 309.828Z" fill="#AFAFB1"/>
<path d="M1790.42 284.859C1791.77 294.928 1749.33 310.684 1727.94 317.304C1700.66 337.507 1706.63 314.64 1702.32 299.894C1698.01 285.148 1717.64 273.171 1723.58 260.575C1729.51 247.978 1753.13 248.937 1758.27 255.886C1763.42 262.836 1788.73 272.273 1790.42 284.859Z" fill="#AFAFB1"/>
<path d="M1609.41 381C1607.01 391.8 1600.07 401.5 1596.91 405C1596.24 406.333 1593.91 409 1589.91 409C1584.91 409 1580.41 405 1576.41 403C1572.41 401 1569.41 393 1565.41 391.5C1561.41 390 1558.91 397.5 1562.41 399.5C1565.91 401.5 1569.41 409 1580.41 415C1591.41 421 1595.41 413 1596.91 418.5C1598.41 424 1598.41 423.5 1606.41 428C1614.41 432.5 1616.91 442 1620.41 446C1623.91 450 1629.41 443 1622.91 436C1616.41 429 1611.41 422 1615.41 421C1619.41 420 1626.91 418.5 1633.91 418.5C1640.91 418.5 1643.91 411.5 1642.91 409C1641.91 406.5 1634.91 410.5 1626.91 413C1618.91 415.5 1607.41 413 1612.91 411.5C1618.41 410 1625.41 397.5 1626.91 395C1628.41 392.5 1632.91 383.5 1629.41 383C1625.91 382.5 1620.41 397 1615.41 403C1610.41 409 1596.91 410.5 1604.91 405C1612.91 399.499 1621.91 365 1620.41 362C1618.91 359 1612.41 367.5 1609.41 381Z" fill="#3B4B17"/>
<path d="M1727.02 297.556C1721.1 304.372 1718.1 313.616 1717.34 317.387C1716.78 318.47 1716.17 321.291 1718.1 323.906C1720.52 327.175 1725.33 328.174 1728.57 329.817C1731.82 331.461 1738.52 329.536 1741.44 331.422C1744.36 333.308 1740.66 338.586 1737.65 337.269C1734.64 335.953 1728.03 337.308 1718.77 333.031C1709.51 328.755 1712.82 322.254 1708.48 323.945C1704.15 325.636 1704.48 325.393 1697.65 322.349C1690.83 319.305 1683.39 322.286 1679.07 321.941C1674.75 321.596 1676.68 314.6 1684.42 315.448C1692.15 316.297 1699.17 316.166 1697.88 313.065C1696.6 309.964 1693.95 304.332 1690.57 299.756C1687.18 295.18 1690.31 289.818 1692.44 289.258C1694.56 288.697 1695.33 295.216 1697.56 301.661C1699.8 308.105 1707 314.409 1705.32 310.084C1703.65 305.76 1708.45 295.112 1709.37 292.917C1710.28 290.722 1714 283.408 1716.03 285.453C1718.05 287.498 1711.2 298.138 1709.69 304.321C1708.18 310.504 1713.73 320.059 1713.46 312.157C1713.2 304.255 1731.46 281.612 1734.16 281.135C1736.85 280.659 1734.42 289.037 1727.02 297.556Z" fill="#3B4B17"/>
<circle cx="1619.41" cy="360.5" r="5.5" fill="#AD927C"/>
<circle cx="4.5" cy="4.5" r="4.5" transform="matrix(-0.595219 -0.803564 -0.803564 0.595219 1742.67 281.725)" fill="#AD927C"/>
<circle cx="1630.41" cy="383.5" r="5.5" fill="#AD927C"/>
<circle cx="4.5" cy="4.5" r="4.5" transform="matrix(-0.595219 -0.803564 -0.803564 0.595219 1722.05 285.802)" fill="#AD927C"/>
<circle cx="1644.41" cy="413.5" r="5.5" fill="#687F79"/>
<circle cx="4.5" cy="4.5" r="4.5" transform="matrix(-0.595219 -0.803564 -0.803564 0.595219 1694.81 291.039)" fill="#687F79"/>
<circle cx="1625.41" cy="443.5" r="5.5" fill="#AFAFB1"/>
<circle cx="4.5" cy="4.5" r="4.5" transform="matrix(-0.595219 -0.803564 -0.803564 0.595219 1685.05 318.182)" fill="#AFAFB1"/>
<circle cx="1561.41" cy="394.5" r="5.5" fill="#AD927C"/>
<circle cx="4.5" cy="4.5" r="4.5" transform="matrix(-0.595219 -0.803564 -0.803564 0.595219 1748.15 336.158)" fill="#AD927C"/>
</svg>
