<svg width="1187" height="374" viewBox="0 0 1187 374" fill="none" xmlns="http://www.w3.org/2000/svg">
<path d="M1019.65 300.621C1019.47 277.029 1029.05 261.643 1033.87 256.898C1037.98 245.432 1054.86 230.898 1060.27 233.719C1065.67 236.54 1057.91 265.519 1058.14 277.072C1058.38 288.626 1050.97 310.088 1040.86 325.283C1032.76 337.439 1029.45 352.759 1028.8 358.9C1028.13 357.778 1027.18 352.025 1028.71 337.987C1030.63 320.44 1019.87 330.11 1019.65 300.621Z" fill="#607671"/>
<path d="M1049.62 298.68C1057.13 290.111 1063.58 272.211 1065.87 264.332C1064.15 253.437 1082.43 244.608 1073.03 240.759C1063.62 236.91 1067.3 237.07 1062.79 236.425C1058.28 235.78 1053.92 243.22 1044.58 249.296C1035.24 255.372 1014.88 269.646 1007.95 277.473C1001.03 285.3 1024.02 302.554 1031.84 309.476C1039.67 316.398 1040.23 309.391 1049.62 298.68Z" fill="#465B56"/>
<path d="M1102.99 282.1C1087.43 270.753 1078.61 256.807 1077.25 255.9C1068.16 240.347 1099.18 262.089 1101.45 265.977C1103.72 269.865 1116.67 265.791 1129.48 278.414C1142.3 291.038 1133.09 306.744 1122.64 310.728C1112.2 314.712 1118.56 293.447 1102.99 282.1Z" fill="#AFAFB1"/>
<path d="M1100.52 274.763C1097.82 265.272 1077.23 254.554 1067.27 250.381C1055.19 251.851 1064.96 281.795 1065 299.149C1065.05 316.503 1071.63 307.365 1080 313.164C1088.38 318.963 1084.15 314.042 1086.89 318.649C1089.64 323.256 1097.5 321.205 1101.56 319.586C1105.62 317.967 1112.01 315.602 1113.92 303.618C1115.84 291.635 1103.89 286.628 1100.52 274.763Z" fill="#6C837D"/>
<path d="M1085.87 324.938C1091.93 319.716 1067.54 263.757 1066.12 263.147C1045.72 264.404 1029.41 309.271 1033.85 316.095C1038.29 322.92 1045.31 321.929 1053.51 322.734C1061.7 323.538 1079.81 330.16 1085.87 324.938Z" fill="#AFAFB1"/>
<path d="M1092.54 249.535C1084.38 243.596 1076.51 242.323 1073.6 242.429C1064.32 254.092 1090.88 264.671 1112.96 273.06C1135.03 281.449 1138.6 270.435 1135.51 270.401C1132.42 270.366 1127.72 270.611 1128.81 264.026C1129.89 257.441 1120.56 257.634 1110.4 257.342C1100.24 257.05 1102.74 256.959 1092.54 249.535Z" fill="#C6C9C6"/>
<path d="M652.106 264.093C636.121 258.915 627.873 248.984 625.747 244.666C618.921 239.312 612.888 224.639 616.008 221.618C619.129 218.597 636.972 230.352 644.833 232.788C652.695 235.225 665.538 245.048 673.536 255.297C679.935 263.496 689.546 269.177 693.551 270.992C692.643 271.191 688.541 270.543 679.397 266.355C667.967 261.121 672.087 270.565 652.106 264.093Z" fill="#607671"/>
<path d="M609.346 222.816C607.628 217.577 603.147 211.214 601.122 208.687C604.987 207.427 607.273 213.81 611.928 217.687C616.583 221.564 636.944 227.884 646.602 240.967C656.261 254.05 653.966 280.134 660.237 288.157C665.254 294.575 667.429 308.145 667.89 314.128C665.082 308.71 658.404 302.867 652.894 299.678C647.384 296.489 646.142 288.176 640.323 283.329C634.504 278.483 629.057 277.586 613.39 260.898C597.723 244.21 611.495 229.365 609.346 222.816Z" fill="#819F98"/>
<path d="M904.324 232.826C759.411 254.088 576.296 209.948 502.853 185.22C510.703 178.974 526.296 185.047 562.63 195.018C598.964 204.988 734.509 223.745 776.935 230.318C819.362 236.89 917.05 225.623 923.823 223.58C930.595 221.536 1090.48 209.763 1104.98 207.165C1119.48 204.568 1187.28 222.055 1186.47 223.683C1185.66 225.31 1173.24 225.119 1158.84 220.723C1148.74 217.638 1147.59 216.62 1113.22 215.308C1070.83 213.69 1004.37 218.146 904.324 232.826Z" fill="#33544B"/>
<path d="M926.292 270.509C923.905 269.32 904.662 246.648 895.339 235.46C897.284 231.554 902.11 232.287 904.279 233.142C911.252 243.385 925.741 264.547 927.913 267.254C930.086 269.961 946.901 277.388 955.038 280.763C962.46 289.424 977.738 307.233 979.475 309.182C981.213 311.13 980.478 314.42 979.893 315.821C972.423 305.896 956.671 285.638 953.417 284.017L926.292 270.509Z" fill="#33544B"/>
<path d="M855.682 207.512C853.067 208.033 840.638 206.451 809.71 232.75C810.563 237.029 813.298 236.561 815.616 236.305C825.029 228.247 835.684 219.806 838.217 217.432C847.105 209.1 870.459 205.803 879.195 204.678C888.628 198.265 908.04 185.083 910.228 183.658C912.415 182.233 912.568 178.865 912.371 177.36C902.561 184.981 882.05 200.401 878.484 201.112C874.027 202.001 858.951 206.86 855.682 207.512Z" fill="#33544B"/>
<path d="M956.393 326.779C953.268 313.433 962.214 300.616 967.078 295.876C970.522 302.574 973.3 322.173 976.071 330.97C978.842 339.766 972.316 348.087 971.794 353.32C971.376 357.506 968.501 359.978 967.115 360.691C968.53 359.087 966.414 353.297 964.292 346.445C961.64 337.879 960.299 343.461 956.393 326.779Z" fill="#56756E"/>
<path d="M930.524 175.189C906.645 174.102 887.535 193.539 880.965 203.393C893.55 207.155 928.038 205.647 944.005 207.584C959.972 209.52 972.149 195.669 980.953 193.101C987.997 191.046 991.314 185.325 992.092 182.722C989.796 185.659 979.193 183.885 966.767 182.44C951.234 180.633 960.373 176.548 930.524 175.189Z" fill="#56756E"/>
<path d="M965.381 337.456C958.35 323.092 965.185 306.186 969.482 299.528C975.144 306.248 983.409 327.814 988.852 337.096C994.295 346.378 989.04 357.542 989.81 363.629C990.426 368.499 987.799 372.059 986.409 373.23C987.6 371.038 988.932 364.844 984.734 357.604C979.486 348.554 974.169 355.411 965.381 337.456Z" fill="#819F98"/>
<path d="M916.258 145.953C891.419 158.637 883.264 189.376 882.292 203.161C897.223 199.71 907.697 206.738 925.878 202.092C952.78 195.218 958.231 181.321 963.001 171.743C966.649 164.419 984.587 157.353 983.873 154.264C983.241 158.568 976.85 153.766 966.733 148.074C950.832 139.127 947.306 130.099 916.258 145.953Z" fill="#819F98"/>
<path d="M1048.33 232.778C1044.31 226.171 1036.16 218.929 1032.59 216.134C1037.46 213.145 1042.62 221.133 1050.22 224.915C1057.81 228.697 1087.63 230.683 1105 245.427C1122.37 260.17 1127.57 296.616 1138.7 305.542C1147.6 312.683 1154.91 330.541 1157.45 338.578C1151.89 332.082 1140.9 326.272 1132.36 323.71C1123.82 321.149 1119.46 310.179 1109.97 305.451C1100.48 300.723 1092.75 301.278 1066.03 283.568C1039.3 265.858 1053.36 241.036 1048.33 232.778Z" fill="#819F98"/>
<path d="M797.286 296.209C811.135 282.788 817.248 250.133 818.573 235.483L817.051 234.725L814.584 243.493C813.722 245.225 810.416 249.792 804.092 254.208C796.187 259.727 791.11 267.196 784.62 273.69C778.129 280.184 784.119 286.139 774.269 294.473C766.39 301.139 759.9 314.425 757.641 320.234C764.234 311.899 779.976 312.985 797.286 296.209Z" fill="#56756E"/>
<path d="M918.053 270.718C918.464 262.534 914.112 249.563 911.885 244.1C906.052 238.726 912.419 225.588 905.398 227.616C898.377 229.644 900.525 228.091 897.695 229.74C894.865 231.389 904 247.613 896.582 250.637C887.237 254.447 885.509 269.855 885.1 277.357C884.691 284.859 905.351 284.327 912.853 284.736C920.355 285.145 917.54 280.948 918.053 270.718Z" fill="#AD927C"/>
<path d="M928.614 232.196C916.267 238.469 904.454 239.573 903.431 240.147C890.496 240.905 914.544 228.117 917.778 227.927C921.011 227.737 922.62 218.115 934.889 214.018C947.158 209.922 954.22 220.945 953.367 228.938C952.515 236.931 940.96 225.922 928.614 232.196Z" fill="#AD927C"/>
<path d="M931.124 228.773C924.742 225.672 909.13 231.575 902.121 234.915C897.12 242.096 917.856 251.206 927.181 259.498C936.506 267.79 934.76 259.884 941.882 258.172C949.003 256.461 944.341 256.368 948.125 257.105C951.908 257.843 954.578 252.642 955.655 249.69C956.733 246.738 958.524 242.181 953.018 235.411C947.511 228.641 939.101 232.649 931.124 228.773Z" fill="#7A745E"/>
<path d="M951.007 260.667C951.112 254.915 909.421 241.181 908.413 241.65C899.313 253.189 915.553 283.431 921.34 284.321C927.127 285.21 929.961 280.969 934.317 276.963C938.674 272.956 950.903 266.418 951.007 260.667Z" fill="#C4A78F"/>
<path d="M908.233 222.605C901.403 226.031 897.814 230.882 896.873 232.879C901.495 243.176 917.842 228.977 931.155 217.039C944.467 205.102 938.297 198.873 937.2 200.94C936.104 203.007 934.636 206.253 930.582 203.236C926.529 200.219 923.416 206.566 919.69 213.3C915.965 220.034 916.771 218.322 908.233 222.605Z" fill="#C29E80"/>
<path d="M1024.68 190.534C1028.92 200.501 1017.08 213.493 1010.63 218.743C1022.2 201.487 1013.96 181.923 1008.39 174.298C1012.05 175.557 1020.44 180.567 1024.68 190.534Z" fill="#465B56"/>
<path d="M1035.79 258.039C1027.27 264.726 1011.65 256.666 1004.9 251.801C1024.57 258.493 1041.32 245.451 1047.24 238.093C1046.98 241.955 1044.32 251.351 1035.79 258.039Z" fill="#465B56"/>
<path d="M1031.62 245.906C1020.86 247.17 1011.73 232.148 1008.51 224.479C1021.81 240.444 1042.9 238.046 1051.79 234.852C1049.55 238.01 1042.38 244.642 1031.62 245.906Z" fill="#465B56"/>
<path d="M1063.89 229.817C1071.86 222.477 1066.41 205.764 1062.69 198.326C1066.14 218.814 1050.58 233.257 1042.37 237.918C1046.22 238.276 1055.92 237.157 1063.89 229.817Z" fill="#465B56"/>
<path d="M913.033 211.541C915.649 220.4 899.155 228.796 893.175 232.61C897.216 217.019 899.611 201.75 895.644 194.744C898.621 196.17 910.417 202.682 913.033 211.541Z" fill="#465B56"/>
<path d="M877.252 255.808C874.64 264.668 857.4 264.746 850.308 264.702C862.165 253.803 872.467 242.279 872.938 234.242C874.664 237.056 879.865 246.947 877.252 255.808Z" fill="#465B56"/>
<path d="M682.157 236.667C683.541 229.446 696.51 224.605 702.821 223.087C714.113 224.329 726.607 214.643 719.705 230.474C714.183 243.139 692.372 239.88 682.157 236.667Z" fill="#22302D"/>
<path d="M672.541 209.434C674.106 219.339 701.805 226.047 715.458 228.163C710.944 220.048 700.587 203.154 695.274 200.506C688.634 197.195 670.585 197.053 672.541 209.434Z" fill="#364844"/>
<path d="M736.09 184.718C744.616 195.683 734.794 219.967 728.816 230.738C711.663 235.856 698.252 220.372 695.567 207.911C692.882 195.45 687.83 201.161 673.084 187.742C658.339 174.323 667.974 177.226 678.53 171.751C689.086 166.276 683.057 167.457 694.225 166.473C705.394 165.489 725.431 171.011 736.09 184.718Z" fill="#819F98"/>
<path d="M767.205 216.896C755.715 219.466 742.624 225.867 737.515 228.746C727.679 227.664 784.973 182.721 794.396 177.49C803.819 172.259 793.194 188.418 791.952 199.71C790.71 211.002 781.568 213.683 767.205 216.896Z" fill="#819F98"/>
<path d="M751.806 162.483C746.109 163.331 745.035 187.176 745.21 198.993C742.876 247.031 782.197 197.899 786.757 186.603C791.318 175.308 782.856 171.796 782.04 165.808C781.224 159.82 774.423 157.966 766.049 160.363C757.675 162.76 758.928 161.423 751.806 162.483Z" fill="#AFAFB1"/>
<path d="M761.044 172.348C764.821 184.929 748.736 203.805 739.797 207.984C718.044 224.762 700.992 175.329 702.726 169.621C704.46 163.913 706.274 157.476 718.09 157.301C729.907 157.126 732.533 153.36 745.486 156.259C758.439 159.158 757.266 159.766 761.044 172.348Z" fill="#465B56"/>
<path d="M744.873 222.181C760.66 213.841 784.945 193.704 755.793 179.88C719.352 162.6 711.3 235.816 744.873 222.181Z" fill="#C6C9C6"/>
<path d="M853.198 244.387C846.418 240.179 838.009 236.303 827.018 236.019C831.405 241.966 841.294 254.248 845.756 255.799C851.333 257.738 871.978 256.043 853.198 244.387Z" fill="#364844"/>
<path d="M815.144 272.404C807.301 264.615 812.589 244.451 816.213 235.344C829.232 229.563 841.389 240.422 844.773 249.985C848.157 259.547 851.564 254.527 864.564 263.621C877.564 272.715 861.579 269.787 853.804 275.18C846.028 280.573 853.716 282.371 845.001 284.281C836.287 286.192 824.948 282.14 815.144 272.404Z" fill="#819F98"/>
<path d="M780.924 244.885C789.732 241.69 807.729 241.504 811.469 238.713C819.342 238.569 776.767 278.941 769.861 284.026C762.954 289.111 769.7 275.279 769.534 266.241C769.368 257.202 769.914 248.879 780.924 244.885Z" fill="#C6C9C6"/>
<path d="M804.997 291.547C809.408 290.299 814.276 267.725 812.938 258.416C809.904 220.265 765.09 277.547 774.695 278.854C782.481 279.913 779.546 287.348 780.798 291.992C782.05 296.635 787.606 297.408 793.972 294.666C800.338 291.924 799.485 293.107 804.997 291.547Z" fill="#AFAFB1"/>
<path d="M796.706 284.7C792.447 275.154 803.226 258.623 809.857 254.418C825.323 238.967 843.799 276.252 843.01 280.933C842.221 285.614 836.545 287.856 827.236 289.193C817.928 290.531 819.616 298.593 809.099 297.62C798.582 296.646 800.964 294.246 796.706 284.7Z" fill="#465B56"/>
<path d="M804.41 243.727C792.797 251.912 784.413 253.942 800.701 273.788C826.112 304.751 829.524 229.558 804.41 243.727Z" fill="#C6C9C6"/>
<path d="M712.213 57.5439C713.088 72.1876 705.521 95.4825 701.628 105.299C691.278 115.021 702.903 138.431 690.299 134.92C677.696 131.41 681.567 134.154 676.473 131.25C671.378 128.346 672.814 117.338 668.114 103.788C663.413 90.237 653.969 59.6473 653.108 46.2245C652.247 32.8017 689.24 33.399 702.662 32.538C716.085 31.677 711.118 39.2391 712.213 57.5439Z" fill="#465B56"/>
<path d="M753.404 116.532C728.622 115.787 708.647 123.008 706.552 122.859C685.024 131.494 733.727 133.869 739.109 131.71C744.491 129.551 754.434 143.91 777.43 141.188C800.425 138.466 803.457 115.226 795.981 102.931C788.504 90.6349 778.186 117.278 753.404 116.532Z" fill="#AFAFB1"/>
<path d="M745.096 122.042C734.86 129.564 705.462 124.211 692.043 120.594C680.918 109.564 714.488 86.8253 728.23 69.2125C741.973 51.5997 741.451 66.086 754.544 66.7992C767.637 67.5123 759.457 69.182 765.882 66.6615C772.306 64.141 778.687 72.4372 781.537 77.2873C784.387 82.1375 789.014 89.5829 781.504 103.282C773.995 116.981 757.892 112.641 745.096 122.042Z" fill="#6C837D"/>
<path d="M769.806 59.459C771.848 69.5528 702.871 107.202 700.946 106.702C681.195 89.3212 700.024 30.8242 709.927 27.3892C719.829 23.9541 726.189 30.5062 735.155 36.154C744.12 41.8018 767.764 49.3653 769.806 59.459Z" fill="#AFAFB1"/>
<path d="M717.07 141.4C704.085 140.999 695.082 136.084 692.203 133.677C691.97 114.49 727.335 124.701 756.403 133.594C785.471 142.487 780.407 156.505 777.238 154.101C774.068 151.697 769.485 147.741 765.389 155.292C761.294 162.843 751.956 155.281 741.394 147.559C730.833 139.837 733.301 141.9 717.07 141.4Z" fill="#C6C9C6"/>
<path d="M211.018 309.024C189.439 307.549 176.038 297.722 172.034 292.993C161.837 288.439 149.721 271.999 152.675 267.252C155.629 262.504 181.582 271.613 192.161 272.201C202.739 272.789 221.845 281.046 235.034 291.348C245.586 299.589 259.361 303.682 264.93 304.699C263.858 305.231 258.533 305.702 245.806 303.328C229.898 300.359 237.992 310.867 211.018 309.024Z" fill="#607671"/>
<path d="M144.73 270.828C140.948 264.822 133.365 258.274 130.047 255.751C134.481 252.97 139.329 260.229 146.353 263.617C153.377 267.005 180.777 268.54 196.924 281.863C213.071 295.186 218.349 328.477 228.686 336.537C236.955 342.986 243.91 359.254 246.353 366.581C241.154 360.692 230.99 355.48 223.113 353.218C215.237 350.956 211.09 340.962 202.31 336.727C193.53 332.491 186.447 333.072 161.67 317.123C136.894 301.175 149.458 278.335 144.73 270.828Z" fill="#819F98"/>
<path d="M581.721 91.3429C553.16 101.668 538.865 120.11 535.287 128.04C523.281 138.126 513.275 164.999 519.096 170.266C524.917 175.534 556.434 153.214 570.487 148.335C584.539 143.455 607.142 124.93 620.968 105.929C632.028 90.7278 649.043 79.882 656.168 76.3592C654.516 76.0544 647.145 77.4749 630.882 85.596C610.553 95.7474 617.421 78.4363 581.721 91.3429Z" fill="#607671"/>
<path d="M516.234 191.223C341.901 263.025 99.4393 265.078 0 257.129C7.85324 246.878 29.2231 249.593 77.7112 250.699C126.199 251.806 301.328 232.907 356.364 227.868C411.4 222.828 529.879 178.255 537.698 173.588C545.518 168.921 741.516 104.295 758.808 96.5244C776.1 88.7538 854.585 89.6848 854.081 91.9703C853.577 94.2558 878.618 116.554 851.813 102.255C839.813 95.8534 814.975 95.0267 771.646 104.119C718.191 115.337 636.592 141.652 516.234 191.223Z" fill="#33544B"/>
<path d="M555.434 231.425C552.082 230.686 520.972 208.38 505.835 197.32C507.045 191.834 513.3 191.243 516.276 191.633C528.183 202.248 552.884 224.152 556.442 226.854C560.001 229.556 583.32 233.58 594.534 235.254C606.507 243.753 631.148 261.224 633.927 263.115C636.705 265.006 636.814 269.344 636.521 271.276C624.094 261.213 598.097 240.833 593.526 239.825L555.434 231.425Z" fill="#33544B"/>
<path d="M348.176 187.717C345.073 189.185 329.058 191.09 298.645 233.59C301.047 238.667 304.315 237.229 307.13 236.185C316.37 223.183 327.04 209.314 329.462 205.559C337.961 192.379 366.096 180.968 376.655 176.836C386.432 165.882 406.559 143.358 408.846 140.896C411.133 138.433 410.272 134.18 409.555 132.361C399.684 144.942 378.885 170.603 374.654 172.605C369.364 175.107 352.054 185.882 348.176 187.717Z" fill="#33544B"/>
<path d="M610.595 292.295C602.525 276.604 609.696 257.805 614.289 250.367C620.682 257.656 630.271 281.264 636.478 291.384C642.685 301.504 637.133 313.934 638.115 320.632C638.901 325.99 636.082 329.975 634.574 331.297C635.84 328.853 631.39 322.283 626.601 314.388C620.614 304.52 620.682 311.908 610.595 292.295Z" fill="#56756E"/>
<path d="M377.123 97.7336C361.027 123.959 371.023 157.593 378.034 171.132C390.109 159.297 409.888 119.503 422.014 102.721C434.139 85.9387 426.118 63.5938 428.707 52.0749C430.778 42.8598 426.4 35.5599 423.951 33.0618C425.831 37.4784 417.229 48.3187 407.862 61.4181C396.153 77.7923 397.243 64.952 377.123 97.7336Z" fill="#56756E"/>
<path d="M625.153 302.824C611.888 287.081 615.145 263.833 618.432 254.177C627.601 260.802 644.656 285.153 654.352 295.046C664.048 304.938 660.971 320.52 663.833 327.882C666.123 333.771 663.955 339.037 662.584 340.934C663.387 337.825 663.116 329.674 655.612 321.943C646.232 312.279 641.734 322.503 625.153 302.824Z" fill="#819F98"/>
<path d="M404.603 91.9262C377.544 115.521 376.959 156.456 380.048 173.974C397.618 165.002 412.902 173.032 433.045 159.697C489.172 122.544 479.519 82.9931 482.486 69.5415C484.754 59.2567 489.997 38.4734 488.141 34.8389C488.696 40.4116 477.191 55.7752 462.197 67.0984C443.455 81.2523 438.427 62.4324 404.603 91.9262Z" fill="#819F98"/>
<path d="M507.471 168.335C504.712 177.902 497.039 189.655 493.548 194.335C500.613 196.399 504.321 184.731 512.473 177.463C520.626 170.195 556.984 157.637 573.567 133.447C590.149 109.257 584.281 62.2297 595.079 47.3775C603.717 35.4958 606.752 10.8419 607.189 0.000213623C602.474 9.95199 590.797 20.8864 581.055 26.9584C571.314 33.0303 569.619 48.1283 559.429 57.2135C549.238 66.2987 539.458 68.2244 512.261 99.2651C485.063 130.306 510.919 156.377 507.471 168.335Z" fill="#819F98"/>
<path d="M402.353 303.8C415.457 282.716 412.895 240.026 409.976 221.317L407.838 220.845L407.495 232.565C406.959 234.997 404.256 241.734 397.737 249.223C389.589 258.584 385.581 269.496 379.503 279.633C373.425 289.769 382.765 295.336 373.067 308.818C365.308 319.605 361.352 338.222 360.344 346.182C365.975 333.715 385.974 330.155 402.353 303.8Z" fill="#56756E"/>
<path d="M545.212 234.256C543.169 223.907 533.684 209.067 529.197 202.941C520.235 198.051 524.084 179.655 515.95 184.38C507.815 189.106 510.012 186.495 506.993 189.438C503.973 192.382 520.448 209.79 512.128 215.883C501.647 223.558 504.301 243.34 506.133 252.837C507.965 262.333 533.598 255.218 543.095 253.387C552.591 251.555 547.765 247.192 545.212 234.256Z" fill="#AD927C"/>
<path d="M546.372 182.852C532.912 194.542 518.504 199.609 517.405 200.645C501.489 205.631 527.528 182.151 531.507 180.905C535.486 179.658 534.49 167.139 548.532 158.192C562.575 149.246 574.837 160.807 576.268 171.055C577.698 181.303 559.832 171.162 546.372 182.852Z" fill="#AD927C"/>
<path d="M548.438 177.791C539.499 175.912 521.846 188.159 514.137 194.518C510.134 205.048 538.873 209.95 553.108 217.394C567.343 224.837 562.693 215.509 571.052 211.148C579.412 206.787 573.561 208.126 578.516 207.866C583.471 207.605 585.181 200.277 585.605 196.254C586.028 192.231 586.843 185.98 577.853 179.246C568.862 172.511 559.611 180.141 548.438 177.791Z" fill="#7A745E"/>
<path d="M583.226 211.414C581.561 204.199 525.207 200.065 524.096 200.965C516.334 218.218 546.059 250.914 553.563 250.218C561.067 249.522 563.282 243.341 567.472 236.977C571.662 230.613 584.892 218.63 583.226 211.414Z" fill="#C4A78F"/>
<path d="M517.926 177.239C510.466 183.651 507.499 190.829 506.948 193.616C515.936 205.033 531.916 182.196 544.814 163.131C557.712 144.066 548.061 138.215 547.337 141.139C546.613 144.063 545.794 148.574 539.789 146.073C533.785 143.571 531.879 152.468 529.329 162.041C526.779 171.614 527.252 169.225 517.926 177.239Z" fill="#C29E80"/>
<path d="M653.331 100.826C661.743 111.948 651.012 131.871 644.595 140.442C653.659 115.278 637.256 93.4198 627.922 85.6359C632.887 86.0651 644.919 89.7039 653.331 100.826Z" fill="#465B56"/>
<path d="M875.471 111.468C883.883 122.591 873.151 142.513 866.734 151.084C875.798 125.921 859.395 104.062 850.061 96.2784C855.026 96.7075 867.059 100.346 875.471 111.468Z" fill="#465B56"/>
<path d="M859.758 116.559C861.139 130.436 841.595 141.843 831.651 145.812C852.503 129.063 849.901 101.859 845.993 90.3505C850.006 93.3049 858.377 102.683 859.758 116.559Z" fill="#465B56"/>
<path d="M839.789 74.6624C830.524 64.2396 808.889 70.8722 799.23 75.4913C825.679 71.5177 843.912 91.8748 849.722 102.55C850.272 97.5969 849.053 85.0852 839.789 74.6624Z" fill="#465B56"/>
<path d="M520.463 161.923C526.496 172.17 508.52 187.806 502.243 194.436C502.421 173.704 500.645 153.887 493.503 146.377C497.666 147.228 514.43 151.677 520.463 161.923Z" fill="#465B56"/>
<path d="M489.601 228.377C489.105 240.258 467.601 245.738 458.73 247.898C470.134 230.585 479.401 212.977 477.48 202.793C480.514 205.768 490.097 216.497 489.601 228.377Z" fill="#465B56"/>
<path d="M239.983 265.391C239.457 255.941 254.141 245.846 261.549 241.98C276.039 240.005 288.617 224.008 284.94 245.933C281.999 263.473 253.743 266.214 239.983 265.391Z" fill="#22302D"/>
<path d="M219.472 234.386C224.519 246.266 261.205 245.995 278.917 244.375C270.745 235.649 252.535 217.786 245.074 216.137C235.747 214.076 213.163 219.535 219.472 234.386Z" fill="#364844"/>
<path d="M291.116 183.675C305.188 194.707 300.504 228.1 296.402 243.418C276.579 255.166 254.995 240.016 247.751 225.292C240.507 210.569 235.982 219.279 213.377 207.125C190.773 194.971 203.711 195.588 215.184 185.455C226.658 175.321 219.498 178.678 233.138 173.962C246.778 169.246 273.525 169.886 291.116 183.675Z" fill="#819F98"/>
<path d="M340.02 214.145C326.474 220.943 312.124 233.024 306.642 238.214C294.022 239.935 351.538 165.919 361.673 156.444C371.808 146.969 363.584 170.466 365.559 184.955C367.534 199.445 356.954 205.648 340.02 214.145Z" fill="#819F98"/>
<path d="M303.801 151.001C296.951 153.839 303.055 183.953 306.963 198.655C319.048 259.376 352.812 185.741 354.98 170.21C357.148 154.68 345.484 152.937 342.595 145.714C339.706 138.49 330.635 138.298 320.925 143.906C311.216 149.515 312.363 147.454 303.801 151.001Z" fill="#AFAFB1"/>
<path d="M318.417 160.435C327.063 174.967 312.869 203.563 303.01 211.572C281.083 239.317 244.353 182.908 244.736 175.238C245.119 167.569 245.375 158.964 260.077 155.056C274.779 151.148 276.883 145.624 293.964 145.2C311.045 144.777 309.771 145.902 318.417 160.435Z" fill="#465B56"/>
<path d="M313.782 227.719C330.893 212.374 354.933 179.643 314.21 171.482C263.307 161.281 276.112 255.23 313.782 227.719Z" fill="#C6C9C6"/>
<path d="M814.893 60.1624C818.543 69.7637 824.121 80.2972 835.146 89.1725C835.302 79.6609 834.775 59.3697 831.422 54.2975C827.229 47.9573 804.78 33.5663 814.893 60.1624Z" fill="#364844"/>
<path d="M875.713 61.2163C877.654 75.312 856.495 91.8138 845.673 98.3027C827.837 94.0495 823.879 73.4422 827.885 61.0144C831.892 48.5867 824.483 51.0626 818.284 31.6034C812.085 12.1442 826.155 27.6248 838.323 28.18C850.492 28.7352 844.03 20.8902 854.439 25.7423C864.848 30.5945 873.286 43.5967 875.713 61.2163Z" fill="#819F98"/>
<path d="M889.235 116.102C877.727 112.492 859.167 98.6244 853.16 98.5587C844.991 92.5581 920.089 84.5012 931.127 84.6922C942.166 84.8832 924.46 93.7677 917.571 103.146C910.681 112.524 903.62 120.614 889.235 116.102Z" fill="#C6C9C6"/>
<path d="M901.048 49.5523C895.561 47.3843 872.948 66.6815 867.046 77.251C840.352 118.659 930.948 95.0484 922.141 86.2091C915.001 79.043 923.811 73.7276 926.157 67.9983C928.503 62.269 923.422 57.1389 914.766 54.9723C906.111 52.8056 907.907 52.2623 901.048 49.5523Z" fill="#AFAFB1"/>
<path d="M904.184 63.0359C901.086 76.1304 877.144 84.6262 867.075 83.7499C839.182 87.4797 849.398 34.8984 853.862 30.7248C858.325 26.5512 865.884 28.6905 876.454 34.5921C887.023 40.4938 891.593 30.9257 901.594 40.1363C911.596 49.347 907.283 49.9414 904.184 63.0359Z" fill="#465B56"/>
<path d="M864.299 98.9432C882.575 99.6381 892.74 104.11 891.574 71.0806C889.757 19.5503 827.535 93.8266 864.299 98.9432Z" fill="#C6C9C6"/>
</svg>
