<svg width="1187" height="374" viewBox="0 0 1187 374" fill="none" xmlns="http://www.w3.org/2000/svg">
<path d="M1019.65 72.6097C1019.47 96.2011 1029.05 111.588 1033.87 116.332C1037.98 127.798 1054.86 142.333 1060.27 139.512C1065.67 136.691 1057.91 107.712 1058.14 96.1582C1058.38 84.6046 1050.97 63.1429 1040.86 47.9478C1032.76 35.7918 1029.45 20.4715 1028.8 14.3309C1028.13 15.4525 1027.18 21.2053 1028.71 35.2432C1030.63 52.7906 1019.87 43.1204 1019.65 72.6097Z" fill="#607671"/>
<path d="M1049.62 74.5506C1057.13 83.1197 1063.58 101.019 1065.87 108.898C1064.15 119.793 1082.43 128.622 1073.03 132.471C1063.62 136.321 1067.3 136.161 1062.79 136.806C1058.28 137.45 1053.92 130.011 1044.58 123.934C1035.24 117.858 1014.88 103.585 1007.95 95.7578C1001.03 87.9309 1024.02 70.6767 1031.84 63.7547C1039.67 56.8326 1040.23 63.8392 1049.62 74.5506Z" fill="#465B56"/>
<path d="M1102.99 91.1303C1087.43 102.477 1078.61 116.423 1077.25 117.33C1068.16 132.884 1099.18 111.142 1101.45 107.253C1103.72 103.365 1116.67 107.44 1129.48 94.8161C1142.3 82.1923 1133.09 66.4866 1122.64 62.5027C1112.2 58.5187 1118.56 79.7833 1102.99 91.1303Z" fill="#AFAFB1"/>
<path d="M1100.52 98.4671C1097.82 107.959 1077.23 118.677 1067.27 122.849C1055.19 121.38 1064.96 91.4358 1065 74.0815C1065.05 56.7272 1071.63 65.8654 1080 60.0663C1088.38 54.2673 1084.15 59.188 1086.89 54.5812C1089.64 49.9743 1097.5 52.0259 1101.56 53.6446C1105.62 55.2633 1112.01 57.6285 1113.92 69.6121C1115.84 81.5957 1103.89 86.6027 1100.52 98.4671Z" fill="#6C837D"/>
<path d="M1085.87 48.2925C1091.93 53.5141 1067.54 109.474 1066.12 110.084C1045.72 108.826 1029.41 63.9598 1033.85 57.1351C1038.29 50.3103 1045.31 51.3015 1053.51 50.4968C1061.7 49.6921 1079.81 43.0709 1085.87 48.2925Z" fill="#AFAFB1"/>
<path d="M1092.54 123.696C1084.38 129.635 1076.51 130.907 1073.6 130.801C1064.32 119.138 1090.88 108.559 1112.96 100.17C1135.03 91.7812 1138.6 102.795 1135.51 102.83C1132.42 102.865 1127.72 102.62 1128.81 109.205C1129.89 115.789 1120.56 115.597 1110.4 115.889C1100.24 116.181 1102.74 116.272 1092.54 123.696Z" fill="#C6C9C6"/>
<path d="M652.106 109.137C636.121 114.315 627.873 124.246 625.747 128.565C618.921 133.918 612.888 148.591 616.008 151.612C619.129 154.633 636.972 142.878 644.833 140.442C652.695 138.006 665.538 128.183 673.536 117.934C679.935 109.734 689.546 104.054 693.551 102.239C692.643 102.039 688.541 102.687 679.397 106.875C667.967 112.11 672.087 102.666 652.106 109.137Z" fill="#607671"/>
<path d="M609.346 150.415C607.628 155.654 603.147 162.017 601.122 164.543C604.987 165.804 607.273 159.42 611.928 155.543C616.583 151.666 636.944 145.347 646.602 132.263C656.261 119.18 653.966 93.0961 660.237 85.0737C665.254 78.6558 667.429 65.0854 667.89 59.1024C665.082 64.5208 658.404 70.3635 652.894 73.5525C647.384 76.7415 646.142 85.0548 640.323 89.9011C634.504 94.7474 629.057 95.6447 613.39 112.332C597.723 129.02 611.495 143.866 609.346 150.415Z" fill="#819F98"/>
<path d="M904.324 140.405C759.411 119.143 576.296 163.283 502.853 188.01C510.703 194.256 526.296 188.183 562.63 178.213C598.964 168.242 734.509 149.486 776.935 142.913C819.362 136.34 917.05 147.607 923.823 149.651C930.595 151.694 1090.48 163.467 1104.98 166.065C1119.48 168.663 1187.28 151.175 1186.47 149.548C1185.66 147.92 1173.24 148.112 1158.84 152.507C1148.74 155.593 1147.59 156.61 1113.22 157.922C1070.83 159.541 1004.37 155.084 904.324 140.405Z" fill="#33544B"/>
<path d="M926.292 102.721C923.905 103.91 904.662 126.583 895.339 137.771C897.284 141.676 902.11 140.943 904.279 140.089C911.252 129.846 925.741 108.683 927.913 105.976C930.086 103.269 946.901 95.8429 955.038 92.4679C962.46 83.8068 977.738 65.9973 979.475 64.0486C981.213 62.1 980.478 58.8103 979.893 57.4091C972.423 67.335 956.671 87.592 953.417 89.213L926.292 102.721Z" fill="#33544B"/>
<path d="M855.682 165.719C853.067 165.197 840.638 166.779 809.71 140.481C810.563 136.201 813.298 136.67 815.616 136.926C825.029 144.983 835.684 153.425 838.217 155.798C847.105 164.13 870.459 167.428 879.195 168.552C888.628 174.965 908.04 188.148 910.228 189.573C912.415 190.998 912.568 194.365 912.371 195.871C902.561 188.25 882.05 172.83 878.484 172.118C874.027 171.229 858.951 166.371 855.682 165.719Z" fill="#33544B"/>
<path d="M956.393 46.4519C953.268 59.7976 962.214 72.6141 967.078 77.3541C970.522 70.6561 973.3 51.0574 976.071 42.261C978.842 33.4645 972.316 25.1435 971.794 19.9105C971.376 15.724 968.501 13.2523 967.115 12.5398C968.53 14.1432 966.414 19.9331 964.292 26.7855C961.64 35.351 960.299 29.7697 956.393 46.4519Z" fill="#56756E"/>
<path d="M930.524 198.041C906.645 199.129 887.535 179.692 880.965 169.838C893.55 166.075 928.038 167.584 944.005 165.647C959.972 163.71 972.149 177.561 980.953 180.13C987.997 182.185 991.314 187.905 992.092 190.509C989.796 187.571 979.193 189.345 966.767 190.791C951.234 192.598 960.373 196.682 930.524 198.041Z" fill="#56756E"/>
<path d="M965.381 35.7744C958.35 50.1383 965.185 67.0448 969.482 73.7026C975.144 66.9823 983.409 45.4166 988.852 36.1345C994.295 26.8523 989.04 15.6888 989.81 9.60135C990.426 4.73142 987.799 1.17132 986.409 0C987.6 2.19201 988.932 8.38609 984.734 15.6264C979.486 24.6768 974.169 17.8195 965.381 35.7744Z" fill="#819F98"/>
<path d="M916.258 227.277C891.419 214.594 883.264 183.854 882.292 170.07C897.223 173.521 907.697 166.492 925.878 171.138C952.78 178.013 958.231 191.909 963.001 201.488C966.649 208.811 984.587 215.878 983.873 218.967C983.241 214.662 976.85 219.464 966.733 225.157C950.832 234.103 947.306 243.131 916.258 227.277Z" fill="#819F98"/>
<path d="M1048.33 140.453C1044.31 147.059 1036.16 154.301 1032.59 157.096C1037.46 160.086 1042.62 152.098 1050.22 148.316C1057.81 144.533 1087.63 142.547 1105 127.804C1122.37 113.06 1127.57 76.615 1138.7 67.6887C1147.6 60.5476 1154.91 42.6893 1157.45 34.6528C1151.89 41.1487 1140.9 46.9589 1132.36 49.5201C1123.82 52.0813 1119.46 63.0512 1109.97 67.7792C1100.48 72.5071 1092.75 71.9528 1066.03 89.6628C1039.3 107.373 1053.36 132.194 1048.33 140.453Z" fill="#819F98"/>
<path d="M797.286 77.0215C811.135 90.4423 817.248 123.098 818.573 137.748L817.051 138.506L814.584 129.738C813.722 128.006 810.416 123.438 804.092 119.022C796.187 113.503 791.11 106.035 784.62 99.5406C778.129 93.0466 784.119 87.0916 774.269 78.7579C766.39 72.091 759.9 58.8059 757.641 52.9968C764.234 61.331 779.976 60.2455 797.286 77.0215Z" fill="#56756E"/>
<path d="M918.053 102.513C918.464 110.697 914.112 123.668 911.885 129.13C906.052 134.505 912.419 147.643 905.398 145.615C898.377 143.586 900.525 145.14 897.695 143.49C894.865 141.841 904 125.617 896.582 122.593C887.237 118.784 885.509 103.375 885.1 95.8731C884.691 88.371 905.351 88.903 912.853 88.4941C920.355 88.0852 917.54 92.2824 918.053 102.513Z" fill="#AD927C"/>
<path d="M928.614 141.035C916.267 134.761 904.454 133.657 903.431 133.084C890.496 132.325 914.544 145.114 917.778 145.304C921.011 145.493 922.62 155.116 934.889 159.212C947.158 163.308 954.22 152.285 953.367 144.292C952.515 136.299 940.96 147.309 928.614 141.035Z" fill="#AD927C"/>
<path d="M931.124 144.458C924.742 147.559 909.13 141.655 902.121 138.316C897.12 131.134 917.856 122.024 927.181 113.732C936.506 105.44 934.76 113.347 941.882 115.058C949.003 116.769 944.341 116.862 948.125 116.125C951.908 115.388 954.578 120.589 955.655 123.541C956.733 126.493 958.524 131.05 953.018 137.819C947.511 144.589 939.101 140.582 931.124 144.458Z" fill="#7A745E"/>
<path d="M951.007 112.564C951.112 118.315 909.421 132.049 908.413 131.581C899.313 120.041 915.553 89.799 921.34 88.9096C927.127 88.0202 929.961 92.261 934.317 96.2675C938.674 100.274 950.903 106.812 951.007 112.564Z" fill="#C4A78F"/>
<path d="M908.233 150.626C901.403 147.199 897.814 142.349 896.873 140.352C901.495 130.054 917.842 144.254 931.155 156.191C944.467 168.129 938.297 174.357 937.2 172.29C936.104 170.223 934.636 166.977 930.582 169.994C926.529 173.011 923.416 166.665 919.69 159.931C915.965 153.197 916.771 154.908 908.233 150.626Z" fill="#C29E80"/>
<path d="M1024.68 182.697C1028.92 172.73 1017.08 159.738 1010.63 154.487C1022.2 171.743 1013.96 191.307 1008.39 198.933C1012.05 197.674 1020.44 192.664 1024.68 182.697Z" fill="#465B56"/>
<path d="M1035.79 115.192C1027.27 108.504 1011.65 116.564 1004.9 121.43C1024.57 114.737 1041.32 127.78 1047.24 135.137C1046.98 131.275 1044.32 121.879 1035.79 115.192Z" fill="#465B56"/>
<path d="M1031.62 127.325C1020.86 126.061 1011.73 141.083 1008.51 148.752C1021.81 132.787 1042.9 135.184 1051.79 138.379C1049.55 135.221 1042.38 128.589 1031.62 127.325Z" fill="#465B56"/>
<path d="M1063.89 143.414C1071.86 150.754 1066.41 167.466 1062.69 174.905C1066.14 154.416 1050.58 139.973 1042.37 135.313C1046.22 134.955 1055.92 136.074 1063.89 143.414Z" fill="#465B56"/>
<path d="M913.033 161.69C915.649 152.831 899.155 144.434 893.175 140.621C897.216 156.211 899.611 171.481 895.644 178.486C898.621 177.06 910.417 170.549 913.033 161.69Z" fill="#465B56"/>
<path d="M877.252 117.423C874.64 108.563 857.4 108.485 850.308 108.528C862.165 119.428 872.467 130.951 872.938 138.988C874.664 136.174 879.865 126.283 877.252 117.423Z" fill="#465B56"/>
<path d="M682.157 136.563C683.541 143.785 696.51 148.626 702.821 150.143C714.113 148.901 726.607 158.587 719.705 142.757C714.183 130.092 692.372 133.351 682.157 136.563Z" fill="#22302D"/>
<path d="M672.541 163.796C674.106 153.892 701.805 147.183 715.458 145.067C710.944 153.183 700.587 170.076 695.274 172.725C688.634 176.036 670.585 176.178 672.541 163.796Z" fill="#364844"/>
<path d="M736.09 188.513C744.616 177.547 734.794 153.263 728.816 142.492C711.663 137.374 698.252 152.858 695.567 165.32C692.882 177.781 687.83 172.069 673.084 185.488C658.339 198.907 667.974 196.004 678.53 201.479C689.086 206.954 683.057 205.774 694.225 206.757C705.394 207.741 725.431 202.219 736.09 188.513Z" fill="#819F98"/>
<path d="M767.205 156.335C755.715 153.764 742.624 147.364 737.515 144.485C727.679 145.566 784.973 190.51 794.396 195.74C803.819 200.971 793.194 184.813 791.952 173.521C790.71 162.229 781.568 159.548 767.205 156.335Z" fill="#819F98"/>
<path d="M751.806 210.748C746.109 209.899 745.035 186.054 745.21 174.238C742.876 126.199 782.197 175.331 786.757 186.627C791.318 197.923 782.856 201.434 782.04 207.422C781.224 213.411 774.423 215.265 766.049 212.868C757.675 210.471 758.928 211.808 751.806 210.748Z" fill="#AFAFB1"/>
<path d="M761.044 200.883C764.821 188.301 748.736 169.425 739.797 165.247C718.044 148.469 700.992 197.902 702.726 203.61C704.46 209.318 706.274 215.754 718.09 215.929C729.907 216.104 732.533 219.871 745.486 216.972C758.439 214.072 757.266 213.464 761.044 200.883Z" fill="#465B56"/>
<path d="M744.873 151.049C760.66 159.39 784.945 179.527 755.793 193.351C719.352 210.63 711.3 137.414 744.873 151.049Z" fill="#C6C9C6"/>
<path d="M853.198 128.844C846.418 133.052 838.009 136.927 827.018 137.211C831.405 131.264 841.294 118.983 845.756 117.431C851.333 115.492 871.978 117.187 853.198 128.844Z" fill="#364844"/>
<path d="M815.144 100.827C807.301 108.616 812.589 128.779 816.213 137.887C829.232 143.668 841.389 132.808 844.773 123.246C848.157 113.683 851.564 118.704 864.564 109.61C877.564 100.516 861.579 103.443 853.804 98.0504C846.028 92.6577 853.716 90.8591 845.001 88.949C836.287 87.039 824.948 91.0908 815.144 100.827Z" fill="#819F98"/>
<path d="M780.924 128.346C789.732 131.541 807.729 131.726 811.469 134.517C819.342 134.662 776.767 94.2899 769.861 89.2048C762.954 84.1198 769.7 97.9515 769.534 106.99C769.368 116.028 769.914 124.352 780.924 128.346Z" fill="#C6C9C6"/>
<path d="M804.997 81.6833C809.408 82.931 814.276 105.506 812.938 114.814C809.904 152.965 765.09 95.6837 774.695 94.3769C782.481 93.3174 779.546 85.8822 780.798 81.2387C782.05 76.5952 787.606 75.8223 793.972 78.5642C800.338 81.3061 799.485 80.1238 804.997 81.6833Z" fill="#AFAFB1"/>
<path d="M796.706 88.5305C792.447 98.0769 803.226 114.608 809.857 118.813C825.323 134.263 843.799 96.9788 843.01 92.2979C842.221 87.6169 836.545 85.3749 827.236 84.0373C817.928 82.6996 819.616 74.6375 809.099 75.6109C798.582 76.5842 800.964 78.9841 796.706 88.5305Z" fill="#465B56"/>
<path d="M804.41 129.504C792.797 121.318 784.413 119.288 800.701 99.4423C826.112 68.4792 829.524 143.673 804.41 129.504Z" fill="#C6C9C6"/>
<path d="M712.213 315.687C713.088 301.043 705.521 277.748 701.628 267.931C691.278 258.21 702.903 234.8 690.299 238.31C677.696 241.821 681.567 239.076 676.473 241.98C671.378 244.884 672.814 255.892 668.114 269.443C663.413 282.993 653.969 313.583 653.108 327.006C652.247 340.429 689.24 339.831 702.662 340.692C716.085 341.553 711.118 333.991 712.213 315.687Z" fill="#465B56"/>
<path d="M753.404 256.698C728.622 257.444 708.647 250.223 706.552 250.372C685.024 241.736 733.727 239.362 739.109 241.521C744.491 243.68 754.434 229.321 777.43 232.043C800.425 234.764 803.457 258.004 795.981 270.3C788.504 282.596 778.186 255.953 753.404 256.698Z" fill="#AFAFB1"/>
<path d="M745.096 251.188C734.86 243.667 705.462 249.02 692.043 252.637C680.918 263.667 714.488 286.405 728.23 304.018C741.973 321.631 741.451 307.144 754.544 306.431C767.637 305.718 759.457 304.048 765.882 306.569C772.306 309.089 778.687 300.793 781.537 295.943C784.387 291.093 789.014 283.648 781.504 269.949C773.995 256.25 757.892 260.59 745.096 251.188Z" fill="#6C837D"/>
<path d="M769.806 313.771C771.848 303.678 702.871 266.029 700.946 266.529C681.195 283.909 700.024 342.406 709.927 345.841C719.829 349.276 726.189 342.724 735.155 337.076C744.12 331.429 767.764 323.865 769.806 313.771Z" fill="#AFAFB1"/>
<path d="M717.07 231.831C704.085 232.231 695.082 237.146 692.203 239.554C691.97 258.741 727.335 248.529 756.403 239.636C785.471 230.743 780.407 216.725 777.238 219.129C774.068 221.533 769.485 225.49 765.389 217.938C761.294 210.387 751.956 217.949 741.394 225.672C730.833 233.394 733.301 231.33 717.07 231.831Z" fill="#C6C9C6"/>
<path d="M211.018 64.2065C189.439 65.6812 176.038 75.5082 172.034 80.2374C161.837 84.7912 149.721 101.232 152.675 105.979C155.629 110.726 181.582 101.618 192.161 101.03C202.739 100.442 221.845 92.1849 235.034 81.8828C245.586 73.6411 259.361 69.5481 264.93 68.5318C263.858 67.9993 258.533 67.5281 245.806 69.9027C229.898 72.871 237.992 62.363 211.018 64.2065Z" fill="#607671"/>
<path d="M144.73 102.403C140.948 108.408 133.365 114.956 130.047 117.479C134.481 120.26 139.329 113.002 146.353 109.614C153.377 106.225 180.777 104.691 196.924 91.3678C213.071 78.0447 218.349 44.7535 228.686 36.693C236.955 30.2446 243.91 13.9769 246.353 6.64907C241.154 12.5389 230.99 17.7501 223.113 20.0122C215.237 22.2743 211.09 32.2685 202.31 36.5038C193.53 40.739 186.447 40.1588 161.67 56.107C136.894 72.0552 149.458 94.8954 144.73 102.403Z" fill="#819F98"/>
<path d="M581.721 281.888C553.16 271.562 538.865 253.121 535.287 245.19C523.281 235.105 513.275 208.232 519.096 202.964C524.917 197.697 556.434 220.016 570.487 224.896C584.539 229.775 607.142 248.3 620.968 267.302C632.028 282.503 649.043 293.348 656.168 296.871C654.516 297.176 647.145 295.756 630.882 287.634C610.553 277.483 617.421 294.794 581.721 281.888Z" fill="#607671"/>
<path d="M516.234 182.007C341.901 110.206 99.4393 108.153 0 116.101C7.85324 126.353 29.2231 123.637 77.7112 122.531C126.199 121.425 301.328 140.324 356.364 145.363C411.4 150.402 529.879 194.976 537.698 199.642C545.518 204.309 741.516 268.936 758.808 276.706C776.1 284.477 854.585 283.546 854.081 281.26C853.577 278.975 878.618 256.676 851.813 270.975C839.813 277.377 814.975 278.204 771.646 269.111C718.191 257.893 636.592 231.578 516.234 182.007Z" fill="#33544B"/>
<path d="M555.434 141.805C552.082 142.545 520.972 164.85 505.835 175.911C507.045 181.396 513.3 181.987 516.276 181.597C528.183 170.983 552.884 149.078 556.442 146.376C560.001 143.674 583.32 139.65 594.534 137.976C606.507 129.477 631.148 112.007 633.927 110.116C636.705 108.225 636.814 103.887 636.521 101.954C624.094 112.018 598.097 132.397 593.526 133.405L555.434 141.805Z" fill="#33544B"/>
<path d="M348.176 185.514C345.073 184.046 329.058 182.14 298.645 139.641C301.047 134.563 304.315 136.002 307.13 137.046C316.37 150.047 327.04 163.916 329.462 167.671C337.961 180.852 366.096 192.262 376.655 196.394C386.432 207.348 406.559 229.872 408.846 232.335C411.133 234.798 410.272 239.05 409.555 240.869C399.684 228.289 378.885 202.627 374.654 200.625C369.364 198.123 352.054 187.348 348.176 185.514Z" fill="#33544B"/>
<path d="M610.595 80.9357C602.525 96.6266 609.696 115.426 614.289 122.864C620.682 115.574 630.271 91.9663 636.478 81.8463C642.685 71.7263 637.133 59.2969 638.115 52.5988C638.901 47.2403 636.082 43.2557 634.574 41.9332C635.84 44.3772 631.39 50.9473 626.601 58.8423C620.614 68.7109 620.682 61.3221 610.595 80.9357Z" fill="#56756E"/>
<path d="M377.123 275.497C361.027 249.272 371.023 215.637 378.034 202.098C390.109 213.934 409.888 253.727 422.014 270.509C434.139 287.292 426.118 309.637 428.707 321.156C430.778 330.371 426.4 337.671 423.951 340.169C425.831 335.752 417.229 324.912 407.862 311.812C396.153 295.438 397.243 308.278 377.123 275.497Z" fill="#56756E"/>
<path d="M625.153 70.4065C611.888 86.1494 615.145 109.397 618.432 119.053C627.601 112.429 644.656 88.0772 654.352 78.185C664.048 68.2927 660.971 52.7105 663.833 45.3487C666.123 39.4593 663.955 34.1932 662.584 32.2964C663.387 35.4056 663.116 43.5569 655.612 51.288C646.232 60.9517 641.734 50.7279 625.153 70.4065Z" fill="#819F98"/>
<path d="M404.603 281.304C377.544 257.709 376.959 216.774 380.048 199.256C397.618 208.228 412.902 200.199 433.045 213.533C489.172 250.686 479.519 290.237 482.486 303.689C484.754 313.974 489.997 334.757 488.141 338.392C488.696 332.819 477.191 317.455 462.197 306.132C443.455 291.978 438.427 310.798 404.603 281.304Z" fill="#819F98"/>
<path d="M507.471 204.895C504.712 195.328 497.039 183.576 493.548 178.895C500.613 176.832 504.321 188.499 512.473 195.768C520.626 203.036 556.984 215.594 573.567 239.784C590.149 263.974 584.281 311.001 595.079 325.853C603.717 337.735 606.752 362.389 607.189 373.23C602.474 363.278 590.797 352.344 581.055 346.272C571.314 340.2 569.619 325.102 559.429 316.017C549.238 306.932 539.458 305.006 512.261 273.965C485.063 242.925 510.919 216.853 507.471 204.895Z" fill="#819F98"/>
<path d="M402.353 69.4305C415.457 90.5149 412.895 133.205 409.976 151.914L407.838 152.385L407.495 140.665C406.959 138.233 404.256 131.496 397.737 124.008C389.589 114.646 385.581 103.734 379.503 93.5979C373.425 83.4614 382.765 77.8948 373.067 64.4121C365.308 53.6259 361.352 35.0088 360.344 27.0485C365.975 39.5153 385.974 43.0751 402.353 69.4305Z" fill="#56756E"/>
<path d="M545.212 138.974C543.169 149.323 533.684 164.163 529.197 170.289C520.235 175.18 524.084 193.575 515.95 188.85C507.815 184.125 510.012 186.736 506.993 183.792C503.973 180.849 520.448 163.441 512.128 157.347C501.647 149.672 504.301 129.89 506.133 120.394C507.965 110.897 533.598 118.012 543.095 119.844C552.591 121.676 547.765 126.038 545.212 138.974Z" fill="#AD927C"/>
<path d="M546.372 190.379C532.912 178.689 518.504 173.622 517.405 172.585C501.489 167.599 527.528 191.079 531.507 192.326C535.486 193.572 534.49 206.092 548.532 215.038C562.575 223.985 574.837 212.424 576.268 202.176C577.698 191.928 559.832 202.069 546.372 190.379Z" fill="#AD927C"/>
<path d="M548.438 195.439C539.499 197.319 521.846 185.071 514.137 178.713C510.134 168.183 538.873 163.28 553.108 155.837C567.343 148.393 562.693 157.722 571.052 162.083C579.412 166.443 573.561 165.104 578.516 165.365C583.471 165.625 585.181 172.954 585.605 176.977C586.028 181 586.843 187.25 577.853 193.985C568.862 200.72 559.611 193.089 548.438 195.439Z" fill="#7A745E"/>
<path d="M583.226 161.816C581.561 169.031 525.207 173.165 524.096 172.265C516.334 155.013 546.059 122.317 553.563 123.013C561.067 123.709 563.282 129.89 567.472 136.254C571.662 142.617 584.892 154.601 583.226 161.816Z" fill="#C4A78F"/>
<path d="M517.926 195.991C510.466 189.58 507.499 182.402 506.948 179.614C515.936 168.198 531.916 191.034 544.814 210.099C557.712 229.164 548.061 235.015 547.337 232.092C546.613 229.168 545.794 224.656 539.789 227.158C533.785 229.66 531.879 220.762 529.329 211.189C526.779 201.616 527.252 204.006 517.926 195.991Z" fill="#C29E80"/>
<path d="M653.331 272.404C661.743 261.282 651.012 241.36 644.595 232.789C653.659 257.952 637.256 279.811 627.922 287.595C632.887 287.165 644.919 283.527 653.331 272.404Z" fill="#465B56"/>
<path d="M875.471 261.762C883.883 250.64 873.151 230.717 866.734 222.147C875.798 247.31 859.395 269.168 850.061 276.952C855.026 276.523 867.059 272.884 875.471 261.762Z" fill="#465B56"/>
<path d="M859.758 256.671C861.139 242.794 841.595 231.387 831.651 227.419C852.503 244.167 849.901 271.371 845.993 282.88C850.006 279.926 858.377 270.548 859.758 256.671Z" fill="#465B56"/>
<path d="M839.789 298.568C830.524 308.991 808.889 302.358 799.23 297.739C825.679 301.713 843.912 281.356 849.722 270.681C850.272 275.634 849.053 288.145 839.789 298.568Z" fill="#465B56"/>
<path d="M520.463 211.307C526.496 201.06 508.52 185.425 502.243 178.795C502.421 199.526 500.645 219.344 493.503 226.853C497.666 226.002 514.43 221.554 520.463 211.307Z" fill="#465B56"/>
<path d="M489.601 144.853C489.105 132.973 467.601 127.492 458.73 125.332C470.134 142.646 479.401 160.253 477.48 170.437C480.514 167.462 490.097 156.734 489.601 144.853Z" fill="#465B56"/>
<path d="M239.983 107.839C239.457 117.289 254.141 127.384 261.549 131.25C276.039 133.225 288.617 149.222 284.94 127.297C281.999 109.757 253.743 107.017 239.983 107.839Z" fill="#22302D"/>
<path d="M219.472 138.845C224.519 126.964 261.205 127.235 278.917 128.856C270.745 137.581 252.535 155.444 245.074 157.093C235.747 159.155 213.163 153.696 219.472 138.845Z" fill="#364844"/>
<path d="M291.116 189.555C305.188 178.524 300.504 145.13 296.402 129.813C276.579 118.065 254.995 133.214 247.751 147.938C240.507 162.662 235.982 153.951 213.377 166.105C190.773 178.259 203.711 177.642 215.184 187.776C226.658 197.909 219.498 194.553 233.138 199.268C246.778 203.984 273.525 203.345 291.116 189.555Z" fill="#819F98"/>
<path d="M340.02 159.085C326.474 152.287 312.124 140.207 306.642 135.016C294.022 133.296 351.538 207.312 361.673 216.787C371.808 226.262 363.584 202.765 365.559 188.275C367.534 173.785 356.954 167.582 340.02 159.085Z" fill="#819F98"/>
<path d="M303.801 222.229C296.951 219.391 303.055 189.277 306.963 174.575C319.048 113.855 352.812 187.49 354.98 203.02C357.148 218.55 345.484 220.293 342.595 227.517C339.706 234.741 330.635 234.932 320.925 229.324C311.216 223.716 312.363 225.777 303.801 222.229Z" fill="#AFAFB1"/>
<path d="M318.417 212.796C327.063 198.263 312.869 169.667 303.01 161.658C281.083 133.913 244.353 190.322 244.736 197.992C245.119 205.662 245.375 214.266 260.077 218.174C274.779 222.083 276.883 227.606 293.964 228.03C311.045 228.454 309.771 227.328 318.417 212.796Z" fill="#465B56"/>
<path d="M313.782 145.512C330.893 160.857 354.933 193.588 314.21 201.748C263.307 211.95 276.112 118.001 313.782 145.512Z" fill="#C6C9C6"/>
<path d="M814.893 313.068C818.543 303.467 824.121 292.933 835.146 284.058C835.302 293.57 834.775 313.861 831.422 318.933C827.229 325.273 804.78 339.664 814.893 313.068Z" fill="#364844"/>
<path d="M875.713 312.014C877.654 297.918 856.495 281.417 845.673 274.928C827.837 279.181 823.879 299.788 827.885 312.216C831.892 324.644 824.483 322.168 818.284 341.627C812.085 361.086 826.155 345.606 838.323 345.05C850.492 344.495 844.03 352.34 854.439 347.488C864.848 342.636 873.286 329.634 875.713 312.014Z" fill="#819F98"/>
<path d="M889.235 257.129C877.727 260.739 859.167 274.606 853.16 274.672C844.991 280.672 920.089 288.729 931.127 288.538C942.166 288.347 924.46 279.463 917.571 270.085C910.681 260.707 903.62 252.616 889.235 257.129Z" fill="#C6C9C6"/>
<path d="M901.048 323.678C895.561 325.846 872.948 306.549 867.046 295.979C840.352 254.572 930.948 278.182 922.141 287.021C915.001 294.187 923.811 299.503 926.157 305.232C928.503 310.961 923.422 316.092 914.766 318.258C906.111 320.425 907.907 320.968 901.048 323.678Z" fill="#AFAFB1"/>
<path d="M904.184 310.195C901.086 297.1 877.144 288.604 867.075 289.481C839.182 285.751 849.398 338.332 853.862 342.506C858.325 346.679 865.884 344.54 876.454 338.638C887.023 332.737 891.593 342.305 901.594 333.094C911.596 323.884 907.283 323.289 904.184 310.195Z" fill="#465B56"/>
<path d="M864.299 274.287C882.575 273.592 892.74 269.121 891.574 302.15C889.757 353.68 827.535 279.404 864.299 274.287Z" fill="#C6C9C6"/>
</svg>
