<svg width="1875" height="758" viewBox="0 0 1875 758" fill="none" xmlns="http://www.w3.org/2000/svg">
<path d="M250.729 338.594C281.688 331.09 311.636 351.648 322.74 362.865C307.236 370.991 261.739 377.802 241.346 384.402C220.953 391.002 201.496 375.985 189.325 374.867C179.588 373.973 173.792 367.335 172.111 364.128C175.863 367.385 189.28 362.364 205.167 357.309C225.025 350.989 212.03 347.974 250.729 338.594Z" fill="#56756E"/>
<path d="M236.256 363.815C268.116 344.674 308.625 357.133 324.897 365.755C310.464 380.205 313.507 397.818 293.957 413.413C239.485 456.87 203.599 434.766 189.404 433.405C178.551 432.364 156.408 430.91 153.419 427.925C158.732 430.245 177.529 423.806 193.458 412.642C213.369 398.687 196.432 387.741 236.256 363.815Z" fill="#819F98"/>
<path d="M1632.04 338.594C1601.09 331.09 1571.14 351.648 1560.03 362.865C1575.54 370.991 1621.03 377.802 1641.43 384.402C1661.82 391.002 1681.28 375.985 1693.45 374.867C1703.18 373.973 1708.98 367.335 1710.66 364.128C1706.91 367.385 1693.49 362.364 1677.61 357.309C1657.75 350.989 1670.74 347.974 1632.04 338.594Z" fill="#56756E"/>
<path d="M1646.52 363.815C1614.66 344.674 1574.15 357.133 1557.88 365.755C1572.31 380.205 1569.27 397.818 1588.82 413.413C1643.29 456.87 1679.17 434.766 1693.37 433.405C1704.22 432.364 1726.36 430.91 1729.35 427.925C1724.04 430.245 1705.24 423.806 1689.31 412.642C1669.4 398.687 1686.34 387.741 1646.52 363.815Z" fill="#819F98"/>
<path d="M1232.53 304.769C1191.4 325.091 1176.49 431.31 1174.18 481.879C1233.17 547.73 1273.32 501.441 1268.74 451.575C1264.16 401.708 1309.18 355.21 1327.78 347.697C1346.38 340.184 1373.72 265.75 1367.12 225.738C1361.84 193.728 1378.86 176.8 1388.03 172.337C1362.54 175.871 1347.95 205.802 1334.95 230.169C1321.96 254.536 1283.95 279.365 1232.53 304.769Z" fill="#819F98"/>
<path d="M651.465 304.769C692.599 325.091 707.502 431.31 709.812 481.879C650.822 547.73 610.679 501.441 615.258 451.575C619.837 401.708 574.82 355.21 556.215 347.697C537.611 340.184 510.275 265.75 516.874 225.738C522.153 193.728 505.132 176.8 495.962 172.337C521.453 175.871 536.044 205.802 549.041 230.169C562.039 254.536 600.049 279.365 651.465 304.769Z" fill="#819F98"/>
<path d="M1386.61 329.738C1360.89 333.796 1334.87 388.82 1325.07 415.825C1345.9 461.468 1375.47 443.176 1381.42 415.387C1387.36 387.599 1419.61 370.017 1430.96 369.091C1442.3 368.165 1469.69 332.461 1472.88 309.67C1475.43 291.437 1487.51 285.143 1493.23 284.275C1478.83 281.882 1465.86 295.63 1454.7 306.634C1443.55 317.638 1418.76 324.665 1386.61 329.738Z" fill="#465B56"/>
<path d="M497.385 329.738C523.103 333.796 549.127 388.82 558.925 415.825C538.097 461.468 508.527 443.176 502.58 415.387C496.634 387.599 464.388 370.017 453.039 369.091C441.691 368.165 414.303 332.461 411.116 309.67C408.566 291.437 396.484 285.143 390.762 284.275C405.169 281.882 418.131 295.63 429.291 306.634C440.45 317.638 465.238 324.665 497.385 329.738Z" fill="#465B56"/>
<path d="M1468.61 45.738C1442.89 49.796 1416.87 104.82 1407.07 131.825C1427.9 177.468 1457.47 159.176 1463.42 131.387C1469.36 103.599 1501.61 86.0171 1512.96 85.0911C1524.3 84.1651 1551.69 48.4611 1554.88 25.67C1557.43 7.43718 1569.51 1.14277 1575.23 0.274658C1560.83 -2.11847 1547.86 11.6301 1536.7 22.6342C1525.55 33.6383 1500.76 40.6654 1468.61 45.738Z" fill="#465B56"/>
<path d="M415.385 45.738C441.103 49.796 467.127 104.82 476.925 131.825C456.097 177.468 426.527 159.176 420.58 131.387C414.634 103.599 382.388 86.0171 371.039 85.0911C359.691 84.1651 332.303 48.4611 329.116 25.67C326.566 7.43718 314.484 1.14277 308.762 0.274658C323.169 -2.11847 336.131 11.6301 347.291 22.6342C358.45 33.6383 383.238 40.6654 415.385 45.738Z" fill="#465B56"/>
<path d="M1555.45 363.178C1529.6 366.58 1485.31 385.559 1466.39 394.622C1435.77 402.906 1444.91 390.101 1447.11 377.437C1449.31 364.772 1524.02 341.791 1543.17 346.232C1562.31 350.674 1575.33 326.144 1587.23 328.445C1599.14 330.745 1587.76 358.926 1555.45 363.178Z" fill="#717371"/>
<path d="M1440.6 476.249C1428.32 465.761 1436.21 430.126 1441.69 413.62C1475.17 386.254 1558.54 454.061 1562.9 466.895C1567.27 479.729 1553.85 483.034 1534.18 492.585C1514.52 502.136 1529.05 533.736 1499.89 538.44C1470.74 543.145 1455.94 489.358 1440.6 476.249Z" fill="#6C837D"/>
<path d="M1590.28 455.906C1567.52 472.671 1494.82 453.836 1461.31 442.323C1435.52 434.611 1443.67 402.433 1450.97 387.309L1587.75 361.577C1606.59 358.033 1607.12 377.44 1601.89 387.006C1596.67 396.572 1618.72 434.95 1590.28 455.906Z" fill="#AFAFB1"/>
<path d="M1522.93 501.373C1518.57 483.421 1492.17 456.565 1479.51 445.381C1466.01 432.402 1482.55 408.313 1493.96 410.737C1505.37 413.161 1543.4 430.328 1550.26 436.32C1557.12 442.313 1570.91 449.729 1559.19 452.422C1547.48 455.114 1505.57 426.714 1500.73 423.582C1495.88 420.45 1494.9 428.553 1507.64 436.823C1520.39 445.093 1543.93 466.022 1548.51 471.986C1553.08 477.95 1569.64 490.206 1552.93 483.463C1539.56 478.068 1506.37 451.25 1491.45 438.515C1501.84 449.357 1523.05 473.061 1524.71 481.148C1526.78 491.257 1535.98 510.435 1537.14 518.169C1538.3 525.904 1528.38 523.813 1522.93 501.373Z" fill="#3B4B17"/>
<path d="M1561.25 442.641C1557.3 443.385 1554.7 447.193 1555.44 451.147C1556.18 455.101 1559.99 457.704 1563.95 456.96C1567.9 456.216 1570.5 452.408 1569.76 448.454C1569.01 444.5 1565.21 441.897 1561.25 442.641Z" fill="#7A745E"/>
<path d="M1560.09 477.969C1556.14 478.713 1553.54 482.522 1554.28 486.476C1555.03 490.43 1558.83 493.032 1562.79 492.288C1566.74 491.544 1569.34 487.736 1568.6 483.782C1567.86 479.828 1564.05 477.226 1560.09 477.969Z" fill="#AD927C"/>
<path d="M1533.64 515.718C1529.69 516.462 1527.09 520.27 1527.83 524.224C1528.58 528.178 1532.38 530.781 1536.34 530.037C1540.29 529.293 1542.89 525.485 1542.15 521.531C1541.41 517.577 1537.6 514.974 1533.64 515.718Z" fill="#7A745E"/>
<path d="M1454.34 479.918C1453.24 455.781 1439.6 425.731 1432.92 413.723C1405.29 455.593 1433.59 506.451 1438.92 520.274C1444.25 534.096 1482.25 551.526 1484.34 533.578C1486.42 515.629 1455.73 510.089 1454.34 479.918Z" fill="#4C5E59"/>
<path d="M1481.13 464.336C1429.94 453.458 1422.91 419.667 1425.79 404.131C1424.62 351.631 1466.54 386.791 1492.98 365.373C1519.42 343.954 1577.19 355.336 1569.78 367.371C1562.37 379.405 1571.14 395.168 1576.54 403.34C1581.95 411.513 1559.92 430.652 1536.74 435.98C1513.56 441.308 1545.11 477.934 1481.13 464.336Z" fill="#C6C9C6"/>
<path d="M1423.25 462.962C1436.41 455.816 1439.96 420.989 1440.09 404.469C1420.05 383.738 1407.53 399.339 1409.64 415.543C1411.74 431.747 1397.64 447.478 1391.66 450.163C1385.69 452.847 1377.69 477.465 1380.34 490.43C1382.46 500.803 1377.12 506.538 1374.18 508.109C1382.45 506.635 1386.84 496.69 1390.77 488.58C1394.71 480.47 1406.8 471.894 1423.25 462.962Z" fill="#6C837D"/>
<path d="M328.545 363.178C354.394 366.58 398.69 385.559 417.607 394.622C448.228 402.906 439.085 390.101 436.885 377.437C434.684 364.772 359.977 341.791 340.83 346.232C321.683 350.674 308.668 326.144 296.764 328.445C284.859 330.745 296.233 358.926 328.545 363.178Z" fill="#717371"/>
<path d="M443.398 476.249C455.671 465.761 447.784 430.126 442.306 413.62C408.829 386.254 325.457 454.061 321.092 466.895C316.727 479.729 330.151 483.034 349.812 492.585C369.473 502.136 354.945 533.736 384.101 538.44C413.257 543.145 428.057 489.358 443.398 476.249Z" fill="#6C837D"/>
<path d="M293.719 455.906C316.471 472.671 389.174 453.836 422.681 442.323C448.477 434.611 440.329 402.433 433.031 387.309L296.249 361.577C277.409 358.033 276.879 377.44 282.102 387.006C287.325 396.572 265.28 434.95 293.719 455.906Z" fill="#AFAFB1"/>
<path d="M361.064 501.373C365.425 483.421 391.826 456.565 404.481 445.381C417.984 432.402 401.446 408.313 390.038 410.737C378.629 413.161 340.595 430.328 333.734 436.32C326.872 442.313 313.087 449.729 324.802 452.422C336.518 455.114 378.421 426.714 383.27 423.582C388.12 420.45 389.099 428.553 376.351 436.823C363.603 445.093 340.061 466.022 335.488 471.986C330.914 477.95 314.354 490.206 331.069 483.463C344.441 478.068 377.628 451.25 392.55 438.515C382.152 449.357 360.942 473.061 359.286 481.148C357.216 491.257 348.011 510.435 346.855 518.169C345.699 525.904 355.612 523.813 361.064 501.373Z" fill="#3B4B17"/>
<path d="M322.743 442.641C326.697 443.385 329.3 447.193 328.556 451.147C327.812 455.101 324.004 457.704 320.05 456.96C316.096 456.216 313.493 452.408 314.237 448.454C314.981 444.5 318.789 441.897 322.743 442.641Z" fill="#7A745E"/>
<path d="M323.901 477.969C327.855 478.713 330.457 482.522 329.714 486.476C328.97 490.43 325.161 493.032 321.207 492.288C317.253 491.544 314.651 487.736 315.395 483.782C316.139 479.828 319.947 477.226 323.901 477.969Z" fill="#AD927C"/>
<path d="M350.352 515.718C354.306 516.462 356.908 520.27 356.164 524.224C355.421 528.178 351.612 530.781 347.658 530.037C343.704 529.293 341.102 525.485 341.846 521.531C342.59 517.577 346.398 514.974 350.352 515.718Z" fill="#7A745E"/>
<path d="M429.652 479.918C430.76 455.781 444.398 425.731 451.078 413.723C478.705 455.593 450.41 506.451 445.079 520.274C439.748 534.096 401.746 551.526 399.66 533.578C397.575 515.629 428.268 510.089 429.652 479.918Z" fill="#4C5E59"/>
<path d="M402.866 464.336C454.052 453.458 461.086 419.667 458.204 404.131C459.375 351.631 417.454 386.791 391.013 365.373C364.573 343.954 306.811 355.336 314.219 367.371C321.628 379.405 312.859 395.168 307.453 403.34C302.046 411.513 324.079 430.652 347.26 435.98C370.44 441.308 338.883 477.934 402.866 464.336Z" fill="#C6C9C6"/>
<path d="M460.743 462.962C447.581 455.816 444.032 420.989 443.902 404.469C463.95 383.738 476.469 399.339 474.36 415.543C472.252 431.747 486.358 447.478 492.332 450.163C498.305 452.847 506.301 477.465 503.656 490.43C501.539 500.803 506.881 506.538 509.816 508.109C501.547 506.635 497.159 496.69 493.221 488.58C489.283 480.47 477.196 471.894 460.743 462.962Z" fill="#6C837D"/>
<path fill-rule="evenodd" clip-rule="evenodd" d="M1874.09 116H0.904297L98.2578 189.691L123.003 157H1752L1776.74 189.691L1874.09 116ZM1694.52 198C1730.97 172.917 1752 157 1752 157C1776.74 189.691 1776.73 189.696 1776.72 189.703L1776.61 189.79L1776.31 190.017L1775.99 190.26C1775.77 190.422 1775.51 190.618 1775.2 190.847C1774.24 191.565 1772.84 192.608 1771.02 193.954C1767.38 196.646 1762.04 200.554 1755.16 205.502C1741.39 215.397 1721.42 229.465 1696.41 246.316C1646.42 279.992 1576.08 324.916 1494.63 369.892C1333.63 458.794 1122.1 552 937.5 552C752.902 552 541.374 458.794 380.373 369.892C298.924 324.916 228.576 279.992 178.588 246.316C153.575 229.465 133.609 215.397 119.844 205.502C112.96 200.554 107.624 196.646 103.979 193.954C102.157 192.608 100.757 191.565 99.7971 190.847C99.3174 190.488 98.9477 190.211 98.6904 190.017C98.5618 189.92 98.4612 189.844 98.389 189.79L98.2746 189.703C98.2653 189.696 98.2578 189.691 123.003 157C123.003 157 144.03 172.917 180.475 198C315.903 291.21 664.217 511 937.5 511C1210.78 511 1559.1 291.21 1694.52 198Z" fill="#CDBD82"/>
<path d="M1205.34 672.131C1224.3 660.568 1232.23 602.08 1233.82 574.281C1235.88 553.223 1210.05 549.577 1196.88 550.387C1179.8 576.785 1133.71 613.881 1127.17 624.002C1118.98 636.652 1143.25 661.039 1151.76 660.085C1160.27 659.132 1181.63 686.585 1205.34 672.131Z" fill="#AFAFB1"/>
<path d="M1073.51 465.727C1032.31 489.309 984.456 488.107 965.681 484.559C933.905 495.768 982.94 514.599 1038.91 489.313C1094.87 464.027 1102.63 465.972 1116.96 461.029C1131.29 456.087 1142.27 466.29 1157.26 472.95C1172.26 479.61 1176.28 476.066 1179.8 477.688C1183.32 479.309 1185.89 478.36 1185.26 489.24C1184.63 500.119 1179.68 521.18 1188.41 528.09C1197.15 535.001 1199.66 546.953 1202.13 554.114C1204.6 561.274 1193.09 571.532 1205.24 570.482C1217.4 569.432 1212.17 544.056 1199.52 532.58C1186.87 521.104 1189.5 507.255 1192.25 487.692C1195 468.128 1201.74 478.009 1217.43 480.975C1233.13 483.942 1237.37 484.266 1254.32 483.165C1271.27 482.065 1289.32 462.524 1263.19 466.67C1237.05 470.817 1234.51 474.161 1182.25 464.762C1129.99 455.363 1125.01 436.25 1073.51 465.727Z" fill="#33544B"/>
<path d="M1142.04 616.616C1156.06 601.677 1185.39 574.841 1197.61 563.777C1212.75 543.967 1200.71 546.809 1190.84 544.642C1180.98 542.475 1152.9 578.329 1138.34 580.433C1123.05 582.643 1117.82 602.992 1115.96 612.336C1114.09 621.68 1130.54 628.871 1142.04 616.616Z" fill="#687F79"/>
<path d="M1264.66 569.302C1260.68 557.255 1232.41 552.392 1218.78 551.467C1188.91 567.677 1213.44 648.495 1221.47 655.488C1229.51 662.481 1235.91 653.7 1248.7 642.239C1261.5 630.778 1280.16 650.746 1292.26 630.937C1304.36 611.128 1269.63 584.362 1264.66 569.302Z" fill="#6C837D"/>
<path d="M1258.44 636.668C1246.68 628.155 1235 600.961 1230.63 588.428C1225.21 574.746 1202.76 579.609 1201.13 588.629C1199.5 597.649 1200.68 630.422 1202.99 637.196C1205.31 643.97 1206.61 656.204 1212.05 648.483C1217.49 640.762 1209.3 601.832 1208.46 597.373C1207.63 592.914 1213.81 594.612 1216.04 606.345C1218.26 618.078 1226.48 641.429 1229.46 646.53C1232.44 651.631 1236.43 667.323 1236.49 653.158C1236.55 641.827 1226.91 609.708 1222.09 595.065C1226.88 605.854 1237.81 628.334 1243.2 631.944C1249.94 636.457 1261.15 648.858 1266.43 652C1271.72 655.142 1273.15 647.308 1258.44 636.668Z" fill="#3B4B17"/>
<path d="M1204.32 647.07C1206.04 644.415 1209.58 643.655 1212.24 645.372C1214.89 647.089 1215.65 650.634 1213.94 653.289C1212.22 655.944 1208.67 656.704 1206.02 654.986C1203.36 653.269 1202.6 649.725 1204.32 647.07Z" fill="#7A745E"/>
<path d="M1230.37 656.739C1232.08 654.084 1235.63 653.324 1238.28 655.042C1240.94 656.759 1241.7 660.303 1239.98 662.958C1238.26 665.613 1234.72 666.373 1232.06 664.656C1229.41 662.939 1228.65 659.394 1230.37 656.739Z" fill="#C6C9C6"/>
<path d="M1265.69 648.728C1267.41 646.073 1270.95 645.313 1273.61 647.031C1276.26 648.748 1277.02 652.292 1275.31 654.947C1273.59 657.602 1270.05 658.362 1267.39 656.645C1264.74 654.928 1263.98 651.383 1265.69 648.728Z" fill="#7A745E"/>
<path d="M1263.24 580.392C1246.01 572.406 1228.21 553.546 1221.46 545.115C1260.14 537.474 1288.72 573.185 1297.19 581.175C1305.65 589.166 1307.03 621.994 1293.35 618.172C1279.68 614.349 1284.78 590.374 1263.24 580.392Z" fill="#4C5E59"/>
<path d="M1243.94 595.242C1251.25 554.773 1228.77 539.604 1216.61 537.078C1178.77 520.609 1191.87 561.563 1168.43 574.425C1144.98 587.286 1136.08 632.69 1147.03 630.88C1157.99 629.071 1166.85 640.139 1171.19 646.503C1175.52 652.867 1196 642.533 1206.77 627.256C1217.54 611.979 1234.8 645.83 1243.94 595.242Z" fill="#C6C9C6"/>
<path d="M678.659 672.131C659.696 660.568 651.77 602.08 650.177 574.281C648.113 553.223 673.943 549.577 687.116 550.387C704.191 576.785 750.284 613.881 756.831 624.002C765.014 636.652 740.747 661.039 732.235 660.085C723.723 659.132 702.363 686.585 678.659 672.131Z" fill="#AFAFB1"/>
<path d="M810.489 465.727C851.689 489.309 899.54 488.107 918.315 484.559C950.091 495.768 901.056 514.599 845.09 489.313C789.124 464.027 781.363 465.972 767.035 461.029C752.707 456.087 741.73 466.29 726.733 472.95C711.736 479.61 707.716 476.066 704.198 477.688C700.679 479.309 698.108 478.36 698.736 489.24C699.365 500.119 704.315 521.18 695.582 528.09C686.85 535.001 684.334 546.953 681.866 554.114C679.398 561.274 690.908 571.532 678.753 570.482C666.598 569.432 671.829 544.056 684.478 532.58C697.127 521.104 694.501 507.255 691.747 487.692C688.994 468.128 682.26 478.009 666.562 480.975C650.865 483.942 646.622 484.266 629.675 483.165C612.728 482.065 594.676 462.524 620.808 466.67C646.941 470.817 649.488 474.161 701.746 464.762C754.005 455.363 758.989 436.25 810.489 465.727Z" fill="#33544B"/>
<path d="M741.956 616.616C727.931 601.677 698.605 574.841 686.384 563.777C671.249 543.967 683.284 546.809 693.151 544.642C703.018 542.475 731.097 578.329 745.659 580.433C760.947 582.643 766.172 602.992 768.04 612.336C769.908 621.68 753.459 628.871 741.956 616.616Z" fill="#687F79"/>
<path d="M619.335 569.302C623.313 557.255 651.581 552.392 665.218 551.467C695.082 567.677 670.56 648.495 662.523 655.488C654.486 662.481 648.088 653.7 635.292 642.239C622.495 630.778 603.831 650.746 591.735 630.937C579.64 611.128 614.363 584.362 619.335 569.302Z" fill="#6C837D"/>
<path d="M625.552 636.668C637.313 628.155 648.995 600.961 653.366 588.428C658.79 574.746 681.233 579.609 682.863 588.629C684.493 597.649 683.32 630.422 681.003 637.196C678.685 643.97 677.391 656.204 671.947 648.483C666.503 640.762 674.697 601.832 675.532 597.373C676.368 592.914 670.183 594.612 667.959 606.345C665.736 618.078 657.515 641.429 654.537 646.53C651.559 651.631 647.57 667.323 647.503 653.158C647.449 641.827 657.085 609.708 661.909 595.065C657.116 605.854 646.183 628.334 640.793 631.944C634.055 636.457 622.843 648.858 617.561 652C612.279 655.142 610.85 647.308 625.552 636.668Z" fill="#3B4B17"/>
<path d="M679.675 647.07C677.957 644.415 674.413 643.655 671.758 645.372C669.103 647.089 668.343 650.634 670.06 653.289C671.778 655.944 675.322 656.704 677.977 654.986C680.632 653.269 681.392 649.725 679.675 647.07Z" fill="#7A745E"/>
<path d="M653.63 656.739C651.913 654.084 648.369 653.324 645.714 655.042C643.059 656.759 642.299 660.303 644.016 662.958C645.733 665.613 649.278 666.373 651.933 664.656C654.587 662.939 655.348 659.394 653.63 656.739Z" fill="#C6C9C6"/>
<path d="M618.303 648.728C616.585 646.073 613.041 645.313 610.386 647.031C607.731 648.748 606.971 652.292 608.688 654.947C610.406 657.602 613.95 658.362 616.605 656.645C619.26 654.928 620.02 651.383 618.303 648.728Z" fill="#7A745E"/>
<path d="M620.754 580.392C637.982 572.406 655.785 553.546 662.532 545.115C623.857 537.474 595.279 573.185 586.81 581.175C578.341 589.166 576.967 621.994 590.643 618.172C604.32 614.349 599.219 590.374 620.754 580.392Z" fill="#4C5E59"/>
<path d="M640.056 595.242C632.742 554.773 655.23 539.604 667.388 537.078C705.229 520.609 692.124 561.563 715.57 574.425C739.016 587.286 747.919 632.69 736.961 630.88C726.003 629.071 717.145 640.139 712.809 646.503C708.472 652.867 687.996 642.533 677.225 627.256C666.453 611.979 649.198 645.83 640.056 595.242Z" fill="#C6C9C6"/>
<path d="M1291.5 351.772C1264.25 354.627 1233.89 411.023 1222.12 438.864C1241.5 487.969 1273.58 470.367 1281.35 441.491C1289.12 412.616 1323.97 395.907 1335.95 395.556C1347.92 395.204 1378.66 359.185 1383.26 335.41C1386.94 316.389 1399.98 310.437 1406.04 309.838C1391.03 306.534 1376.65 320.271 1364.32 331.224C1352 342.176 1325.56 348.203 1291.5 351.772Z" fill="#819F98"/>
<path d="M592.493 351.772C619.741 354.627 650.104 411.023 661.879 438.864C642.492 487.969 610.417 470.367 602.645 441.491C594.874 412.616 560.025 395.907 548.049 395.556C536.073 395.204 505.335 359.185 500.738 335.41C497.06 316.389 484.019 310.437 477.958 309.838C492.966 306.534 507.341 320.271 519.671 331.224C532.001 342.176 558.433 348.203 592.493 351.772Z" fill="#819F98"/>
<path d="M1443.73 375.66C1332.09 470.473 1153.41 530.058 1078.02 548C1081.37 538.543 1097.81 535.432 1133.91 524.637C1170.01 513.842 1294.9 457.933 1334.36 441.028C1373.83 424.123 1450.71 362.809 1455.37 357.487C1460.03 352.166 1589.39 257.467 1600.31 247.583C1611.23 237.699 1678 216.607 1678.17 218.417C1678.35 220.227 1667.72 226.642 1653.18 230.543C1642.97 233.28 1641.46 233.024 1611.62 250.121C1574.8 271.213 1520.8 310.202 1443.73 375.66Z" fill="#33544B"/>
<path d="M440.266 375.66C551.901 470.473 730.588 530.058 805.976 548C802.628 538.543 786.185 535.432 750.088 524.637C713.99 513.842 589.097 457.933 549.632 441.028C510.168 424.123 433.288 362.809 428.627 357.487C423.966 352.166 294.602 257.467 283.684 247.583C272.767 237.699 206 216.607 205.825 218.417C205.65 220.227 216.28 226.642 230.82 230.543C241.025 233.28 242.536 233.024 272.378 250.121C309.194 271.213 363.193 310.202 440.266 375.66Z" fill="#33544B"/>
<path d="M1413.56 164.471C1268.69 186.003 1085.49 142.205 1012 117.614C1019.84 111.353 1035.44 117.397 1071.8 127.3C1108.15 137.203 1243.73 155.707 1286.17 162.201C1328.61 168.694 1426.27 157.245 1433.04 155.189C1439.81 153.133 1599.68 141.062 1614.17 138.437C1628.66 135.812 1696.49 153.173 1695.68 154.802C1694.88 156.431 1682.46 156.263 1668.06 151.894C1657.94 148.828 1656.8 147.813 1622.43 146.565C1580.02 145.025 1513.58 149.605 1413.56 164.471Z" fill="#33544B"/>
<path d="M470.437 164.471C615.31 186.003 798.506 142.205 871.996 117.614C864.157 111.353 848.552 117.397 812.2 127.3C775.847 137.203 640.268 155.707 597.829 162.201C555.39 168.694 457.723 157.245 450.955 155.189C444.186 153.133 284.319 141.062 269.828 138.437C255.337 135.812 187.504 153.173 188.312 154.802C189.119 156.431 201.534 156.263 215.94 151.894C226.051 148.828 227.199 147.813 261.569 146.565C303.971 145.025 370.417 149.605 470.437 164.471Z" fill="#33544B"/>
<path d="M1727 240.659C1713.07 221.623 1711.85 203.538 1712.98 196.875C1709.61 185.169 1714.81 163.508 1720.84 162.636C1726.88 161.763 1737.52 189.813 1744.47 199.05C1751.41 208.287 1757.95 230.027 1758.63 248.27C1759.17 262.863 1765.43 277.231 1768.5 282.59C1767.3 282.07 1763.17 277.96 1756.2 265.675C1747.5 250.318 1744.42 264.455 1727 240.659Z" fill="#607671"/>
<path d="M156.992 240.659C170.928 221.623 172.149 203.538 171.018 196.875C174.386 185.169 169.187 163.508 163.151 162.636C157.115 161.763 146.473 189.813 139.529 199.05C132.585 208.287 126.045 230.027 125.369 248.27C124.828 262.863 118.561 277.231 115.495 282.59C116.692 282.07 120.828 277.96 127.791 265.675C136.496 250.318 139.573 264.455 156.992 240.659Z" fill="#607671"/>
<path d="M1750.18 221.565C1751.27 210.221 1746.04 191.926 1743.29 184.197C1735.52 176.364 1745.19 158.511 1735.31 160.887C1725.43 163.264 1728.51 161.24 1724.48 163.354C1720.44 165.467 1721.25 174.053 1717.23 184.443C1713.2 194.832 1705.02 218.319 1703.98 228.716C1702.94 239.113 1731.68 239.673 1742.08 240.713C1752.47 241.754 1748.83 235.745 1750.18 221.565Z" fill="#465B56"/>
<path d="M1783.79 176.909C1764.53 176.801 1749.23 170.642 1747.6 170.7C1731.12 163.4 1769 162.905 1773.12 164.73C1777.23 166.555 1785.35 155.683 1803.13 158.433C1820.91 161.183 1822.62 179.309 1816.47 188.648C1810.33 197.986 1803.05 177.016 1783.79 176.909Z" fill="#AFAFB1"/>
<path d="M1777.5 172.403C1769.76 166.28 1746.79 169.622 1736.27 172.058C1727.33 180.313 1752.76 198.896 1762.94 212.95C1773.12 227.004 1773.12 215.743 1783.3 215.552C1793.49 215.361 1787.18 213.838 1792.1 215.973C1797.02 218.108 1802.2 211.844 1804.55 208.157C1806.9 204.471 1810.69 198.819 1805.24 187.976C1799.79 177.133 1787.17 180.056 1777.5 172.403Z" fill="#6C837D"/>
<path d="M1794.95 221.673C1796.81 213.893 1744.3 182.755 1742.8 183.089C1726.98 196.036 1739.98 241.971 1747.57 244.912C1755.16 247.853 1760.28 242.942 1767.4 238.806C1774.52 234.67 1793.08 229.452 1794.95 221.673Z" fill="#AFAFB1"/>
<path d="M1756.27 156.599C1746.18 156.551 1739.06 160.117 1736.76 161.906C1736.04 176.796 1763.78 169.847 1786.59 163.749C1809.41 157.65 1805.86 146.627 1803.34 148.405C1800.81 150.183 1797.14 153.128 1794.17 147.152C1791.2 141.177 1783.74 146.789 1775.33 152.491C1766.92 158.194 1768.89 156.66 1756.27 156.599Z" fill="#C6C9C6"/>
<path d="M133.814 221.565C132.728 210.221 137.958 191.926 140.709 184.197C148.474 176.364 138.801 158.511 148.683 160.887C158.565 163.264 155.483 161.24 159.519 163.354C163.555 165.467 162.744 174.053 166.769 184.443C170.793 194.832 178.972 218.319 180.012 228.716C181.052 239.113 152.317 239.673 141.92 240.713C131.524 241.754 135.171 235.745 133.814 221.565Z" fill="#465B56"/>
<path d="M100.202 176.909C119.462 176.801 134.77 170.642 136.401 170.7C152.874 163.4 114.999 162.905 110.88 164.73C106.762 166.555 98.6442 155.683 80.8674 158.433C63.0906 161.183 61.3801 179.309 67.525 188.648C73.67 197.986 80.9425 177.016 100.202 176.909Z" fill="#AFAFB1"/>
<path d="M106.499 172.403C114.237 166.28 137.208 169.622 147.726 172.058C156.669 180.313 131.237 198.896 121.056 212.95C110.875 227.004 110.878 215.743 100.694 215.552C90.5097 215.361 96.8134 213.838 91.8958 215.973C86.9781 218.108 81.7947 211.844 79.4476 208.157C77.1005 204.471 73.3026 198.819 78.7533 187.976C84.2039 177.133 96.8254 180.056 106.499 172.403Z" fill="#6C837D"/>
<path d="M89.0489 221.673C87.1842 213.893 139.691 182.755 141.199 183.089C157.014 196.036 144.016 241.971 136.424 244.912C128.831 247.853 123.712 242.942 116.596 238.806C109.479 234.67 90.9135 229.452 89.0489 221.673Z" fill="#AFAFB1"/>
<path d="M127.721 156.599C137.813 156.551 144.939 160.117 147.24 161.906C147.953 176.796 120.215 169.847 97.4018 163.749C74.5888 157.65 78.1315 146.627 80.6586 148.405C83.1858 150.183 86.8541 153.128 89.8242 147.152C92.7944 141.177 100.254 146.789 108.667 152.491C117.08 158.194 115.107 156.66 127.721 156.599Z" fill="#C6C9C6"/>
<path d="M1701.44 267.861C1695.13 282.553 1677.85 288.383 1670 289.461C1671.41 280.787 1682.38 260.467 1685.88 250.29C1689.37 240.113 1701.27 236.826 1705.38 232.275C1708.68 228.635 1713.09 228.308 1714.88 228.6C1712.44 229.124 1706.88 232.15 1704.12 240.052C1700.67 249.93 1709.34 249.496 1701.44 267.861Z" fill="#819F98"/>
<path d="M182.551 267.861C188.867 282.553 206.146 288.383 213.996 289.461C212.587 280.787 201.612 260.467 198.117 250.29C194.622 240.113 182.729 236.826 178.613 232.275C175.319 228.635 170.907 228.308 169.113 228.6C171.552 229.124 177.119 232.15 179.876 240.052C183.322 249.93 174.656 249.496 182.551 267.861Z" fill="#819F98"/>
<path d="M1710.61 168.85C1703.49 165.841 1692.64 164.731 1688.11 164.552C1690.31 159.277 1699.17 162.74 1707.54 161.369C1715.92 159.997 1741.27 144.177 1763.98 145.984C1786.69 147.791 1812.22 174.315 1826.47 175.052C1837.86 175.642 1854.24 185.857 1861 190.891C1852.68 188.875 1840.37 190.583 1831.95 193.499C1823.52 196.415 1813.57 190.06 1803.11 191.774C1792.64 193.489 1786.7 198.454 1754.66 199.709C1722.63 200.965 1719.52 172.611 1710.61 168.85Z" fill="#819F98"/>
<path d="M173.384 168.85C180.509 165.841 191.356 164.731 195.889 164.552C193.682 159.277 184.825 162.74 176.452 161.369C168.079 159.997 142.728 144.177 120.016 145.984C97.3052 147.791 71.7736 174.315 57.5282 175.052C46.1318 175.642 29.7608 185.857 22.9998 190.891C31.3135 188.875 43.6231 190.583 52.0502 193.499C60.4773 196.415 70.4228 190.06 80.8891 191.774C91.3553 193.489 97.2973 198.454 129.333 199.709C161.368 200.965 164.477 172.611 173.384 168.85Z" fill="#819F98"/>
<path d="M1667.01 154.899C1685.78 166.247 1681.7 201.602 1677.32 217.86C1675.91 175.821 1639.21 153.443 1621.04 147.509C1628.54 145.244 1648.24 143.551 1667.01 154.899Z" fill="#465B56"/>
<path d="M216.987 154.899C198.22 166.247 202.292 201.602 206.674 217.86C208.09 175.821 244.785 153.443 262.955 147.509C255.452 145.244 235.754 143.551 216.987 154.899Z" fill="#465B56"/>
<path d="M1715.21 196.673C1712.2 207.081 1694.82 209.676 1686.5 209.672C1706.37 203.602 1712.34 183.227 1712.83 173.799C1714.88 177.087 1718.21 186.265 1715.21 196.673Z" fill="#465B56"/>
<path d="M168.787 196.673C171.792 207.081 189.178 209.676 197.496 209.672C177.625 203.602 171.66 183.227 171.161 173.799C169.118 177.087 165.783 186.265 168.787 196.673Z" fill="#465B56"/>
<path d="M1704.73 189.269C1696.74 196.585 1680.55 189.735 1673.45 185.396C1693.58 190.575 1709.29 176.297 1714.63 168.512C1714.66 172.383 1712.72 181.954 1704.73 189.269Z" fill="#465B56"/>
<path d="M179.267 189.269C187.257 196.585 203.446 189.735 210.542 185.396C190.421 190.575 174.709 176.297 169.368 168.512C169.338 172.383 171.277 181.954 179.267 189.269Z" fill="#465B56"/>
<path d="M1721.5 157.352C1723.68 146.739 1709.48 136.366 1702.12 132.507C1716.89 147.111 1712.71 167.925 1708.78 176.507C1712.11 174.544 1719.33 167.964 1721.5 157.352Z" fill="#465B56"/>
<path d="M162.493 157.352C160.32 146.739 174.513 136.366 181.881 132.507C167.102 147.111 171.282 167.925 175.219 176.507C171.883 174.544 164.666 167.964 162.493 157.352Z" fill="#465B56"/>
<path d="M1628.5 297.05C1631.98 292.341 1619.5 283.968 1612.82 280.371C1599.4 261.32 1576.6 261.14 1568.96 257.001C1561.32 252.863 1561.74 263.304 1558.3 271.391C1554.86 279.478 1542.01 287.184 1549.71 297.442C1557.4 307.699 1578.7 303.721 1591.98 308.496C1605.27 313.271 1624.14 302.937 1628.5 297.05Z" fill="#A07F64"/>
<path d="M255.5 297.05C252.012 292.341 264.5 283.968 271.18 280.371C284.592 261.32 307.399 261.14 315.037 257.001C322.676 252.863 322.255 263.304 325.696 271.391C329.138 279.478 341.982 287.184 334.288 297.442C326.594 307.699 305.298 303.721 292.014 308.496C278.729 313.271 259.86 302.937 255.5 297.05Z" fill="#A07F64"/>
<path d="M1333.47 452.403C1328.15 445.219 1347.2 432.446 1357.39 426.958C1377.85 397.894 1412.64 397.62 1424.3 391.306C1435.95 384.992 1435.31 400.922 1440.56 413.259C1445.81 425.596 1465.4 437.352 1453.66 453.001C1441.93 468.649 1409.44 462.581 1389.17 469.865C1368.91 477.15 1340.12 461.384 1333.47 452.403Z" fill="#A07F64"/>
<path d="M550.529 452.403C555.85 445.219 536.799 432.446 526.607 426.958C506.147 397.894 471.354 397.62 459.7 391.306C448.047 384.992 448.69 400.922 443.439 413.259C438.189 425.596 418.594 437.352 430.332 453.001C442.069 468.649 474.559 462.581 494.825 469.865C515.09 477.15 543.876 461.384 550.529 452.403Z" fill="#A07F64"/>
<path d="M1631.59 313.281C1633.81 302.652 1622.73 301.609 1616.92 302.415C1611.38 298.311 1577.31 302.733 1568.91 305.208C1560.52 307.682 1562.31 316.168 1563.86 320.894C1565.41 325.62 1574.04 333.041 1576.08 337.106C1578.12 341.171 1584.88 349.76 1601.75 353.564C1618.62 357.367 1619.43 363.084 1626.2 363.492C1632.96 363.901 1635.74 356.75 1632.89 349.013C1630.03 341.277 1628.82 326.567 1631.59 313.281Z" fill="#AD927C"/>
<path d="M252.407 313.281C250.188 302.652 261.261 301.609 267.075 302.415C272.616 298.311 306.686 302.733 315.082 305.208C323.477 307.682 321.686 316.168 320.138 320.894C318.59 325.62 309.953 333.041 307.916 337.106C305.879 341.171 299.116 349.76 282.245 353.564C265.375 357.367 264.561 363.084 257.796 363.492C251.032 363.901 248.259 356.75 251.11 349.013C253.961 341.277 255.181 326.567 252.407 313.281Z" fill="#AD927C"/>
<path d="M1328.75 477.164C1325.36 460.949 1342.26 459.357 1351.13 460.588C1359.58 454.326 1411.56 461.073 1424.36 464.848C1437.17 468.622 1434.44 481.568 1432.08 488.778C1429.72 495.987 1416.54 507.309 1413.43 513.511C1410.32 519.713 1400.01 532.816 1374.27 538.618C1348.53 544.421 1347.29 553.141 1336.97 553.765C1326.65 554.388 1322.42 543.479 1326.77 531.676C1331.12 519.873 1332.98 497.432 1328.75 477.164Z" fill="#AD927C"/>
<path d="M555.247 477.164C558.632 460.949 541.739 459.357 532.869 460.588C524.416 454.326 472.44 461.073 459.632 464.848C446.825 468.622 449.557 481.568 451.918 488.778C454.279 495.987 467.457 507.309 470.564 513.511C473.671 519.713 483.989 532.816 509.726 538.618C535.463 544.421 536.705 553.141 547.025 553.765C557.345 554.388 561.575 543.479 557.225 531.676C552.876 519.873 551.015 497.432 555.247 477.164Z" fill="#AD927C"/>
<path d="M1613.48 285.267C1643.46 300.08 1647.79 270.472 1650.77 268.021C1669.18 249.181 1654.35 231.686 1650.1 222.493C1645.85 213.301 1618.17 214.79 1599.79 219.404C1581.42 224.018 1588.35 247.056 1586.9 257.787C1585.46 268.519 1583.51 270.455 1613.48 285.267Z" fill="#AD927C"/>
<path d="M270.513 285.267C240.541 300.08 236.205 270.472 233.225 268.021C214.816 249.181 229.65 231.686 233.897 222.493C238.144 213.301 265.825 214.79 284.201 219.404C302.578 224.018 295.646 247.056 297.093 257.787C298.54 268.519 300.485 270.455 270.513 285.267Z" fill="#AD927C"/>
<path d="M1356.37 434.427C1310.65 457.025 1304.03 411.856 1299.49 408.117C1271.4 379.374 1294.03 352.685 1300.51 338.661C1306.99 324.637 1349.22 326.909 1377.25 333.948C1405.29 340.987 1394.71 376.133 1396.92 392.504C1399.13 408.876 1402.1 411.829 1356.37 434.427Z" fill="#AD927C"/>
<path d="M527.624 434.427C573.349 457.025 579.963 411.856 584.51 408.117C612.594 379.374 589.963 352.685 583.484 338.661C577.005 324.637 534.776 326.909 506.741 333.948C478.707 340.987 489.282 376.133 487.074 392.504C484.866 408.876 481.9 411.829 527.624 434.427Z" fill="#AD927C"/>
<path d="M1676.56 239.787C1658.26 234.363 1638.53 267.157 1630.96 284.232C1612.15 336.328 1694.08 301.021 1700.59 297.713C1707.09 294.406 1701.35 287.102 1697.11 272.283C1692.88 257.463 1699.42 246.568 1676.56 239.787Z" fill="#7A745E"/>
<path d="M207.439 239.787C225.734 234.363 245.461 267.157 253.038 284.232C271.85 336.328 189.915 301.021 183.409 297.713C176.902 294.406 182.648 287.102 186.884 272.283C191.12 257.463 184.571 246.568 207.439 239.787Z" fill="#7A745E"/>
<path d="M1260.15 365.045C1288.06 356.769 1318.15 406.799 1329.71 432.848C1358.41 512.323 1233.41 458.46 1223.49 453.415C1213.56 448.37 1222.33 437.227 1228.79 414.618C1235.25 392.01 1225.26 375.389 1260.15 365.045Z" fill="#7A745E"/>
<path d="M623.847 365.045C595.938 356.769 565.843 406.799 554.284 432.848C525.585 512.323 650.582 458.46 660.508 453.415C670.434 448.37 661.668 437.227 655.206 414.618C648.744 392.01 658.735 375.389 623.847 365.045Z" fill="#7A745E"/>
<path d="M1706.42 332.141C1707.77 322.072 1665.33 306.316 1643.94 299.696C1616.66 279.493 1622.63 302.359 1618.32 317.106C1614.01 331.852 1633.64 343.829 1639.58 356.425C1645.51 369.022 1669.13 368.063 1674.27 361.113C1679.42 354.164 1704.73 344.727 1706.42 332.141Z" fill="#AFAFB1"/>
<path d="M177.575 332.141C176.224 322.072 218.667 306.316 240.057 299.696C267.331 279.493 261.368 302.359 265.675 317.106C269.982 331.852 250.355 343.829 244.418 356.425C238.482 369.022 214.87 368.063 209.723 361.113C204.576 354.164 179.264 344.727 177.575 332.141Z" fill="#AFAFB1"/>
<path d="M1214.59 505.936C1212.53 490.575 1277.28 466.538 1309.91 456.439C1351.52 425.618 1342.42 460.503 1348.99 482.999C1355.56 505.496 1325.62 523.766 1316.56 542.984C1307.51 562.201 1271.48 560.737 1263.63 550.136C1255.78 539.534 1217.16 525.136 1214.59 505.936Z" fill="#AFAFB1"/>
<path d="M669.408 505.936C671.47 490.575 606.721 466.538 574.088 456.439C532.479 425.618 541.576 460.503 535.005 482.999C528.435 505.496 558.378 523.766 567.434 542.984C576.491 562.201 612.512 560.737 620.365 550.136C628.217 539.534 666.832 525.136 669.408 505.936Z" fill="#AFAFB1"/>
<path d="M1643.02 319.444C1637.1 312.628 1634.1 303.384 1633.33 299.613C1632.78 298.53 1632.16 295.709 1634.1 293.094C1636.52 289.825 1641.32 288.826 1644.57 287.183C1647.82 285.539 1654.52 287.464 1657.44 285.578C1660.36 283.692 1656.65 278.414 1653.65 279.731C1650.64 281.047 1644.03 279.692 1634.77 283.969C1625.5 288.245 1628.81 294.746 1624.48 293.055C1620.15 291.364 1620.48 291.607 1613.65 294.651C1606.83 297.695 1599.38 294.714 1595.07 295.059C1590.75 295.404 1592.68 302.4 1600.41 301.552C1608.15 300.703 1615.16 300.834 1613.88 303.935C1612.6 307.036 1609.95 312.668 1606.56 317.244C1603.17 321.82 1606.31 327.182 1608.44 327.742C1610.56 328.303 1611.33 321.784 1613.56 315.339C1615.8 308.895 1623 302.591 1621.32 306.916C1619.64 311.24 1624.45 321.888 1625.37 324.083C1626.28 326.278 1630 333.592 1632.02 331.547C1634.05 329.502 1627.2 318.862 1625.69 312.679C1624.17 306.496 1629.73 296.941 1629.46 304.843C1629.19 312.745 1647.46 335.388 1650.15 335.865C1652.85 336.341 1650.42 327.963 1643.02 319.444Z" fill="#3B4B17"/>
<path d="M240.975 319.444C246.895 312.628 249.899 303.384 250.661 299.613C251.213 298.53 251.832 295.709 249.895 293.094C247.474 289.825 242.671 288.826 239.423 287.183C236.174 285.539 229.475 287.464 226.554 285.578C223.633 283.692 227.341 278.414 230.348 279.731C233.354 281.047 239.968 279.692 249.229 283.969C258.491 288.245 255.181 294.746 259.515 293.055C263.848 291.364 263.52 291.607 270.345 294.651C277.17 297.695 284.611 294.714 288.929 295.059C293.247 295.404 291.32 302.4 283.582 301.552C275.843 300.703 268.832 300.834 270.113 303.935C271.394 307.036 274.042 312.668 277.432 317.244C280.821 321.82 277.684 327.182 275.56 327.742C273.436 328.303 272.669 321.784 270.435 315.339C268.201 308.895 260.992 302.591 262.672 306.916C264.352 311.24 259.544 321.888 258.63 324.083C257.717 326.278 253.994 333.592 251.971 331.547C249.949 329.502 256.794 318.862 258.308 312.679C259.822 306.496 254.268 296.941 254.535 304.843C254.802 312.745 236.535 335.388 233.841 335.865C231.147 336.341 233.574 327.963 240.975 319.444Z" fill="#3B4B17"/>
<path d="M1311.31 486.566C1320.34 476.168 1324.92 462.065 1326.09 456.313C1326.93 454.66 1327.87 450.357 1324.92 446.367C1321.22 441.381 1313.9 439.857 1308.94 437.35C1303.98 434.842 1293.76 437.779 1289.31 434.901C1284.85 432.024 1290.51 423.972 1295.1 425.981C1299.68 427.989 1309.77 425.922 1323.9 432.446C1338.03 438.97 1332.98 448.888 1339.59 446.308C1346.2 443.728 1345.7 444.099 1356.12 448.743C1366.53 453.386 1377.88 448.839 1384.47 449.366C1391.05 449.892 1388.11 460.565 1376.31 459.27C1364.5 457.975 1353.81 458.176 1355.76 462.906C1357.72 467.637 1361.75 476.228 1366.93 483.21C1372.1 490.191 1367.31 498.37 1364.07 499.226C1360.83 500.081 1359.66 490.136 1356.25 480.304C1352.84 470.473 1341.85 460.856 1344.41 467.453C1346.97 474.05 1339.64 490.295 1338.24 493.644C1336.85 496.992 1331.17 508.15 1328.08 505.03C1325 501.91 1335.44 485.679 1337.75 476.246C1340.06 466.812 1331.59 452.237 1332 464.292C1332.4 476.347 1304.53 510.89 1300.43 511.617C1296.32 512.344 1300.02 499.562 1311.31 486.566Z" fill="#3B4B17"/>
<path d="M572.688 486.566C563.655 476.168 559.073 462.065 557.91 456.313C557.069 454.66 556.124 450.357 559.079 446.367C562.773 441.381 570.1 439.857 575.055 437.35C580.011 434.842 590.231 437.779 594.687 434.901C599.143 432.024 593.486 423.972 588.899 425.981C584.313 427.989 574.224 425.922 560.094 432.446C545.965 438.97 551.014 448.888 544.403 446.308C537.793 443.728 538.293 444.099 527.881 448.743C517.468 453.386 506.117 448.839 499.529 449.366C492.942 449.892 495.882 460.565 507.687 459.27C519.493 457.975 530.19 458.176 528.235 462.906C526.281 467.637 522.241 476.228 517.07 483.21C511.898 490.191 516.686 498.37 519.926 499.226C523.166 500.081 524.335 490.136 527.744 480.304C531.152 470.473 542.149 460.856 539.587 467.453C537.024 474.05 544.359 490.295 545.752 493.644C547.145 496.992 552.825 508.15 555.911 505.03C558.997 501.91 548.553 485.679 546.244 476.246C543.935 466.812 552.407 452.237 552 464.292C551.593 476.347 579.461 510.89 583.57 511.617C587.68 512.344 583.978 499.562 572.688 486.566Z" fill="#3B4B17"/>
<path d="M1649.7 339.829C1647.7 338.35 1647.28 335.532 1648.76 333.534C1650.24 331.537 1653.06 331.118 1655.06 332.597C1657.05 334.076 1657.47 336.894 1655.99 338.891C1654.51 340.888 1651.7 341.308 1649.7 339.829Z" fill="#AD927C"/>
<path d="M234.297 339.829C236.294 338.35 236.714 335.532 235.235 333.534C233.755 331.537 230.937 331.118 228.94 332.597C226.943 334.076 226.523 336.894 228.003 338.891C229.482 340.888 232.3 341.308 234.297 339.829Z" fill="#AD927C"/>
<path d="M1301.12 517.665C1304.17 515.408 1304.81 511.109 1302.55 508.062C1300.29 505.015 1295.99 504.375 1292.95 506.632C1289.9 508.888 1289.26 513.188 1291.52 516.234C1293.77 519.281 1298.07 519.921 1301.12 517.665Z" fill="#AD927C"/>
<path d="M582.875 517.665C579.829 515.408 579.188 511.109 581.445 508.062C583.702 505.015 588.001 504.375 591.048 506.632C594.094 508.888 594.735 513.188 592.478 516.234C590.221 519.281 585.922 519.921 582.875 517.665Z" fill="#AD927C"/>
<path d="M1629.07 335.752C1627.08 334.273 1626.66 331.454 1628.14 329.457C1629.62 327.46 1632.43 327.04 1634.43 328.52C1636.43 329.999 1636.85 332.817 1635.37 334.814C1633.89 336.811 1631.07 337.231 1629.07 335.752Z" fill="#AD927C"/>
<path d="M254.922 335.752C256.919 334.273 257.339 331.454 255.86 329.457C254.38 327.46 251.562 327.04 249.565 328.52C247.568 329.999 247.148 332.817 248.628 334.814C250.107 336.811 252.925 337.231 254.922 335.752Z" fill="#AD927C"/>
<path d="M1332.59 511.445C1335.63 509.188 1336.27 504.889 1334.02 501.842C1331.76 498.795 1327.46 498.155 1324.41 500.412C1321.37 502.669 1320.73 506.968 1322.98 510.015C1325.24 513.061 1329.54 513.702 1332.59 511.445Z" fill="#AD927C"/>
<path d="M551.411 511.445C548.364 509.188 547.723 504.889 549.98 501.842C552.237 498.795 556.536 498.155 559.583 500.412C562.63 502.669 563.27 506.968 561.013 510.015C558.756 513.061 554.457 513.702 551.411 511.445Z" fill="#AD927C"/>
<path d="M1601.84 330.515C1599.84 329.035 1599.42 326.217 1600.9 324.22C1602.38 322.223 1605.2 321.803 1607.2 323.282C1609.2 324.762 1609.62 327.58 1608.14 329.577C1606.66 331.574 1603.84 331.994 1601.84 330.515Z" fill="#687F79"/>
<path d="M282.154 330.515C284.152 329.035 284.571 326.217 283.092 324.22C281.613 322.223 278.795 321.803 276.797 323.282C274.8 324.762 274.381 327.58 275.86 329.577C277.339 331.574 280.157 331.994 282.154 330.515Z" fill="#687F79"/>
<path d="M1374.13 503.455C1377.18 501.198 1377.82 496.899 1375.56 493.852C1373.3 490.805 1369 490.165 1365.96 492.422C1362.91 494.678 1362.27 498.978 1364.53 502.024C1366.78 505.071 1371.08 505.711 1374.13 503.455Z" fill="#687F79"/>
<path d="M509.866 503.455C506.819 501.198 506.179 496.899 508.435 493.852C510.692 490.805 514.991 490.165 518.038 492.422C521.085 494.678 521.725 498.978 519.468 502.024C517.212 505.071 512.912 505.711 509.866 503.455Z" fill="#687F79"/>
<path d="M1592.08 303.372C1590.08 301.893 1589.66 299.075 1591.14 297.077C1592.62 295.08 1595.44 294.661 1597.44 296.14C1599.43 297.619 1599.85 300.437 1598.37 302.434C1596.89 304.431 1594.08 304.851 1592.08 303.372Z" fill="#AFAFB1"/>
<path d="M291.916 303.372C293.913 301.893 294.333 299.075 292.854 297.077C291.374 295.08 288.556 294.661 286.559 296.14C284.562 297.619 284.142 300.437 285.622 302.434C287.101 304.431 289.919 304.851 291.916 303.372Z" fill="#AFAFB1"/>
<path d="M1389.02 462.047C1392.07 459.791 1392.71 455.491 1390.45 452.445C1388.2 449.398 1383.9 448.758 1380.85 451.014C1377.8 453.271 1377.16 457.57 1379.42 460.617C1381.68 463.664 1385.98 464.304 1389.02 462.047Z" fill="#AFAFB1"/>
<path d="M494.973 462.047C491.926 459.791 491.286 455.491 493.543 452.445C495.799 449.398 500.099 448.758 503.145 451.014C506.192 453.271 506.832 457.57 504.576 460.617C502.319 463.664 498.02 464.304 494.973 462.047Z" fill="#AFAFB1"/>
<path d="M1655.17 285.395C1653.18 283.916 1652.76 281.098 1654.24 279.101C1655.72 277.104 1658.53 276.684 1660.53 278.163C1662.53 279.643 1662.95 282.461 1661.47 284.458C1659.99 286.455 1657.17 286.875 1655.17 285.395Z" fill="#AD927C"/>
<path d="M228.822 285.395C230.82 283.916 231.239 281.098 229.76 279.101C228.281 277.104 225.463 276.684 223.465 278.163C221.468 279.643 221.049 282.461 222.528 284.458C224.007 286.455 226.825 286.875 228.822 285.395Z" fill="#AD927C"/>
<path d="M1292.77 434.623C1295.82 432.366 1296.46 428.067 1294.2 425.02C1291.94 421.973 1287.64 421.333 1284.6 423.59C1281.55 425.846 1280.91 430.146 1283.17 433.192C1285.42 436.239 1289.72 436.879 1292.77 434.623Z" fill="#AD927C"/>
<path d="M591.227 434.623C588.18 432.366 587.54 428.067 589.797 425.02C592.053 421.973 596.353 421.333 599.399 423.59C602.446 425.846 603.086 430.146 600.83 433.192C598.573 436.239 594.274 436.879 591.227 434.623Z" fill="#AD927C"/>
<path d="M1472.23 198.996C1452.13 209.498 1423.06 186.928 1411.03 174.33C1448.96 195.635 1488.43 175.202 1503.43 162.322C1501.4 170.17 1492.33 188.493 1472.23 198.996Z" fill="#465B56"/>
<path d="M1468.29 172.421C1445.66 170.905 1432.62 136.489 1428.93 119.471C1450.18 157.423 1494.52 160.563 1514.03 157.389C1508.21 163.032 1490.92 173.938 1468.29 172.421Z" fill="#465B56"/>
<path d="M1124.24 175.975C1122.26 198.569 1087.58 210.897 1070.49 214.238C1108.87 193.768 1112.93 149.505 1110.16 129.933C1115.68 135.866 1126.22 153.382 1124.24 175.975Z" fill="#465B56"/>
<path d="M1379.84 105.275C1399.67 116.28 1396.82 152.974 1392.92 169.945C1389.84 126.554 1351.06 104.84 1332.05 99.4063C1339.72 96.7769 1360.01 94.2693 1379.84 105.275Z" fill="#465B56"/>
<path d="M1540.86 151.657C1560.07 139.599 1555.25 103.112 1550.44 86.376C1549.7 129.87 1512.14 153.642 1493.46 160.092C1501.26 162.304 1521.65 163.715 1540.86 151.657Z" fill="#465B56"/>
<path d="M1570.82 115.624C1554.43 118.898 1536.04 125.013 1518.84 140.31C1534.05 143.118 1566.74 147.729 1575.78 143.714C1587.08 138.694 1616.2 106.554 1570.82 115.624Z" fill="#364844"/>
<path d="M1552.77 212.897C1529.64 212.221 1508.86 173.844 1501.36 154.74C1512.98 127.274 1547.1 126.467 1565.96 136.234C1584.81 146.002 1582.83 133.453 1615.71 128.742C1648.59 124.031 1619.98 142.437 1615.82 161.806C1611.66 181.175 1625.98 172.92 1615.39 188.312C1604.81 203.704 1581.69 213.742 1552.77 212.897Z" fill="#819F98"/>
<path d="M1461.1 219.831C1469.99 202.342 1497.22 176.298 1498.94 166.681C1510.76 155.192 1503.49 277.817 1500.22 295.472C1496.94 313.127 1487.45 282.337 1474.26 268.765C1461.07 255.192 1449.99 241.691 1461.1 219.831Z" fill="#C6C9C6"/>
<path d="M1564.67 256.673C1569.62 248.455 1544.75 206.993 1529.38 194.685C1470.14 140.733 1483.65 292.401 1500.2 280.65C1513.61 271.124 1519.77 286.686 1528.33 291.989C1536.89 297.292 1546.49 290.522 1552.29 277.22C1558.09 263.919 1558.48 266.947 1564.67 256.673Z" fill="#AFAFB1"/>
<path d="M1542.2 258.077C1522.03 249.586 1514.84 208.899 1518.95 192.983C1520.47 147.239 1602.06 177.764 1607.56 186.046C1613.05 194.327 1607.59 205.877 1595.28 221.244C1582.97 236.611 1597.09 246.514 1579.63 260.08C1562.16 273.646 1562.37 266.568 1542.2 258.077Z" fill="#465B56"/>
<path d="M1495.33 184.445C1489.3 213.574 1479.39 228.676 1532.68 235.688C1615.83 246.628 1513.42 126.85 1495.33 184.445Z" fill="#C6C9C6"/>
<path d="M411.765 198.996C431.868 209.498 460.938 186.928 472.961 174.33C435.035 195.635 395.563 175.202 380.568 162.322C382.591 170.17 391.663 188.493 411.765 198.996Z" fill="#465B56"/>
<path d="M415.706 172.421C438.336 170.905 451.378 136.489 455.07 119.471C433.812 157.423 389.475 160.563 369.964 157.389C375.782 163.032 393.076 173.938 415.706 172.421Z" fill="#465B56"/>
<path d="M759.755 175.975C761.739 198.569 796.416 210.897 813.507 214.238C775.124 193.768 771.069 149.505 773.84 129.933C768.318 135.866 757.771 153.382 759.755 175.975Z" fill="#465B56"/>
<path d="M504.155 105.275C484.324 116.28 487.172 152.974 491.075 169.945C494.156 126.554 532.938 104.84 551.945 99.4063C544.278 96.7769 523.987 94.2693 504.155 105.275Z" fill="#465B56"/>
<path d="M343.133 151.657C323.923 139.599 328.745 103.112 333.557 86.376C334.295 129.87 371.851 153.642 390.537 160.092C382.739 162.304 362.343 163.715 343.133 151.657Z" fill="#465B56"/>
<path d="M313.179 115.624C329.562 118.898 347.958 125.013 365.158 140.31C349.943 143.118 317.254 147.729 308.216 143.714C296.919 138.694 267.799 106.554 313.179 115.624Z" fill="#364844"/>
<path d="M331.223 212.897C354.355 212.221 375.135 173.844 382.634 154.74C371.015 127.274 336.896 126.467 318.039 136.234C299.182 146.002 301.161 133.453 268.281 128.742C235.401 124.031 264.016 142.437 268.178 161.806C272.34 181.175 258.019 172.92 268.601 188.312C279.183 203.704 302.308 213.742 331.223 212.897Z" fill="#819F98"/>
<path d="M422.895 219.831C414.01 202.342 386.776 176.298 385.055 166.681C373.234 155.192 380.503 277.817 383.777 295.472C387.052 313.127 396.542 282.337 409.732 268.765C422.923 255.192 434.001 241.691 422.895 219.831Z" fill="#C6C9C6"/>
<path d="M319.325 256.673C314.372 248.455 339.245 206.993 354.612 194.685C413.854 140.733 400.342 292.401 383.795 280.65C370.381 271.124 364.224 286.686 355.665 291.989C347.105 297.292 337.51 290.522 331.707 277.22C325.905 263.919 325.516 266.947 319.325 256.673Z" fill="#AFAFB1"/>
<path d="M341.797 258.077C361.968 249.586 369.158 208.899 365.045 192.983C363.528 147.239 281.932 177.764 276.438 186.046C270.943 194.327 276.407 205.877 288.716 221.244C301.024 236.611 286.905 246.514 304.369 260.08C321.832 273.646 321.626 266.568 341.797 258.077Z" fill="#465B56"/>
<path d="M388.67 184.445C394.699 213.574 404.604 228.676 351.311 235.688C268.166 246.628 370.577 126.85 388.67 184.445Z" fill="#C6C9C6"/>
<path d="M1116.34 103.64C1134.78 122.075 1176.81 145.66 1195.51 155.148C1220.73 174.395 1205 174.939 1193.62 180.904C1182.23 186.869 1118.52 141.597 1110.38 123.703C1102.25 105.81 1074.86 110.421 1069.44 99.5764C1064.02 88.7321 1093.3 80.5967 1116.34 103.64Z" fill="#717371"/>
<path d="M1275.97 125.91C1275.12 142.031 1242.05 157.47 1225.62 163.174C1183.53 153.279 1186.56 45.8573 1194.08 34.5806C1201.61 23.304 1212.4 31.9401 1231.95 41.722C1251.5 51.5039 1267.72 20.7398 1289.2 41.0045C1310.69 61.2692 1277.03 105.758 1275.97 125.91Z" fill="#6C837D"/>
<path d="M1168.7 19.5566C1195.85 27.3981 1225.18 96.5398 1236.44 130.131C1246.03 155.289 1215.54 168.417 1199.1 171.836L1095.41 78.9955C1081.13 66.2076 1096.2 53.971 1106.97 52.2903C1117.74 50.6096 1134.76 9.75478 1168.7 19.5566Z" fill="#AFAFB1"/>
<path d="M1245.77 45.2977C1234.18 59.6873 1228.95 96.9821 1227.79 113.831C1225.71 132.444 1196.53 133.992 1191.51 123.466C1186.49 112.94 1176.95 72.3159 1177.53 63.2244C1178.1 54.1329 1175.59 38.6815 1184.86 46.3357C1194.13 53.9899 1197.11 104.523 1197.58 110.277C1198.05 116.03 1205.07 111.874 1203.87 96.726C1202.67 81.5778 1204.94 50.1601 1206.89 42.9006C1208.83 35.6412 1208.47 15.0426 1213.3 32.4076C1217.16 46.2996 1216.09 88.955 1215.08 108.546C1217.35 93.6969 1223.24 62.4389 1228.64 56.2011C1235.4 48.4039 1245.01 29.4258 1250.44 23.7996C1255.88 18.1733 1260.25 27.3106 1245.77 45.2977Z" fill="#3B4B17"/>
<path d="M1175.85 50.6573C1178.85 53.3411 1183.45 53.0868 1186.14 50.0894C1188.82 47.0919 1188.56 42.4863 1185.57 39.8026C1182.57 37.1188 1177.96 37.3731 1175.28 40.3705C1172.6 43.368 1172.85 47.9736 1175.85 50.6573Z" fill="#7A745E"/>
<path d="M1204.58 30.0662C1207.58 32.75 1212.18 32.4957 1214.87 29.4982C1217.55 26.5008 1217.3 21.8952 1214.3 19.2114C1211.3 16.5276 1206.69 16.782 1204.01 19.7794C1201.33 22.7769 1201.58 27.3824 1204.58 30.0662Z" fill="#AD927C"/>
<path d="M1250.63 28.066C1253.63 30.7498 1258.23 30.4955 1260.92 27.498C1263.6 24.5006 1263.35 19.895 1260.35 17.2112C1257.35 14.5275 1252.74 14.7818 1250.06 17.7792C1247.38 20.7767 1247.63 25.3823 1250.63 28.066Z" fill="#7A745E"/>
<path d="M1270.51 112.771C1252.04 128.345 1236.5 157.46 1231.04 170.071C1281.08 166.493 1304.2 113.083 1311.92 100.438C1319.64 87.793 1310.33 47.0343 1294.82 56.308C1279.31 65.5817 1293.6 93.3034 1270.51 112.771Z" fill="#4C5E59"/>
<path d="M1241.84 101.008C1264.38 148.237 1241.85 174.39 1227.77 181.564C1186.84 214.457 1189.21 159.794 1156.12 151.86C1123.03 143.925 1096.89 91.1735 1110.95 89.7236C1125.01 88.2738 1132.17 71.7206 1135.36 62.4557C1138.55 53.1908 1167.15 59.017 1185.49 74.1617C1203.83 89.3064 1213.67 41.973 1241.84 101.008Z" fill="#C6C9C6"/>
<path d="M1275.99 147.759C1262.31 141.668 1232.52 160.057 1219.33 170.012C1215.09 198.538 1235.09 198.97 1246.66 187.432C1258.23 175.893 1279.3 177.506 1285.07 180.61C1290.84 183.715 1315.23 175.069 1323.91 165.076C1330.85 157.082 1338.65 157.828 1341.68 159.2C1335.48 153.538 1324.92 156.111 1316.09 157.925C1307.26 159.739 1293.09 155.372 1275.99 147.759Z" fill="#6C837D"/>
<path d="M767.652 103.64C749.215 122.075 707.19 145.66 688.482 155.148C663.267 174.395 678.992 174.939 690.378 180.904C701.765 186.869 765.48 141.597 773.615 123.703C781.75 105.81 809.132 110.421 814.555 99.5764C819.978 88.7321 790.698 80.5967 767.652 103.64Z" fill="#717371"/>
<path d="M608.026 125.91C608.874 142.031 641.945 157.47 658.374 163.174C700.465 153.279 697.435 45.8573 689.912 34.5806C682.389 23.304 671.594 31.9401 652.046 41.722C632.499 51.5039 616.277 20.7398 594.793 41.0045C573.309 61.2692 606.967 105.758 608.026 125.91Z" fill="#6C837D"/>
<path d="M715.296 19.5566C688.144 27.3981 658.821 96.5398 647.553 130.131C637.965 155.289 668.452 168.417 684.894 171.836L788.585 78.9955C802.868 66.2076 787.795 53.971 777.026 52.2903C766.258 50.6096 749.235 9.75478 715.296 19.5566Z" fill="#AFAFB1"/>
<path d="M638.225 45.2977C649.811 59.6873 655.041 96.9821 656.208 113.831C658.283 132.444 687.462 133.992 692.484 123.466C697.507 112.94 707.046 72.3159 706.47 63.2244C705.894 54.1329 708.404 38.6815 699.135 46.3357C689.866 53.9899 686.883 104.523 686.415 110.277C685.947 116.03 678.923 111.874 680.124 96.726C681.325 81.5778 679.056 50.1601 677.109 42.9006C675.162 35.6412 675.522 15.0426 670.695 32.4076C666.833 46.2996 667.901 88.955 668.918 108.546C666.649 93.6969 660.758 62.4389 655.351 56.2011C648.592 48.4039 638.983 29.4258 633.552 23.7996C628.12 18.1733 623.743 27.3106 638.225 45.2977Z" fill="#3B4B17"/>
<path d="M708.147 50.6573C705.15 53.3411 700.544 53.0868 697.86 50.0894C695.177 47.0919 695.431 42.4863 698.428 39.8026C701.426 37.1188 706.031 37.3731 708.715 40.3705C711.399 43.368 711.145 47.9736 708.147 50.6573Z" fill="#7A745E"/>
<path d="M679.417 30.0662C676.419 32.75 671.814 32.4957 669.13 29.4982C666.446 26.5008 666.7 21.8952 669.698 19.2114C672.695 16.5276 677.301 16.782 679.985 19.7794C682.668 22.7769 682.414 27.3824 679.417 30.0662Z" fill="#AD927C"/>
<path d="M633.367 28.066C630.369 30.7498 625.764 30.4955 623.08 27.498C620.396 24.5006 620.65 19.895 623.648 17.2112C626.645 14.5275 631.251 14.7818 633.935 17.7792C636.618 20.7767 636.364 25.3823 633.367 28.066Z" fill="#7A745E"/>
<path d="M613.485 112.771C631.958 128.345 647.493 157.46 652.951 170.071C602.915 166.493 579.798 113.083 572.078 100.438C564.359 87.793 573.669 47.0343 589.178 56.308C604.686 65.5817 590.393 93.3034 613.485 112.771Z" fill="#4C5E59"/>
<path d="M642.154 101.008C619.62 148.237 642.143 174.39 656.222 181.564C697.156 214.457 694.788 159.794 727.877 151.86C760.967 143.925 787.106 91.1735 773.048 89.7236C758.99 88.2738 751.825 71.7206 748.634 62.4557C745.442 53.1908 716.845 59.017 698.505 74.1617C680.165 89.3064 670.323 41.973 642.154 101.008Z" fill="#C6C9C6"/>
<path d="M608.006 147.759C621.688 141.668 651.477 160.057 664.661 170.012C668.901 198.538 648.903 198.97 637.332 187.432C625.761 175.893 604.694 177.506 598.927 180.61C593.16 183.715 568.763 175.069 560.088 165.076C553.149 157.082 545.347 157.828 542.314 159.2C548.517 153.538 559.078 156.111 567.909 157.925C576.741 159.739 590.903 155.372 608.006 147.759Z" fill="#6C837D"/>
<path d="M726.082 571.03C732.81 591.929 782.022 606.481 805.787 611.145C841.087 587.881 822.004 565.618 798.088 564.264C774.171 562.909 755.331 538.324 753.083 528.99C750.834 519.656 717.534 501.465 698.139 501.763C682.623 502 675.808 492.751 674.34 488.097C674.222 500.408 687.36 509.426 697.977 517.297C708.594 525.168 717.673 544.907 726.082 571.03Z" fill="#6C837D"/>
<path d="M892.2 420.683C837.792 481.387 896.884 529.912 933.231 546.587C974.262 569.631 1004.61 546.587 1020.35 497.687C1036.09 448.787 1006.86 409.442 982.131 398.762C957.4 388.083 927.61 420.683 919.741 420.683H892.2Z" fill="#AFAFB1"/>
<path d="M1067 606.165C1033.73 615.158 998.056 609.912 984.379 606.165C901.755 531.41 1067 446.538 1095.11 440.917C1123.21 435.297 1106.35 483.072 1137.26 496.562C1168.18 510.052 1150.75 571.317 1145.13 588.179C1139.51 605.041 1108.6 594.924 1067 606.165Z" fill="#7A745E"/>
<path d="M865.22 615.721C902.541 613.923 932.856 588.367 943.348 575.814C930.982 503.308 842.737 461.152 807.327 452.159C771.917 443.166 742.689 502.183 741.565 525.79C740.441 549.397 783.72 548.835 787.092 575.814C790.465 602.794 818.568 617.969 865.22 615.721Z" fill="#AD927C"/>
<path d="M956.838 736.566C946.046 724.874 952.341 629.772 956.838 583.683C972.576 547.148 1071.5 603.917 1102.98 620.217C1134.45 636.517 1122.65 674.176 1121.52 703.965C1120.4 733.755 1070.38 759.61 1058.01 755.676C1045.64 751.741 970.327 751.179 956.838 736.566Z" fill="#C29E80"/>
<path d="M837.118 643.824C836.218 610.1 899.32 581.434 930.983 571.317C984.38 547.472 979.883 729.821 961.335 750.055C942.787 770.29 903.442 746.683 870.842 736.565C838.242 726.448 838.242 685.979 837.118 643.824Z" fill="#A07F64"/>
<path d="M941.1 652.817V587.055C937.727 576.376 921.99 523.541 926.486 508.366C930.983 493.19 947.845 489.817 941.1 512.862C935.704 531.298 950.468 549.397 958.524 556.141C993.372 539.841 1039.46 532.535 1045.64 540.966C1051.83 549.397 963.021 552.207 971.452 564.572C979.883 576.938 1029.91 595.486 1022.04 608.414C1014.17 621.341 972.014 567.945 963.021 579.748C954.028 591.552 975.386 611.786 987.19 630.335C998.993 648.883 1002.93 652.817 987.19 648.321C971.452 643.824 958.524 583.683 951.217 595.486C943.91 607.29 953.465 656.19 951.217 661.81C948.969 667.431 941.1 666.307 941.1 652.817Z" fill="#3B4B17"/>
<path d="M1006.86 652.817C1006.86 646.919 1002.08 642.138 996.183 642.138C990.285 642.138 985.503 646.919 985.503 652.817C985.503 658.715 990.285 663.497 996.183 663.497C1002.08 663.497 1006.86 658.715 1006.86 652.817Z" fill="#687F79"/>
<path d="M1034.97 605.604C1034.97 599.706 1030.18 594.924 1024.29 594.924C1018.39 594.924 1013.61 599.706 1013.61 605.604C1013.61 611.502 1018.39 616.283 1024.29 616.283C1030.18 616.283 1034.97 611.502 1034.97 605.604Z" fill="#7A745E"/>
<path d="M1056.32 543.776C1056.32 537.878 1051.54 533.097 1045.64 533.097C1039.75 533.097 1034.97 537.878 1034.97 543.776C1034.97 549.674 1039.75 554.455 1045.64 554.455C1051.54 554.455 1056.32 549.674 1056.32 543.776Z" fill="#AFAFB1"/>
<path d="M954.027 496.562C954.027 490.664 949.246 485.883 943.348 485.883C937.45 485.883 932.669 490.664 932.669 496.562C932.669 502.46 937.45 507.241 943.348 507.241C949.246 507.241 954.027 502.46 954.027 496.562Z" fill="#7A745E"/>
<path d="M947.283 576.376C947.283 570.478 942.501 565.697 936.603 565.697C930.705 565.697 925.924 570.478 925.924 576.376C925.924 582.274 930.705 587.055 936.603 587.055C942.501 587.055 947.283 582.274 947.283 576.376Z" fill="#7A745E"/>
</svg>
