<svg width="1875" height="758" viewBox="0 0 1875 758" fill="none" xmlns="http://www.w3.org/2000/svg">
<path d="M250.729 419.406C281.688 426.91 311.636 406.352 322.74 395.135C307.236 387.009 261.739 380.198 241.346 373.598C220.953 366.998 201.496 382.015 189.325 383.133C179.588 384.027 173.792 390.665 172.111 393.872C175.863 390.615 189.28 395.636 205.167 400.691C225.025 407.011 212.03 410.026 250.729 419.406Z" fill="#56756E"/>
<path d="M236.256 394.185C268.116 413.326 308.625 400.867 324.897 392.245C310.464 377.795 313.507 360.182 293.957 344.587C239.485 301.13 203.599 323.234 189.404 324.595C178.551 325.636 156.408 327.09 153.419 330.075C158.732 327.755 177.529 334.194 193.458 345.358C213.369 359.313 196.432 370.259 236.256 394.185Z" fill="#819F98"/>
<path d="M1632.04 419.406C1601.09 426.91 1571.14 406.352 1560.03 395.135C1575.54 387.009 1621.03 380.198 1641.43 373.598C1661.82 366.998 1681.28 382.015 1693.45 383.133C1703.18 384.027 1708.98 390.665 1710.66 393.872C1706.91 390.615 1693.49 395.636 1677.61 400.691C1657.75 407.011 1670.74 410.026 1632.04 419.406Z" fill="#56756E"/>
<path d="M1646.52 394.185C1614.66 413.326 1574.15 400.867 1557.88 392.245C1572.31 377.795 1569.27 360.182 1588.82 344.587C1643.29 301.13 1679.17 323.234 1693.37 324.595C1704.22 325.636 1726.36 327.09 1729.35 330.075C1724.04 327.755 1705.24 334.194 1689.31 345.358C1669.4 359.313 1686.34 370.259 1646.52 394.185Z" fill="#819F98"/>
<path d="M1232.53 453.231C1191.4 432.909 1176.49 326.69 1174.18 276.121C1233.17 210.27 1273.32 256.559 1268.74 306.425C1264.16 356.292 1309.18 402.79 1327.78 410.303C1346.38 417.816 1373.72 492.25 1367.12 532.262C1361.84 564.272 1378.86 581.2 1388.03 585.663C1362.54 582.129 1347.95 552.198 1334.95 527.831C1321.96 503.464 1283.95 478.635 1232.53 453.231Z" fill="#819F98"/>
<path d="M651.465 453.231C692.599 432.909 707.502 326.69 709.812 276.121C650.822 210.27 610.679 256.559 615.258 306.425C619.837 356.292 574.82 402.79 556.215 410.303C537.611 417.816 510.275 492.25 516.874 532.262C522.153 564.272 505.132 581.2 495.962 585.663C521.453 582.129 536.044 552.198 549.041 527.831C562.039 503.464 600.049 478.635 651.465 453.231Z" fill="#819F98"/>
<path d="M1386.61 428.262C1360.89 424.204 1334.87 369.18 1325.07 342.175C1345.9 296.532 1375.47 314.824 1381.42 342.613C1387.36 370.401 1419.61 387.983 1430.96 388.909C1442.3 389.835 1469.69 425.539 1472.88 448.33C1475.43 466.563 1487.51 472.857 1493.23 473.725C1478.83 476.118 1465.86 462.37 1454.7 451.366C1443.55 440.362 1418.76 433.335 1386.61 428.262Z" fill="#465B56"/>
<path d="M497.385 428.262C523.103 424.204 549.127 369.18 558.925 342.175C538.097 296.532 508.527 314.824 502.58 342.613C496.634 370.401 464.388 387.983 453.039 388.909C441.691 389.835 414.303 425.539 411.116 448.33C408.566 466.563 396.484 472.857 390.762 473.725C405.169 476.118 418.131 462.37 429.291 451.366C440.45 440.362 465.238 433.335 497.385 428.262Z" fill="#465B56"/>
<path d="M1468.61 712.262C1442.89 708.204 1416.87 653.18 1407.07 626.175C1427.9 580.532 1457.47 598.824 1463.42 626.613C1469.36 654.401 1501.61 671.983 1512.96 672.909C1524.3 673.835 1551.69 709.539 1554.88 732.33C1557.43 750.563 1569.51 756.857 1575.23 757.725C1560.83 760.118 1547.86 746.37 1536.7 735.366C1525.55 724.362 1500.76 717.335 1468.61 712.262Z" fill="#465B56"/>
<path d="M415.385 712.262C441.103 708.204 467.127 653.18 476.925 626.175C456.097 580.532 426.527 598.824 420.58 626.613C414.634 654.401 382.388 671.983 371.039 672.909C359.691 673.835 332.303 709.539 329.116 732.33C326.566 750.563 314.484 756.857 308.762 757.725C323.169 760.118 336.131 746.37 347.291 735.366C358.45 724.362 383.238 717.335 415.385 712.262Z" fill="#465B56"/>
<path d="M1555.45 394.822C1529.6 391.42 1485.31 372.441 1466.39 363.378C1435.77 355.094 1444.91 367.899 1447.11 380.563C1449.31 393.228 1524.02 416.209 1543.17 411.768C1562.31 407.326 1575.33 431.856 1587.23 429.555C1599.14 427.255 1587.76 399.074 1555.45 394.822Z" fill="#717371"/>
<path d="M1440.6 281.751C1428.32 292.239 1436.21 327.874 1441.69 344.38C1475.17 371.746 1558.54 303.939 1562.9 291.105C1567.27 278.271 1553.85 274.966 1534.18 265.415C1514.52 255.864 1529.05 224.264 1499.89 219.56C1470.74 214.855 1455.94 268.642 1440.6 281.751Z" fill="#6C837D"/>
<path d="M1590.28 302.094C1567.52 285.329 1494.82 304.164 1461.31 315.677C1435.52 323.389 1443.67 355.567 1450.97 370.691L1587.75 396.423C1606.59 399.967 1607.12 380.56 1601.89 370.994C1596.67 361.428 1618.72 323.05 1590.28 302.094Z" fill="#AFAFB1"/>
<path d="M1522.93 256.627C1518.57 274.579 1492.17 301.435 1479.51 312.619C1466.01 325.598 1482.55 349.687 1493.96 347.263C1505.37 344.839 1543.4 327.672 1550.26 321.68C1557.12 315.687 1570.91 308.271 1559.19 305.578C1547.48 302.886 1505.57 331.286 1500.73 334.418C1495.88 337.55 1494.9 329.447 1507.64 321.177C1520.39 312.907 1543.93 291.978 1548.51 286.014C1553.08 280.05 1569.64 267.794 1552.93 274.537C1539.56 279.932 1506.37 306.75 1491.45 319.485C1501.84 308.643 1523.05 284.939 1524.71 276.852C1526.78 266.743 1535.98 247.565 1537.14 239.831C1538.3 232.096 1528.38 234.187 1522.93 256.627Z" fill="#3B4B17"/>
<path d="M1561.25 315.359C1557.3 314.615 1554.7 310.807 1555.44 306.853C1556.18 302.899 1559.99 300.296 1563.95 301.04C1567.9 301.784 1570.5 305.592 1569.76 309.546C1569.01 313.5 1565.21 316.103 1561.25 315.359Z" fill="#7A745E"/>
<path d="M1560.09 280.031C1556.14 279.287 1553.54 275.478 1554.28 271.524C1555.03 267.57 1558.83 264.968 1562.79 265.712C1566.74 266.456 1569.34 270.264 1568.6 274.218C1567.86 278.172 1564.05 280.774 1560.09 280.031Z" fill="#AD927C"/>
<path d="M1533.64 242.282C1529.69 241.538 1527.09 237.73 1527.83 233.776C1528.58 229.822 1532.38 227.219 1536.34 227.963C1540.29 228.707 1542.89 232.515 1542.15 236.469C1541.41 240.423 1537.6 243.026 1533.64 242.282Z" fill="#7A745E"/>
<path d="M1454.34 278.082C1453.24 302.219 1439.6 332.269 1432.92 344.277C1405.29 302.407 1433.59 251.549 1438.92 237.726C1444.25 223.904 1482.25 206.474 1484.34 224.422C1486.42 242.371 1455.73 247.911 1454.34 278.082Z" fill="#4C5E59"/>
<path d="M1481.13 293.664C1429.94 304.542 1422.91 338.333 1425.79 353.869C1424.62 406.369 1466.54 371.209 1492.98 392.627C1519.42 414.046 1577.19 402.664 1569.78 390.629C1562.37 378.595 1571.14 362.832 1576.54 354.66C1581.95 346.487 1559.92 327.348 1536.74 322.02C1513.56 316.692 1545.11 280.066 1481.13 293.664Z" fill="#C6C9C6"/>
<path d="M1423.25 295.038C1436.41 302.184 1439.96 337.011 1440.09 353.531C1420.05 374.262 1407.53 358.661 1409.64 342.457C1411.74 326.253 1397.64 310.522 1391.66 307.837C1385.69 305.153 1377.69 280.535 1380.34 267.57C1382.46 257.197 1377.12 251.462 1374.18 249.891C1382.45 251.365 1386.84 261.31 1390.77 269.42C1394.71 277.53 1406.8 286.106 1423.25 295.038Z" fill="#6C837D"/>
<path d="M328.545 394.822C354.394 391.42 398.69 372.441 417.607 363.378C448.228 355.094 439.085 367.899 436.885 380.563C434.684 393.228 359.977 416.209 340.83 411.768C321.683 407.326 308.668 431.856 296.764 429.555C284.859 427.255 296.233 399.074 328.545 394.822Z" fill="#717371"/>
<path d="M443.398 281.751C455.671 292.239 447.784 327.874 442.306 344.38C408.829 371.746 325.457 303.939 321.092 291.105C316.727 278.271 330.151 274.966 349.812 265.415C369.473 255.864 354.945 224.264 384.101 219.56C413.257 214.855 428.057 268.642 443.398 281.751Z" fill="#6C837D"/>
<path d="M293.719 302.094C316.471 285.329 389.174 304.164 422.681 315.677C448.477 323.389 440.329 355.567 433.031 370.691L296.249 396.423C277.409 399.967 276.879 380.56 282.102 370.994C287.325 361.428 265.28 323.05 293.719 302.094Z" fill="#AFAFB1"/>
<path d="M361.064 256.627C365.425 274.579 391.826 301.435 404.481 312.619C417.984 325.598 401.446 349.687 390.038 347.263C378.629 344.839 340.595 327.672 333.734 321.68C326.872 315.687 313.087 308.271 324.802 305.578C336.518 302.886 378.421 331.286 383.27 334.418C388.12 337.55 389.099 329.447 376.351 321.177C363.603 312.907 340.061 291.978 335.488 286.014C330.914 280.05 314.354 267.794 331.069 274.537C344.441 279.932 377.628 306.75 392.55 319.485C382.152 308.643 360.942 284.939 359.286 276.852C357.216 266.743 348.011 247.565 346.855 239.831C345.699 232.096 355.612 234.187 361.064 256.627Z" fill="#3B4B17"/>
<path d="M322.743 315.359C326.697 314.615 329.3 310.807 328.556 306.853C327.812 302.899 324.004 300.296 320.05 301.04C316.096 301.784 313.493 305.592 314.237 309.546C314.981 313.5 318.789 316.103 322.743 315.359Z" fill="#7A745E"/>
<path d="M323.901 280.031C327.855 279.287 330.457 275.478 329.714 271.524C328.97 267.57 325.161 264.968 321.207 265.712C317.253 266.456 314.651 270.264 315.395 274.218C316.139 278.172 319.947 280.774 323.901 280.031Z" fill="#AD927C"/>
<path d="M350.352 242.282C354.306 241.538 356.908 237.73 356.164 233.776C355.421 229.822 351.612 227.219 347.658 227.963C343.704 228.707 341.102 232.515 341.846 236.469C342.59 240.423 346.398 243.026 350.352 242.282Z" fill="#7A745E"/>
<path d="M429.652 278.082C430.76 302.219 444.398 332.269 451.078 344.277C478.705 302.407 450.41 251.549 445.079 237.726C439.748 223.904 401.746 206.474 399.66 224.422C397.575 242.371 428.268 247.911 429.652 278.082Z" fill="#4C5E59"/>
<path d="M402.866 293.664C454.052 304.542 461.086 338.333 458.204 353.869C459.375 406.369 417.454 371.209 391.013 392.627C364.573 414.046 306.811 402.664 314.219 390.629C321.628 378.595 312.859 362.832 307.453 354.66C302.046 346.487 324.079 327.348 347.26 322.02C370.44 316.692 338.883 280.066 402.866 293.664Z" fill="#C6C9C6"/>
<path d="M460.743 295.038C447.581 302.184 444.032 337.011 443.902 353.531C463.95 374.262 476.469 358.661 474.36 342.457C472.252 326.253 486.358 310.522 492.332 307.837C498.305 305.153 506.301 280.535 503.656 267.57C501.539 257.197 506.881 251.462 509.816 249.891C501.547 251.365 497.159 261.31 493.221 269.42C489.283 277.53 477.196 286.106 460.743 295.038Z" fill="#6C837D"/>
<path fill-rule="evenodd" clip-rule="evenodd" d="M1874.09 642H0.904297L98.2578 568.309L123.003 601H1752L1776.74 568.309L1874.09 642ZM1694.52 560C1730.97 585.083 1752 601 1752 601C1776.74 568.309 1776.73 568.304 1776.72 568.297L1776.61 568.21L1776.31 567.983L1775.99 567.74C1775.77 567.578 1775.51 567.382 1775.2 567.153C1774.24 566.435 1772.84 565.392 1771.02 564.046C1767.38 561.354 1762.04 557.446 1755.16 552.498C1741.39 542.603 1721.42 528.535 1696.41 511.684C1646.42 478.008 1576.08 433.084 1494.63 388.108C1333.63 299.206 1122.1 206 937.5 206C752.902 206 541.374 299.206 380.373 388.108C298.924 433.084 228.576 478.008 178.588 511.684C153.575 528.535 133.609 542.603 119.844 552.498C112.96 557.446 107.624 561.354 103.979 564.046C102.157 565.392 100.757 566.435 99.7971 567.153C99.3174 567.512 98.9477 567.789 98.6904 567.983C98.5618 568.08 98.4612 568.156 98.389 568.21L98.2746 568.297C98.2653 568.304 98.2578 568.309 123.003 601C123.003 601 144.03 585.083 180.475 560C315.903 466.79 664.217 247 937.5 247C1210.78 247 1559.1 466.79 1694.52 560Z" fill="#CDBD82"/>
<path d="M1205.34 85.8689C1224.3 97.4318 1232.23 155.92 1233.82 183.719C1235.88 204.777 1210.05 208.423 1196.88 207.613C1179.8 181.215 1133.71 144.119 1127.17 133.998C1118.98 121.348 1143.25 96.9608 1151.76 97.9146C1160.27 98.8683 1181.63 71.4153 1205.34 85.8689Z" fill="#AFAFB1"/>
<path d="M1073.51 292.273C1032.31 268.691 984.456 269.893 965.681 273.441C933.905 262.232 982.94 243.401 1038.91 268.687C1094.87 293.973 1102.63 292.028 1116.96 296.971C1131.29 301.913 1142.27 291.71 1157.26 285.05C1172.26 278.39 1176.28 281.934 1179.8 280.312C1183.32 278.691 1185.89 279.64 1185.26 268.76C1184.63 257.881 1179.68 236.82 1188.41 229.91C1197.15 222.999 1199.66 211.047 1202.13 203.886C1204.6 196.726 1193.09 186.468 1205.24 187.518C1217.4 188.568 1212.17 213.944 1199.52 225.42C1186.87 236.896 1189.5 250.745 1192.25 270.308C1195 289.872 1201.74 279.991 1217.43 277.025C1233.13 274.058 1237.37 273.734 1254.32 274.835C1271.27 275.935 1289.32 295.476 1263.19 291.33C1237.05 287.183 1234.51 283.839 1182.25 293.238C1129.99 302.637 1125.01 321.75 1073.51 292.273Z" fill="#33544B"/>
<path d="M1142.04 141.384C1156.06 156.323 1185.39 183.159 1197.61 194.223C1212.75 214.033 1200.71 211.191 1190.84 213.358C1180.98 215.525 1152.9 179.671 1138.34 177.567C1123.05 175.357 1117.82 155.008 1115.96 145.664C1114.09 136.32 1130.54 129.129 1142.04 141.384Z" fill="#687F79"/>
<path d="M1264.66 188.698C1260.68 200.745 1232.41 205.608 1218.78 206.533C1188.91 190.323 1213.44 109.505 1221.47 102.512C1229.51 95.5191 1235.91 104.3 1248.7 115.761C1261.5 127.222 1280.16 107.254 1292.26 127.063C1304.36 146.872 1269.63 173.638 1264.66 188.698Z" fill="#6C837D"/>
<path d="M1258.44 121.332C1246.68 129.845 1235 157.039 1230.63 169.572C1225.21 183.254 1202.76 178.391 1201.13 169.371C1199.5 160.351 1200.68 127.578 1202.99 120.804C1205.31 114.03 1206.61 101.796 1212.05 109.517C1217.49 117.238 1209.3 156.168 1208.46 160.627C1207.63 165.086 1213.81 163.388 1216.04 151.655C1218.26 139.922 1226.48 116.571 1229.46 111.47C1232.44 106.369 1236.43 90.6771 1236.49 104.842C1236.55 116.173 1226.91 148.292 1222.09 162.935C1226.88 152.146 1237.81 129.666 1243.2 126.056C1249.94 121.543 1261.15 109.142 1266.43 106C1271.72 102.858 1273.15 110.692 1258.44 121.332Z" fill="#3B4B17"/>
<path d="M1204.32 110.93C1206.04 113.585 1209.58 114.345 1212.24 112.628C1214.89 110.911 1215.65 107.366 1213.94 104.711C1212.22 102.056 1208.67 101.296 1206.02 103.014C1203.36 104.731 1202.6 108.275 1204.32 110.93Z" fill="#7A745E"/>
<path d="M1230.37 101.261C1232.08 103.916 1235.63 104.676 1238.28 102.958C1240.94 101.241 1241.7 97.6967 1239.98 95.0417C1238.26 92.3868 1234.72 91.6267 1232.06 93.344C1229.41 95.0613 1228.65 98.6058 1230.37 101.261Z" fill="#C6C9C6"/>
<path d="M1265.69 109.272C1267.41 111.927 1270.95 112.687 1273.61 110.969C1276.26 109.252 1277.02 105.708 1275.31 103.053C1273.59 100.398 1270.05 99.6377 1267.39 101.355C1264.74 103.072 1263.98 106.617 1265.69 109.272Z" fill="#7A745E"/>
<path d="M1263.24 177.608C1246.01 185.594 1228.21 204.454 1221.46 212.885C1260.14 220.526 1288.72 184.815 1297.19 176.825C1305.65 168.834 1307.03 136.006 1293.35 139.828C1279.68 143.651 1284.78 167.626 1263.24 177.608Z" fill="#4C5E59"/>
<path d="M1243.94 162.758C1251.25 203.227 1228.77 218.396 1216.61 220.922C1178.77 237.391 1191.87 196.437 1168.43 183.575C1144.98 170.714 1136.08 125.31 1147.03 127.12C1157.99 128.929 1166.85 117.861 1171.19 111.497C1175.52 105.133 1196 115.467 1206.77 130.744C1217.54 146.021 1234.8 112.17 1243.94 162.758Z" fill="#C6C9C6"/>
<path d="M678.659 85.8689C659.696 97.4318 651.77 155.92 650.177 183.719C648.113 204.777 673.943 208.423 687.116 207.613C704.191 181.215 750.284 144.119 756.831 133.998C765.014 121.348 740.747 96.9608 732.235 97.9146C723.723 98.8683 702.363 71.4153 678.659 85.8689Z" fill="#AFAFB1"/>
<path d="M810.489 292.273C851.689 268.691 899.54 269.893 918.315 273.441C950.091 262.232 901.056 243.401 845.09 268.687C789.124 293.973 781.363 292.028 767.035 296.971C752.707 301.913 741.73 291.71 726.733 285.05C711.736 278.39 707.716 281.934 704.198 280.312C700.679 278.691 698.108 279.64 698.736 268.76C699.365 257.881 704.315 236.82 695.582 229.91C686.85 222.999 684.334 211.047 681.866 203.886C679.398 196.726 690.908 186.468 678.753 187.518C666.598 188.568 671.829 213.944 684.478 225.42C697.127 236.896 694.501 250.745 691.747 270.308C688.994 289.872 682.26 279.991 666.562 277.025C650.865 274.058 646.622 273.734 629.675 274.835C612.728 275.935 594.676 295.476 620.808 291.33C646.941 287.183 649.488 283.839 701.746 293.238C754.005 302.637 758.989 321.75 810.489 292.273Z" fill="#33544B"/>
<path d="M741.956 141.384C727.931 156.323 698.605 183.159 686.384 194.223C671.249 214.033 683.284 211.191 693.151 213.358C703.018 215.525 731.097 179.671 745.659 177.567C760.947 175.357 766.172 155.008 768.04 145.664C769.908 136.32 753.459 129.129 741.956 141.384Z" fill="#687F79"/>
<path d="M619.335 188.698C623.313 200.745 651.581 205.608 665.218 206.533C695.082 190.323 670.56 109.505 662.523 102.512C654.486 95.5191 648.088 104.3 635.292 115.761C622.495 127.222 603.831 107.254 591.735 127.063C579.64 146.872 614.363 173.638 619.335 188.698Z" fill="#6C837D"/>
<path d="M625.552 121.332C637.313 129.845 648.995 157.039 653.366 169.572C658.79 183.254 681.233 178.391 682.863 169.371C684.493 160.351 683.32 127.578 681.003 120.804C678.685 114.03 677.391 101.796 671.947 109.517C666.503 117.238 674.697 156.168 675.532 160.627C676.368 165.086 670.183 163.388 667.959 151.655C665.736 139.922 657.515 116.571 654.537 111.47C651.559 106.369 647.57 90.6771 647.503 104.842C647.449 116.173 657.085 148.292 661.909 162.935C657.116 152.146 646.183 129.666 640.793 126.056C634.055 121.543 622.843 109.142 617.561 106C612.279 102.858 610.85 110.692 625.552 121.332Z" fill="#3B4B17"/>
<path d="M679.675 110.93C677.957 113.585 674.413 114.345 671.758 112.628C669.103 110.911 668.343 107.366 670.06 104.711C671.778 102.056 675.322 101.296 677.977 103.014C680.632 104.731 681.392 108.275 679.675 110.93Z" fill="#7A745E"/>
<path d="M653.63 101.261C651.913 103.916 648.369 104.676 645.714 102.958C643.059 101.241 642.299 97.6967 644.016 95.0417C645.733 92.3868 649.278 91.6267 651.933 93.344C654.587 95.0613 655.348 98.6058 653.63 101.261Z" fill="#C6C9C6"/>
<path d="M618.303 109.272C616.585 111.927 613.041 112.687 610.386 110.969C607.731 109.252 606.971 105.708 608.688 103.053C610.406 100.398 613.95 99.6377 616.605 101.355C619.26 103.072 620.02 106.617 618.303 109.272Z" fill="#7A745E"/>
<path d="M620.754 177.608C637.982 185.594 655.785 204.454 662.532 212.885C623.857 220.526 595.279 184.815 586.81 176.825C578.341 168.834 576.967 136.006 590.643 139.828C604.32 143.651 599.219 167.626 620.754 177.608Z" fill="#4C5E59"/>
<path d="M640.056 162.758C632.742 203.227 655.23 218.396 667.388 220.922C705.229 237.391 692.124 196.437 715.57 183.575C739.016 170.714 747.919 125.31 736.961 127.12C726.003 128.929 717.145 117.861 712.809 111.497C708.472 105.133 687.996 115.467 677.225 130.744C666.453 146.021 649.198 112.17 640.056 162.758Z" fill="#C6C9C6"/>
<path d="M1291.5 406.228C1264.25 403.373 1233.89 346.977 1222.12 319.136C1241.5 270.031 1273.58 287.633 1281.35 316.509C1289.12 345.384 1323.97 362.093 1335.95 362.444C1347.92 362.796 1378.66 398.815 1383.26 422.59C1386.94 441.611 1399.98 447.563 1406.04 448.162C1391.03 451.466 1376.65 437.729 1364.32 426.776C1352 415.824 1325.56 409.797 1291.5 406.228Z" fill="#819F98"/>
<path d="M592.493 406.228C619.741 403.373 650.104 346.977 661.879 319.136C642.492 270.031 610.417 287.633 602.645 316.509C594.874 345.384 560.025 362.093 548.049 362.444C536.073 362.796 505.335 398.815 500.738 422.59C497.06 441.611 484.019 447.563 477.958 448.162C492.966 451.466 507.341 437.729 519.671 426.776C532.001 415.824 558.433 409.797 592.493 406.228Z" fill="#819F98"/>
<path d="M1443.73 382.34C1332.09 287.527 1153.41 227.942 1078.02 210C1081.37 219.457 1097.81 222.568 1133.91 233.363C1170.01 244.158 1294.9 300.067 1334.36 316.972C1373.83 333.877 1450.71 395.191 1455.37 400.513C1460.03 405.834 1589.39 500.533 1600.31 510.417C1611.23 520.301 1678 541.393 1678.17 539.583C1678.35 537.773 1667.72 531.358 1653.18 527.457C1642.97 524.72 1641.46 524.976 1611.62 507.879C1574.8 486.787 1520.8 447.798 1443.73 382.34Z" fill="#33544B"/>
<path d="M440.266 382.34C551.901 287.527 730.588 227.942 805.976 210C802.628 219.457 786.185 222.568 750.088 233.363C713.99 244.158 589.097 300.067 549.632 316.972C510.168 333.877 433.288 395.191 428.627 400.513C423.966 405.834 294.602 500.533 283.684 510.417C272.767 520.301 206 541.393 205.825 539.583C205.65 537.773 216.28 531.358 230.82 527.457C241.025 524.72 242.536 524.976 272.378 507.879C309.194 486.787 363.193 447.798 440.266 382.34Z" fill="#33544B"/>
<path d="M1413.56 593.529C1268.69 571.997 1085.49 615.795 1012 640.386C1019.84 646.647 1035.44 640.603 1071.8 630.7C1108.15 620.797 1243.73 602.293 1286.17 595.799C1328.61 589.306 1426.27 600.755 1433.04 602.811C1439.81 604.867 1599.68 616.938 1614.17 619.563C1628.66 622.188 1696.49 604.827 1695.68 603.198C1694.88 601.569 1682.46 601.737 1668.06 606.106C1657.94 609.172 1656.8 610.187 1622.43 611.435C1580.02 612.975 1513.58 608.395 1413.56 593.529Z" fill="#33544B"/>
<path d="M470.437 593.529C615.31 571.997 798.506 615.795 871.996 640.386C864.157 646.647 848.552 640.603 812.2 630.7C775.847 620.797 640.268 602.293 597.829 595.799C555.39 589.306 457.723 600.755 450.955 602.811C444.186 604.867 284.319 616.938 269.828 619.563C255.337 622.188 187.504 604.827 188.312 603.198C189.119 601.569 201.534 601.737 215.94 606.106C226.051 609.172 227.199 610.187 261.569 611.435C303.971 612.975 370.417 608.395 470.437 593.529Z" fill="#33544B"/>
<path d="M1727 517.341C1713.07 536.377 1711.85 554.462 1712.98 561.125C1709.61 572.831 1714.81 594.492 1720.84 595.364C1726.88 596.237 1737.52 568.187 1744.47 558.95C1751.41 549.713 1757.95 527.973 1758.63 509.73C1759.17 495.137 1765.43 480.769 1768.5 475.41C1767.3 475.93 1763.17 480.04 1756.2 492.325C1747.5 507.682 1744.42 493.545 1727 517.341Z" fill="#607671"/>
<path d="M156.992 517.341C170.928 536.377 172.149 554.462 171.018 561.125C174.386 572.831 169.187 594.492 163.151 595.364C157.115 596.237 146.473 568.187 139.529 558.95C132.585 549.713 126.045 527.973 125.369 509.73C124.828 495.137 118.561 480.769 115.495 475.41C116.692 475.93 120.828 480.04 127.791 492.325C136.496 507.682 139.573 493.545 156.992 517.341Z" fill="#607671"/>
<path d="M1750.18 536.435C1751.27 547.779 1746.04 566.074 1743.29 573.803C1735.52 581.636 1745.19 599.489 1735.31 597.113C1725.43 594.736 1728.51 596.76 1724.48 594.646C1720.44 592.533 1721.25 583.947 1717.23 573.557C1713.2 563.168 1705.02 539.681 1703.98 529.284C1702.94 518.887 1731.68 518.327 1742.08 517.287C1752.47 516.246 1748.83 522.255 1750.18 536.435Z" fill="#465B56"/>
<path d="M1783.79 581.091C1764.53 581.199 1749.23 587.358 1747.6 587.3C1731.12 594.6 1769 595.095 1773.12 593.27C1777.23 591.445 1785.35 602.317 1803.13 599.567C1820.91 596.817 1822.62 578.691 1816.47 569.352C1810.33 560.014 1803.05 580.984 1783.79 581.091Z" fill="#AFAFB1"/>
<path d="M1777.5 585.597C1769.76 591.72 1746.79 588.378 1736.27 585.942C1727.33 577.687 1752.76 559.104 1762.94 545.05C1773.12 530.996 1773.12 542.257 1783.3 542.448C1793.49 542.639 1787.18 544.162 1792.1 542.027C1797.02 539.892 1802.2 546.156 1804.55 549.843C1806.9 553.529 1810.69 559.181 1805.24 570.024C1799.79 580.867 1787.17 577.944 1777.5 585.597Z" fill="#6C837D"/>
<path d="M1794.95 536.327C1796.81 544.107 1744.3 575.245 1742.8 574.911C1726.98 561.964 1739.98 516.029 1747.57 513.088C1755.16 510.147 1760.28 515.058 1767.4 519.194C1774.52 523.33 1793.08 528.548 1794.95 536.327Z" fill="#AFAFB1"/>
<path d="M1756.27 601.401C1746.18 601.449 1739.06 597.883 1736.76 596.094C1736.04 581.204 1763.78 588.153 1786.59 594.251C1809.41 600.35 1805.86 611.373 1803.34 609.595C1800.81 607.817 1797.14 604.872 1794.17 610.848C1791.2 616.823 1783.74 611.211 1775.33 605.509C1766.92 599.806 1768.89 601.34 1756.27 601.401Z" fill="#C6C9C6"/>
<path d="M133.814 536.435C132.728 547.779 137.958 566.074 140.709 573.803C148.474 581.636 138.801 599.489 148.683 597.113C158.565 594.736 155.483 596.76 159.519 594.646C163.555 592.533 162.744 583.947 166.769 573.557C170.793 563.168 178.972 539.681 180.012 529.284C181.052 518.887 152.317 518.327 141.92 517.287C131.524 516.246 135.171 522.255 133.814 536.435Z" fill="#465B56"/>
<path d="M100.202 581.091C119.462 581.199 134.77 587.358 136.401 587.3C152.874 594.6 114.999 595.095 110.88 593.27C106.762 591.445 98.6442 602.317 80.8674 599.567C63.0906 596.817 61.3801 578.691 67.525 569.352C73.67 560.014 80.9425 580.984 100.202 581.091Z" fill="#AFAFB1"/>
<path d="M106.499 585.597C114.237 591.72 137.208 588.378 147.726 585.942C156.669 577.687 131.237 559.104 121.056 545.05C110.875 530.996 110.878 542.257 100.694 542.448C90.5097 542.639 96.8134 544.162 91.8958 542.027C86.9781 539.892 81.7947 546.156 79.4476 549.843C77.1005 553.529 73.3026 559.181 78.7533 570.024C84.2039 580.867 96.8254 577.944 106.499 585.597Z" fill="#6C837D"/>
<path d="M89.0489 536.327C87.1842 544.107 139.691 575.245 141.199 574.911C157.014 561.964 144.016 516.029 136.424 513.088C128.831 510.147 123.712 515.058 116.596 519.194C109.479 523.33 90.9135 528.548 89.0489 536.327Z" fill="#AFAFB1"/>
<path d="M127.721 601.401C137.813 601.449 144.939 597.883 147.24 596.094C147.953 581.204 120.215 588.153 97.4018 594.251C74.5888 600.35 78.1315 611.373 80.6586 609.595C83.1858 607.817 86.8541 604.872 89.8242 610.848C92.7944 616.823 100.254 611.211 108.667 605.509C117.08 599.806 115.107 601.34 127.721 601.401Z" fill="#C6C9C6"/>
<path d="M1701.44 490.139C1695.13 475.447 1677.85 469.617 1670 468.539C1671.41 477.213 1682.38 497.533 1685.88 507.71C1689.37 517.887 1701.27 521.174 1705.38 525.725C1708.68 529.365 1713.09 529.692 1714.88 529.4C1712.44 528.876 1706.88 525.85 1704.12 517.948C1700.67 508.07 1709.34 508.504 1701.44 490.139Z" fill="#819F98"/>
<path d="M182.551 490.139C188.867 475.447 206.146 469.617 213.996 468.539C212.587 477.213 201.612 497.533 198.117 507.71C194.622 517.887 182.729 521.174 178.613 525.725C175.319 529.365 170.907 529.692 169.113 529.4C171.552 528.876 177.119 525.85 179.876 517.948C183.322 508.07 174.656 508.504 182.551 490.139Z" fill="#819F98"/>
<path d="M1710.61 589.15C1703.49 592.159 1692.64 593.269 1688.11 593.448C1690.31 598.723 1699.17 595.26 1707.54 596.631C1715.92 598.003 1741.27 613.823 1763.98 612.016C1786.69 610.209 1812.22 583.685 1826.47 582.948C1837.86 582.358 1854.24 572.143 1861 567.109C1852.68 569.125 1840.37 567.417 1831.95 564.501C1823.52 561.585 1813.57 567.94 1803.11 566.226C1792.64 564.511 1786.7 559.546 1754.66 558.291C1722.63 557.035 1719.52 585.389 1710.61 589.15Z" fill="#819F98"/>
<path d="M173.384 589.15C180.509 592.159 191.356 593.269 195.889 593.448C193.682 598.723 184.825 595.26 176.452 596.631C168.079 598.003 142.728 613.823 120.016 612.016C97.3052 610.209 71.7736 583.685 57.5282 582.948C46.1318 582.358 29.7608 572.143 22.9998 567.109C31.3135 569.125 43.6231 567.417 52.0502 564.501C60.4773 561.585 70.4228 567.94 80.8891 566.226C91.3553 564.511 97.2973 559.546 129.333 558.291C161.368 557.035 164.477 585.389 173.384 589.15Z" fill="#819F98"/>
<path d="M1667.01 603.101C1685.78 591.753 1681.7 556.398 1677.32 540.14C1675.91 582.179 1639.21 604.557 1621.04 610.491C1628.54 612.756 1648.24 614.449 1667.01 603.101Z" fill="#465B56"/>
<path d="M216.987 603.101C198.22 591.753 202.292 556.398 206.674 540.14C208.09 582.179 244.785 604.557 262.955 610.491C255.452 612.756 235.754 614.449 216.987 603.101Z" fill="#465B56"/>
<path d="M1715.21 561.327C1712.2 550.919 1694.82 548.324 1686.5 548.328C1706.37 554.398 1712.34 574.773 1712.83 584.201C1714.88 580.913 1718.21 571.735 1715.21 561.327Z" fill="#465B56"/>
<path d="M168.787 561.327C171.792 550.919 189.178 548.324 197.496 548.328C177.625 554.398 171.66 574.773 171.161 584.201C169.118 580.913 165.783 571.735 168.787 561.327Z" fill="#465B56"/>
<path d="M1704.73 568.731C1696.74 561.415 1680.55 568.265 1673.45 572.604C1693.58 567.425 1709.29 581.703 1714.63 589.488C1714.66 585.617 1712.72 576.046 1704.73 568.731Z" fill="#465B56"/>
<path d="M179.267 568.731C187.257 561.415 203.446 568.265 210.542 572.604C190.421 567.425 174.709 581.703 169.368 589.488C169.338 585.617 171.277 576.046 179.267 568.731Z" fill="#465B56"/>
<path d="M1721.5 600.648C1723.68 611.261 1709.48 621.634 1702.12 625.493C1716.89 610.889 1712.71 590.075 1708.78 581.493C1712.11 583.456 1719.33 590.036 1721.5 600.648Z" fill="#465B56"/>
<path d="M162.493 600.648C160.32 611.261 174.513 621.634 181.881 625.493C167.102 610.889 171.282 590.075 175.219 581.493C171.883 583.456 164.666 590.036 162.493 600.648Z" fill="#465B56"/>
<path d="M1628.5 460.95C1631.98 465.659 1619.5 474.032 1612.82 477.629C1599.4 496.68 1576.6 496.86 1568.96 500.999C1561.32 505.137 1561.74 494.696 1558.3 486.609C1554.86 478.522 1542.01 470.816 1549.71 460.558C1557.4 450.301 1578.7 454.279 1591.98 449.504C1605.27 444.729 1624.14 455.063 1628.5 460.95Z" fill="#A07F64"/>
<path d="M255.5 460.95C252.012 465.659 264.5 474.032 271.18 477.629C284.592 496.68 307.399 496.86 315.037 500.999C322.676 505.137 322.255 494.696 325.696 486.609C329.138 478.522 341.982 470.816 334.288 460.558C326.594 450.301 305.298 454.279 292.014 449.504C278.729 444.729 259.86 455.063 255.5 460.95Z" fill="#A07F64"/>
<path d="M1333.47 305.597C1328.15 312.781 1347.2 325.554 1357.39 331.042C1377.85 360.106 1412.64 360.38 1424.3 366.694C1435.95 373.008 1435.31 357.078 1440.56 344.741C1445.81 332.404 1465.4 320.648 1453.66 304.999C1441.93 289.351 1409.44 295.419 1389.17 288.135C1368.91 280.85 1340.12 296.616 1333.47 305.597Z" fill="#A07F64"/>
<path d="M550.529 305.597C555.85 312.781 536.799 325.554 526.607 331.042C506.147 360.106 471.354 360.38 459.7 366.694C448.047 373.008 448.69 357.078 443.439 344.741C438.189 332.404 418.594 320.648 430.332 304.999C442.069 289.351 474.559 295.419 494.825 288.135C515.09 280.85 543.876 296.616 550.529 305.597Z" fill="#A07F64"/>
<path d="M1631.59 444.719C1633.81 455.348 1622.73 456.391 1616.92 455.585C1611.38 459.689 1577.31 455.267 1568.91 452.792C1560.52 450.318 1562.31 441.832 1563.86 437.106C1565.41 432.38 1574.04 424.959 1576.08 420.894C1578.12 416.829 1584.88 408.24 1601.75 404.436C1618.62 400.633 1619.43 394.916 1626.2 394.508C1632.96 394.099 1635.74 401.25 1632.89 408.987C1630.03 416.723 1628.82 431.433 1631.59 444.719Z" fill="#AD927C"/>
<path d="M252.407 444.719C250.188 455.348 261.261 456.391 267.075 455.585C272.616 459.689 306.686 455.267 315.082 452.792C323.477 450.318 321.686 441.832 320.138 437.106C318.59 432.38 309.953 424.959 307.916 420.894C305.879 416.829 299.116 408.24 282.245 404.436C265.375 400.633 264.561 394.916 257.796 394.508C251.032 394.099 248.259 401.25 251.11 408.987C253.961 416.723 255.181 431.433 252.407 444.719Z" fill="#AD927C"/>
<path d="M1328.75 280.836C1325.36 297.051 1342.26 298.643 1351.13 297.412C1359.58 303.674 1411.56 296.927 1424.36 293.152C1437.17 289.378 1434.44 276.432 1432.08 269.222C1429.72 262.013 1416.54 250.691 1413.43 244.489C1410.32 238.287 1400.01 225.184 1374.27 219.382C1348.53 213.579 1347.29 204.859 1336.97 204.235C1326.65 203.612 1322.42 214.521 1326.77 226.324C1331.12 238.127 1332.98 260.568 1328.75 280.836Z" fill="#AD927C"/>
<path d="M555.247 280.836C558.632 297.051 541.739 298.643 532.869 297.412C524.416 303.674 472.44 296.927 459.632 293.152C446.825 289.378 449.557 276.432 451.918 269.222C454.279 262.013 467.457 250.691 470.564 244.489C473.671 238.287 483.989 225.184 509.726 219.382C535.463 213.579 536.705 204.859 547.025 204.235C557.345 203.612 561.575 214.521 557.225 226.324C552.876 238.127 551.015 260.568 555.247 280.836Z" fill="#AD927C"/>
<path d="M1613.48 472.733C1643.46 457.92 1647.79 487.528 1650.77 489.979C1669.18 508.819 1654.35 526.314 1650.1 535.507C1645.85 544.699 1618.17 543.21 1599.79 538.596C1581.42 533.982 1588.35 510.944 1586.9 500.213C1585.46 489.481 1583.51 487.545 1613.48 472.733Z" fill="#AD927C"/>
<path d="M270.513 472.733C240.541 457.92 236.205 487.528 233.225 489.979C214.816 508.819 229.65 526.314 233.897 535.507C238.144 544.699 265.825 543.21 284.201 538.596C302.578 533.982 295.646 510.944 297.093 500.213C298.54 489.481 300.485 487.545 270.513 472.733Z" fill="#AD927C"/>
<path d="M1356.37 323.573C1310.65 300.975 1304.03 346.144 1299.49 349.883C1271.4 378.626 1294.03 405.315 1300.51 419.339C1306.99 433.363 1349.22 431.091 1377.25 424.052C1405.29 417.013 1394.71 381.867 1396.92 365.496C1399.13 349.124 1402.1 346.171 1356.37 323.573Z" fill="#AD927C"/>
<path d="M527.624 323.573C573.349 300.975 579.963 346.144 584.51 349.883C612.594 378.626 589.963 405.315 583.484 419.339C577.005 433.363 534.776 431.091 506.741 424.052C478.707 417.013 489.282 381.867 487.074 365.496C484.866 349.124 481.9 346.171 527.624 323.573Z" fill="#AD927C"/>
<path d="M1676.56 518.213C1658.26 523.637 1638.53 490.843 1630.96 473.768C1612.15 421.672 1694.08 456.979 1700.59 460.287C1707.09 463.594 1701.35 470.898 1697.11 485.717C1692.88 500.537 1699.42 511.432 1676.56 518.213Z" fill="#7A745E"/>
<path d="M207.439 518.213C225.734 523.637 245.461 490.843 253.038 473.768C271.85 421.672 189.915 456.979 183.409 460.287C176.902 463.594 182.648 470.898 186.884 485.717C191.12 500.537 184.571 511.432 207.439 518.213Z" fill="#7A745E"/>
<path d="M1260.15 392.955C1288.06 401.231 1318.15 351.201 1329.71 325.152C1358.41 245.677 1233.41 299.54 1223.49 304.585C1213.56 309.63 1222.33 320.773 1228.79 343.382C1235.25 365.99 1225.26 382.611 1260.15 392.955Z" fill="#7A745E"/>
<path d="M623.847 392.955C595.938 401.231 565.843 351.201 554.284 325.152C525.585 245.677 650.582 299.54 660.508 304.585C670.434 309.63 661.668 320.773 655.206 343.382C648.744 365.99 658.735 382.611 623.847 392.955Z" fill="#7A745E"/>
<path d="M1706.42 425.859C1707.77 435.928 1665.33 451.684 1643.94 458.304C1616.66 478.507 1622.63 455.641 1618.32 440.894C1614.01 426.148 1633.64 414.171 1639.58 401.575C1645.51 388.978 1669.13 389.937 1674.27 396.887C1679.42 403.836 1704.73 413.273 1706.42 425.859Z" fill="#AFAFB1"/>
<path d="M177.575 425.859C176.224 435.928 218.667 451.684 240.057 458.304C267.331 478.507 261.368 455.641 265.675 440.894C269.982 426.148 250.355 414.171 244.418 401.575C238.482 388.978 214.87 389.937 209.723 396.887C204.576 403.836 179.264 413.273 177.575 425.859Z" fill="#AFAFB1"/>
<path d="M1214.59 252.064C1212.53 267.425 1277.28 291.462 1309.91 301.561C1351.52 332.382 1342.42 297.497 1348.99 275.001C1355.56 252.504 1325.62 234.234 1316.56 215.016C1307.51 195.799 1271.48 197.263 1263.63 207.864C1255.78 218.466 1217.16 232.864 1214.59 252.064Z" fill="#AFAFB1"/>
<path d="M669.408 252.064C671.47 267.425 606.721 291.462 574.088 301.561C532.479 332.382 541.576 297.497 535.005 275.001C528.435 252.504 558.378 234.234 567.434 215.016C576.491 195.799 612.512 197.263 620.365 207.864C628.217 218.466 666.832 232.864 669.408 252.064Z" fill="#AFAFB1"/>
<path d="M1643.02 438.556C1637.1 445.372 1634.1 454.616 1633.33 458.387C1632.78 459.47 1632.16 462.291 1634.1 464.906C1636.52 468.175 1641.32 469.174 1644.57 470.817C1647.82 472.461 1654.52 470.536 1657.44 472.422C1660.36 474.308 1656.65 479.586 1653.65 478.269C1650.64 476.953 1644.03 478.308 1634.77 474.031C1625.5 469.755 1628.81 463.254 1624.48 464.945C1620.15 466.636 1620.48 466.393 1613.65 463.349C1606.83 460.305 1599.38 463.286 1595.07 462.941C1590.75 462.596 1592.68 455.6 1600.41 456.448C1608.15 457.297 1615.16 457.166 1613.88 454.065C1612.6 450.964 1609.95 445.332 1606.56 440.756C1603.17 436.18 1606.31 430.818 1608.44 430.258C1610.56 429.697 1611.33 436.216 1613.56 442.661C1615.8 449.105 1623 455.409 1621.32 451.084C1619.64 446.76 1624.45 436.112 1625.37 433.917C1626.28 431.722 1630 424.408 1632.02 426.453C1634.05 428.498 1627.2 439.138 1625.69 445.321C1624.17 451.504 1629.73 461.059 1629.46 453.157C1629.19 445.255 1647.46 422.612 1650.15 422.135C1652.85 421.659 1650.42 430.037 1643.02 438.556Z" fill="#3B4B17"/>
<path d="M240.975 438.556C246.895 445.372 249.899 454.616 250.661 458.387C251.213 459.47 251.832 462.291 249.895 464.906C247.474 468.175 242.671 469.174 239.423 470.817C236.174 472.461 229.475 470.536 226.554 472.422C223.633 474.308 227.341 479.586 230.348 478.269C233.354 476.953 239.968 478.308 249.229 474.031C258.491 469.755 255.181 463.254 259.515 464.945C263.848 466.636 263.52 466.393 270.345 463.349C277.17 460.305 284.611 463.286 288.929 462.941C293.247 462.596 291.32 455.6 283.582 456.448C275.843 457.297 268.832 457.166 270.113 454.065C271.394 450.964 274.042 445.332 277.432 440.756C280.821 436.18 277.684 430.818 275.56 430.258C273.436 429.697 272.669 436.216 270.435 442.661C268.201 449.105 260.992 455.409 262.672 451.084C264.352 446.76 259.544 436.112 258.63 433.917C257.717 431.722 253.994 424.408 251.971 426.453C249.949 428.498 256.794 439.138 258.308 445.321C259.822 451.504 254.268 461.059 254.535 453.157C254.802 445.255 236.535 422.612 233.841 422.135C231.147 421.659 233.574 430.037 240.975 438.556Z" fill="#3B4B17"/>
<path d="M1311.31 271.434C1320.34 281.832 1324.92 295.935 1326.09 301.687C1326.93 303.34 1327.87 307.643 1324.92 311.633C1321.22 316.619 1313.9 318.143 1308.94 320.65C1303.98 323.158 1293.76 320.221 1289.31 323.099C1284.85 325.976 1290.51 334.028 1295.1 332.019C1299.68 330.011 1309.77 332.078 1323.9 325.554C1338.03 319.03 1332.98 309.112 1339.59 311.692C1346.2 314.272 1345.7 313.901 1356.12 309.257C1366.53 304.614 1377.88 309.161 1384.47 308.634C1391.05 308.108 1388.11 297.435 1376.31 298.73C1364.5 300.025 1353.81 299.824 1355.76 295.094C1357.72 290.363 1361.75 281.772 1366.93 274.79C1372.1 267.809 1367.31 259.63 1364.07 258.774C1360.83 257.919 1359.66 267.864 1356.25 277.696C1352.84 287.527 1341.85 297.144 1344.41 290.547C1346.97 283.95 1339.64 267.705 1338.24 264.356C1336.85 261.008 1331.17 249.85 1328.08 252.97C1325 256.09 1335.44 272.321 1337.75 281.754C1340.06 291.188 1331.59 305.763 1332 293.708C1332.4 281.653 1304.53 247.11 1300.43 246.383C1296.32 245.656 1300.02 258.438 1311.31 271.434Z" fill="#3B4B17"/>
<path d="M572.688 271.434C563.655 281.832 559.073 295.935 557.91 301.687C557.069 303.34 556.124 307.643 559.079 311.633C562.773 316.619 570.1 318.143 575.055 320.65C580.011 323.158 590.231 320.221 594.687 323.099C599.143 325.976 593.486 334.028 588.899 332.019C584.313 330.011 574.224 332.078 560.094 325.554C545.965 319.03 551.014 309.112 544.403 311.692C537.793 314.272 538.293 313.901 527.881 309.257C517.468 304.614 506.117 309.161 499.529 308.634C492.942 308.108 495.882 297.435 507.687 298.73C519.493 300.025 530.19 299.824 528.235 295.094C526.281 290.363 522.241 281.772 517.07 274.79C511.898 267.809 516.686 259.63 519.926 258.774C523.166 257.919 524.335 267.864 527.744 277.696C531.152 287.527 542.149 297.144 539.587 290.547C537.024 283.95 544.359 267.705 545.752 264.356C547.145 261.008 552.825 249.85 555.911 252.97C558.997 256.09 548.553 272.321 546.244 281.754C543.935 291.188 552.407 305.763 552 293.708C551.593 281.653 579.461 247.11 583.57 246.383C587.68 245.656 583.978 258.438 572.688 271.434Z" fill="#3B4B17"/>
<path d="M1649.7 418.171C1647.7 419.65 1647.28 422.468 1648.76 424.466C1650.24 426.463 1653.06 426.882 1655.06 425.403C1657.05 423.924 1657.47 421.106 1655.99 419.109C1654.51 417.112 1651.7 416.692 1649.7 418.171Z" fill="#AD927C"/>
<path d="M234.297 418.171C236.294 419.65 236.714 422.468 235.235 424.466C233.755 426.463 230.937 426.882 228.94 425.403C226.943 423.924 226.523 421.106 228.003 419.109C229.482 417.112 232.3 416.692 234.297 418.171Z" fill="#AD927C"/>
<path d="M1301.12 240.335C1304.17 242.592 1304.81 246.891 1302.55 249.938C1300.29 252.985 1295.99 253.625 1292.95 251.368C1289.9 249.112 1289.26 244.812 1291.52 241.766C1293.77 238.719 1298.07 238.079 1301.12 240.335Z" fill="#AD927C"/>
<path d="M582.875 240.335C579.829 242.592 579.188 246.891 581.445 249.938C583.702 252.985 588.001 253.625 591.048 251.368C594.094 249.112 594.735 244.812 592.478 241.766C590.221 238.719 585.922 238.079 582.875 240.335Z" fill="#AD927C"/>
<path d="M1629.07 422.248C1627.08 423.727 1626.66 426.546 1628.14 428.543C1629.62 430.54 1632.43 430.96 1634.43 429.48C1636.43 428.001 1636.85 425.183 1635.37 423.186C1633.89 421.189 1631.07 420.769 1629.07 422.248Z" fill="#AD927C"/>
<path d="M254.922 422.248C256.919 423.727 257.339 426.546 255.86 428.543C254.38 430.54 251.562 430.96 249.565 429.48C247.568 428.001 247.148 425.183 248.628 423.186C250.107 421.189 252.925 420.769 254.922 422.248Z" fill="#AD927C"/>
<path d="M1332.59 246.555C1335.63 248.812 1336.27 253.111 1334.02 256.158C1331.76 259.205 1327.46 259.845 1324.41 257.588C1321.37 255.331 1320.73 251.032 1322.98 247.985C1325.24 244.939 1329.54 244.298 1332.59 246.555Z" fill="#AD927C"/>
<path d="M551.411 246.555C548.364 248.812 547.723 253.111 549.98 256.158C552.237 259.205 556.536 259.845 559.583 257.588C562.63 255.331 563.27 251.032 561.013 247.985C558.756 244.939 554.457 244.298 551.411 246.555Z" fill="#AD927C"/>
<path d="M1601.84 427.485C1599.84 428.965 1599.42 431.783 1600.9 433.78C1602.38 435.777 1605.2 436.197 1607.2 434.718C1609.2 433.238 1609.62 430.42 1608.14 428.423C1606.66 426.426 1603.84 426.006 1601.84 427.485Z" fill="#687F79"/>
<path d="M282.154 427.485C284.152 428.965 284.571 431.783 283.092 433.78C281.613 435.777 278.795 436.197 276.797 434.718C274.8 433.238 274.381 430.42 275.86 428.423C277.339 426.426 280.157 426.006 282.154 427.485Z" fill="#687F79"/>
<path d="M1374.13 254.545C1377.18 256.802 1377.82 261.101 1375.56 264.148C1373.3 267.195 1369 267.835 1365.96 265.578C1362.91 263.322 1362.27 259.022 1364.53 255.976C1366.78 252.929 1371.08 252.289 1374.13 254.545Z" fill="#687F79"/>
<path d="M509.866 254.545C506.819 256.802 506.179 261.101 508.435 264.148C510.692 267.195 514.991 267.835 518.038 265.578C521.085 263.322 521.725 259.022 519.468 255.976C517.212 252.929 512.912 252.289 509.866 254.545Z" fill="#687F79"/>
<path d="M1592.08 454.628C1590.08 456.107 1589.66 458.925 1591.14 460.923C1592.62 462.92 1595.44 463.339 1597.44 461.86C1599.43 460.381 1599.85 457.563 1598.37 455.566C1596.89 453.569 1594.08 453.149 1592.08 454.628Z" fill="#AFAFB1"/>
<path d="M291.916 454.628C293.913 456.107 294.333 458.925 292.854 460.923C291.374 462.92 288.556 463.339 286.559 461.86C284.562 460.381 284.142 457.563 285.622 455.566C287.101 453.569 289.919 453.149 291.916 454.628Z" fill="#AFAFB1"/>
<path d="M1389.02 295.953C1392.07 298.209 1392.71 302.509 1390.45 305.555C1388.2 308.602 1383.9 309.242 1380.85 306.986C1377.8 304.729 1377.16 300.43 1379.42 297.383C1381.68 294.336 1385.98 293.696 1389.02 295.953Z" fill="#AFAFB1"/>
<path d="M494.973 295.953C491.926 298.209 491.286 302.509 493.543 305.555C495.799 308.602 500.099 309.242 503.145 306.986C506.192 304.729 506.832 300.43 504.576 297.383C502.319 294.336 498.02 293.696 494.973 295.953Z" fill="#AFAFB1"/>
<path d="M1655.17 472.605C1653.18 474.084 1652.76 476.902 1654.24 478.899C1655.72 480.896 1658.53 481.316 1660.53 479.837C1662.53 478.357 1662.95 475.539 1661.47 473.542C1659.99 471.545 1657.17 471.125 1655.17 472.605Z" fill="#AD927C"/>
<path d="M228.822 472.605C230.82 474.084 231.239 476.902 229.76 478.899C228.281 480.896 225.463 481.316 223.465 479.837C221.468 478.357 221.049 475.539 222.528 473.542C224.007 471.545 226.825 471.125 228.822 472.605Z" fill="#AD927C"/>
<path d="M1292.77 323.377C1295.82 325.634 1296.46 329.933 1294.2 332.98C1291.94 336.027 1287.64 336.667 1284.6 334.41C1281.55 332.154 1280.91 327.854 1283.17 324.808C1285.42 321.761 1289.72 321.121 1292.77 323.377Z" fill="#AD927C"/>
<path d="M591.227 323.377C588.18 325.634 587.54 329.933 589.797 332.98C592.053 336.027 596.353 336.667 599.399 334.41C602.446 332.154 603.086 327.854 600.83 324.808C598.573 321.761 594.274 321.121 591.227 323.377Z" fill="#AD927C"/>
<path d="M1472.23 559.004C1452.13 548.502 1423.06 571.072 1411.03 583.67C1448.96 562.365 1488.43 582.798 1503.43 595.678C1501.4 587.83 1492.33 569.507 1472.23 559.004Z" fill="#465B56"/>
<path d="M1468.29 585.579C1445.66 587.095 1432.62 621.511 1428.93 638.529C1450.18 600.577 1494.52 597.437 1514.03 600.611C1508.21 594.968 1490.92 584.062 1468.29 585.579Z" fill="#465B56"/>
<path d="M1124.24 582.025C1122.26 559.431 1087.58 547.103 1070.49 543.762C1108.87 564.232 1112.93 608.495 1110.16 628.067C1115.68 622.134 1126.22 604.618 1124.24 582.025Z" fill="#465B56"/>
<path d="M1379.84 652.725C1399.67 641.72 1396.82 605.026 1392.92 588.055C1389.84 631.446 1351.06 653.16 1332.05 658.594C1339.72 661.223 1360.01 663.731 1379.84 652.725Z" fill="#465B56"/>
<path d="M1540.86 606.343C1560.07 618.401 1555.25 654.888 1550.44 671.624C1549.7 628.13 1512.14 604.358 1493.46 597.908C1501.26 595.696 1521.65 594.285 1540.86 606.343Z" fill="#465B56"/>
<path d="M1570.82 642.376C1554.43 639.102 1536.04 632.987 1518.84 617.69C1534.05 614.882 1566.74 610.271 1575.78 614.286C1587.08 619.306 1616.2 651.446 1570.82 642.376Z" fill="#364844"/>
<path d="M1552.77 545.103C1529.64 545.779 1508.86 584.156 1501.36 603.26C1512.98 630.726 1547.1 631.533 1565.96 621.766C1584.81 611.998 1582.83 624.547 1615.71 629.258C1648.59 633.969 1619.98 615.563 1615.82 596.194C1611.66 576.825 1625.98 585.08 1615.39 569.688C1604.81 554.296 1581.69 544.258 1552.77 545.103Z" fill="#819F98"/>
<path d="M1461.1 538.169C1469.99 555.658 1497.22 581.702 1498.94 591.319C1510.76 602.808 1503.49 480.183 1500.22 462.528C1496.94 444.873 1487.45 475.663 1474.26 489.235C1461.07 502.808 1449.99 516.309 1461.1 538.169Z" fill="#C6C9C6"/>
<path d="M1564.67 501.327C1569.62 509.545 1544.75 551.007 1529.38 563.315C1470.14 617.267 1483.65 465.599 1500.2 477.35C1513.61 486.876 1519.77 471.314 1528.33 466.011C1536.89 460.708 1546.49 467.478 1552.29 480.78C1558.09 494.081 1558.48 491.053 1564.67 501.327Z" fill="#AFAFB1"/>
<path d="M1542.2 499.923C1522.03 508.414 1514.84 549.101 1518.95 565.017C1520.47 610.761 1602.06 580.236 1607.56 571.954C1613.05 563.673 1607.59 552.123 1595.28 536.756C1582.97 521.389 1597.09 511.486 1579.63 497.92C1562.16 484.354 1562.37 491.432 1542.2 499.923Z" fill="#465B56"/>
<path d="M1495.33 573.555C1489.3 544.426 1479.39 529.324 1532.68 522.312C1615.83 511.372 1513.42 631.15 1495.33 573.555Z" fill="#C6C9C6"/>
<path d="M411.765 559.004C431.868 548.502 460.938 571.072 472.961 583.67C435.035 562.365 395.563 582.798 380.568 595.678C382.591 587.83 391.663 569.507 411.765 559.004Z" fill="#465B56"/>
<path d="M415.706 585.579C438.336 587.095 451.378 621.511 455.07 638.529C433.812 600.577 389.475 597.437 369.964 600.611C375.782 594.968 393.076 584.062 415.706 585.579Z" fill="#465B56"/>
<path d="M759.755 582.025C761.739 559.431 796.416 547.103 813.507 543.762C775.124 564.232 771.069 608.495 773.84 628.067C768.318 622.134 757.771 604.618 759.755 582.025Z" fill="#465B56"/>
<path d="M504.155 652.725C484.324 641.72 487.172 605.026 491.075 588.055C494.156 631.446 532.938 653.16 551.945 658.594C544.278 661.223 523.987 663.731 504.155 652.725Z" fill="#465B56"/>
<path d="M343.133 606.343C323.923 618.401 328.745 654.888 333.557 671.624C334.295 628.13 371.851 604.358 390.537 597.908C382.739 595.696 362.343 594.285 343.133 606.343Z" fill="#465B56"/>
<path d="M313.179 642.376C329.562 639.102 347.958 632.987 365.158 617.69C349.943 614.882 317.254 610.271 308.216 614.286C296.919 619.306 267.799 651.446 313.179 642.376Z" fill="#364844"/>
<path d="M331.223 545.103C354.355 545.779 375.135 584.156 382.634 603.26C371.015 630.726 336.896 631.533 318.039 621.766C299.182 611.998 301.161 624.547 268.281 629.258C235.401 633.969 264.016 615.563 268.178 596.194C272.34 576.825 258.019 585.08 268.601 569.688C279.183 554.296 302.308 544.258 331.223 545.103Z" fill="#819F98"/>
<path d="M422.895 538.169C414.01 555.658 386.776 581.702 385.055 591.319C373.234 602.808 380.503 480.183 383.777 462.528C387.052 444.873 396.542 475.663 409.732 489.235C422.923 502.808 434.001 516.309 422.895 538.169Z" fill="#C6C9C6"/>
<path d="M319.325 501.327C314.372 509.545 339.245 551.007 354.612 563.315C413.854 617.267 400.342 465.599 383.795 477.35C370.381 486.876 364.224 471.314 355.665 466.011C347.105 460.708 337.51 467.478 331.707 480.78C325.905 494.081 325.516 491.053 319.325 501.327Z" fill="#AFAFB1"/>
<path d="M341.797 499.923C361.968 508.414 369.158 549.101 365.045 565.017C363.528 610.761 281.932 580.236 276.438 571.954C270.943 563.673 276.407 552.123 288.716 536.756C301.024 521.389 286.905 511.486 304.369 497.92C321.832 484.354 321.626 491.432 341.797 499.923Z" fill="#465B56"/>
<path d="M388.67 573.555C394.699 544.426 404.604 529.324 351.311 522.312C268.166 511.372 370.577 631.15 388.67 573.555Z" fill="#C6C9C6"/>
<path d="M1116.34 654.36C1134.78 635.925 1176.81 612.34 1195.51 602.852C1220.73 583.605 1205 583.061 1193.62 577.096C1182.23 571.131 1118.52 616.403 1110.38 634.297C1102.25 652.19 1074.86 647.579 1069.44 658.424C1064.02 669.268 1093.3 677.403 1116.34 654.36Z" fill="#717371"/>
<path d="M1275.97 632.09C1275.12 615.969 1242.05 600.53 1225.62 594.826C1183.53 604.721 1186.56 712.143 1194.08 723.419C1201.61 734.696 1212.4 726.06 1231.95 716.278C1251.5 706.496 1267.72 737.26 1289.2 716.995C1310.69 696.731 1277.03 652.242 1275.97 632.09Z" fill="#6C837D"/>
<path d="M1168.7 738.443C1195.85 730.602 1225.18 661.46 1236.44 627.869C1246.03 602.711 1215.54 589.583 1199.1 586.164L1095.41 679.004C1081.13 691.792 1096.2 704.029 1106.97 705.71C1117.74 707.39 1134.76 748.245 1168.7 738.443Z" fill="#AFAFB1"/>
<path d="M1245.77 712.702C1234.18 698.313 1228.95 661.018 1227.79 644.169C1225.71 625.556 1196.53 624.008 1191.51 634.534C1186.49 645.06 1176.95 685.684 1177.53 694.776C1178.1 703.867 1175.59 719.319 1184.86 711.664C1194.13 704.01 1197.11 653.477 1197.58 647.723C1198.05 641.97 1205.07 646.126 1203.87 661.274C1202.67 676.422 1204.94 707.84 1206.89 715.099C1208.83 722.359 1208.47 742.957 1213.3 725.592C1217.16 711.7 1216.09 669.045 1215.08 649.454C1217.35 664.303 1223.24 695.561 1228.64 701.799C1235.4 709.596 1245.01 728.574 1250.44 734.2C1255.88 739.827 1260.25 730.689 1245.77 712.702Z" fill="#3B4B17"/>
<path d="M1175.85 707.343C1178.85 704.659 1183.45 704.913 1186.14 707.911C1188.82 710.908 1188.56 715.514 1185.57 718.197C1182.57 720.881 1177.96 720.627 1175.28 717.629C1172.6 714.632 1172.85 710.026 1175.85 707.343Z" fill="#7A745E"/>
<path d="M1204.58 727.934C1207.58 725.25 1212.18 725.504 1214.87 728.502C1217.55 731.499 1217.3 736.105 1214.3 738.789C1211.3 741.472 1206.69 741.218 1204.01 738.221C1201.33 735.223 1201.58 730.618 1204.58 727.934Z" fill="#AD927C"/>
<path d="M1250.63 729.934C1253.63 727.25 1258.23 727.504 1260.92 730.502C1263.6 733.499 1263.35 738.105 1260.35 740.789C1257.35 743.473 1252.74 743.218 1250.06 740.221C1247.38 737.223 1247.63 732.618 1250.63 729.934Z" fill="#7A745E"/>
<path d="M1270.51 645.229C1252.04 629.655 1236.5 600.54 1231.04 587.929C1281.08 591.507 1304.2 644.917 1311.92 657.562C1319.64 670.207 1310.33 710.966 1294.82 701.692C1279.31 692.418 1293.6 664.697 1270.51 645.229Z" fill="#4C5E59"/>
<path d="M1241.84 656.992C1264.38 609.763 1241.85 583.61 1227.77 576.436C1186.84 543.543 1189.21 598.206 1156.12 606.14C1123.03 614.075 1096.89 666.826 1110.95 668.276C1125.01 669.726 1132.17 686.279 1135.36 695.544C1138.55 704.809 1167.15 698.983 1185.49 683.838C1203.83 668.694 1213.67 716.027 1241.84 656.992Z" fill="#C6C9C6"/>
<path d="M1275.99 610.241C1262.31 616.332 1232.52 597.943 1219.33 587.988C1215.09 559.462 1235.09 559.03 1246.66 570.568C1258.23 582.107 1279.3 580.494 1285.07 577.39C1290.84 574.285 1315.23 582.931 1323.91 592.924C1330.85 600.918 1338.65 600.172 1341.68 598.8C1335.48 604.462 1324.92 601.889 1316.09 600.075C1307.26 598.261 1293.09 602.628 1275.99 610.241Z" fill="#6C837D"/>
<path d="M767.652 654.36C749.215 635.925 707.19 612.34 688.482 602.852C663.267 583.605 678.992 583.061 690.378 577.096C701.765 571.131 765.48 616.403 773.615 634.297C781.75 652.19 809.132 647.579 814.555 658.424C819.978 669.268 790.698 677.403 767.652 654.36Z" fill="#717371"/>
<path d="M608.026 632.09C608.874 615.969 641.945 600.53 658.374 594.826C700.465 604.721 697.435 712.143 689.912 723.419C682.389 734.696 671.594 726.06 652.046 716.278C632.499 706.496 616.277 737.26 594.793 716.995C573.309 696.731 606.967 652.242 608.026 632.09Z" fill="#6C837D"/>
<path d="M715.296 738.443C688.144 730.602 658.821 661.46 647.553 627.869C637.965 602.711 668.452 589.583 684.894 586.164L788.585 679.004C802.868 691.792 787.795 704.029 777.026 705.71C766.258 707.39 749.235 748.245 715.296 738.443Z" fill="#AFAFB1"/>
<path d="M638.225 712.702C649.811 698.313 655.041 661.018 656.208 644.169C658.283 625.556 687.462 624.008 692.484 634.534C697.507 645.06 707.046 685.684 706.47 694.776C705.894 703.867 708.404 719.319 699.135 711.664C689.866 704.01 686.883 653.477 686.415 647.723C685.947 641.97 678.923 646.126 680.124 661.274C681.325 676.422 679.056 707.84 677.109 715.099C675.162 722.359 675.522 742.957 670.695 725.592C666.833 711.7 667.901 669.045 668.918 649.454C666.649 664.303 660.758 695.561 655.351 701.799C648.592 709.596 638.983 728.574 633.552 734.2C628.12 739.827 623.743 730.689 638.225 712.702Z" fill="#3B4B17"/>
<path d="M708.147 707.343C705.15 704.659 700.544 704.913 697.86 707.911C695.177 710.908 695.431 715.514 698.428 718.197C701.426 720.881 706.031 720.627 708.715 717.629C711.399 714.632 711.145 710.026 708.147 707.343Z" fill="#7A745E"/>
<path d="M679.417 727.934C676.419 725.25 671.814 725.504 669.13 728.502C666.446 731.499 666.7 736.105 669.698 738.789C672.695 741.472 677.301 741.218 679.985 738.221C682.668 735.223 682.414 730.618 679.417 727.934Z" fill="#AD927C"/>
<path d="M633.367 729.934C630.369 727.25 625.764 727.504 623.08 730.502C620.396 733.499 620.65 738.105 623.648 740.789C626.645 743.473 631.251 743.218 633.935 740.221C636.618 737.223 636.364 732.618 633.367 729.934Z" fill="#7A745E"/>
<path d="M613.485 645.229C631.958 629.655 647.493 600.54 652.951 587.929C602.915 591.507 579.798 644.917 572.078 657.562C564.359 670.207 573.669 710.966 589.178 701.692C604.686 692.418 590.393 664.697 613.485 645.229Z" fill="#4C5E59"/>
<path d="M642.154 656.992C619.62 609.763 642.143 583.61 656.222 576.436C697.156 543.543 694.788 598.206 727.877 606.14C760.967 614.075 787.106 666.826 773.048 668.276C758.99 669.726 751.825 686.279 748.634 695.544C745.442 704.809 716.845 698.983 698.505 683.838C680.165 668.694 670.323 716.027 642.154 656.992Z" fill="#C6C9C6"/>
<path d="M608.006 610.241C621.688 616.332 651.477 597.943 664.661 587.988C668.901 559.462 648.903 559.03 637.332 570.568C625.761 582.107 604.694 580.494 598.927 577.39C593.16 574.285 568.763 582.931 560.088 592.924C553.149 600.918 545.347 600.172 542.314 598.8C548.517 604.462 559.078 601.889 567.909 600.075C576.741 598.261 590.903 602.628 608.006 610.241Z" fill="#6C837D"/>
<path d="M726.082 186.97C732.81 166.071 782.022 151.519 805.787 146.855C841.087 170.119 822.004 192.382 798.088 193.736C774.171 195.091 755.331 219.676 753.083 229.01C750.834 238.344 717.534 256.535 698.139 256.237C682.623 256 675.808 265.249 674.34 269.903C674.222 257.592 687.36 248.574 697.977 240.703C708.594 232.832 717.673 213.093 726.082 186.97Z" fill="#6C837D"/>
<path d="M892.2 337.317C837.792 276.613 896.884 228.088 933.231 211.413C974.262 188.369 1004.61 211.413 1020.35 260.313C1036.09 309.213 1006.86 348.558 982.131 359.238C957.4 369.917 927.61 337.317 919.741 337.317H892.2Z" fill="#AFAFB1"/>
<path d="M1067 151.835C1033.73 142.842 998.056 148.088 984.379 151.835C901.755 226.59 1067 311.462 1095.11 317.083C1123.21 322.703 1106.35 274.928 1137.26 261.438C1168.18 247.948 1150.75 186.683 1145.13 169.821C1139.51 152.959 1108.6 163.076 1067 151.835Z" fill="#7A745E"/>
<path d="M865.22 142.279C902.541 144.077 932.856 169.633 943.348 182.186C930.982 254.692 842.737 296.848 807.327 305.841C771.917 314.834 742.689 255.817 741.565 232.21C740.441 208.603 783.72 209.165 787.092 182.186C790.465 155.206 818.568 140.031 865.22 142.279Z" fill="#AD927C"/>
<path d="M956.838 21.4345C946.046 33.1255 952.341 128.228 956.838 174.317C972.576 210.852 1071.5 154.083 1102.98 137.783C1134.45 121.483 1122.65 83.8242 1121.52 54.0345C1120.4 24.2448 1070.38 -1.61034 1058.01 2.32415C1045.64 6.25863 970.327 6.8207 956.838 21.4345Z" fill="#C29E80"/>
<path d="M837.118 114.176C836.218 147.9 899.32 176.566 930.983 186.683C984.38 210.528 979.883 28.1794 961.335 7.94486C942.787 -12.2896 903.442 11.3173 870.842 21.4345C838.242 31.5518 838.242 72.0207 837.118 114.176Z" fill="#A07F64"/>
<path d="M941.1 105.183V170.945C937.727 181.624 921.99 234.459 926.486 249.634C930.983 264.81 947.845 268.183 941.1 245.138C935.704 226.702 950.468 208.603 958.524 201.859C993.372 218.159 1039.46 225.465 1045.64 217.034C1051.83 208.603 963.021 205.793 971.452 193.428C979.883 181.062 1029.91 162.514 1022.04 149.586C1014.17 136.659 972.014 190.055 963.021 178.252C954.028 166.448 975.386 146.214 987.19 127.665C998.993 109.117 1002.93 105.183 987.19 109.679C971.452 114.176 958.524 174.317 951.217 162.514C943.91 150.71 953.465 101.81 951.217 96.1896C948.969 90.5689 941.1 91.693 941.1 105.183Z" fill="#3B4B17"/>
<path d="M1006.86 105.183C1006.86 111.081 1002.08 115.862 996.183 115.862C990.285 115.862 985.503 111.081 985.503 105.183C985.503 99.2846 990.285 94.5034 996.183 94.5034C1002.08 94.5034 1006.86 99.2846 1006.86 105.183Z" fill="#687F79"/>
<path d="M1034.97 152.396C1034.97 158.294 1030.18 163.076 1024.29 163.076C1018.39 163.076 1013.61 158.294 1013.61 152.396C1013.61 146.498 1018.39 141.717 1024.29 141.717C1030.18 141.717 1034.97 146.498 1034.97 152.396Z" fill="#7A745E"/>
<path d="M1056.32 214.224C1056.32 220.122 1051.54 224.903 1045.64 224.903C1039.75 224.903 1034.97 220.122 1034.97 214.224C1034.97 208.326 1039.75 203.545 1045.64 203.545C1051.54 203.545 1056.32 208.326 1056.32 214.224Z" fill="#AFAFB1"/>
<path d="M954.027 261.438C954.027 267.336 949.246 272.117 943.348 272.117C937.45 272.117 932.669 267.336 932.669 261.438C932.669 255.54 937.45 250.759 943.348 250.759C949.246 250.759 954.027 255.54 954.027 261.438Z" fill="#7A745E"/>
<path d="M947.283 181.624C947.283 187.522 942.501 192.303 936.603 192.303C930.705 192.303 925.924 187.522 925.924 181.624C925.924 175.726 930.705 170.945 936.603 170.945C942.501 170.945 947.283 175.726 947.283 181.624Z" fill="#7A745E"/>
</svg>
